999
dxfrw 0.6.3
  0
SECTION
  2
HEADER
  9
$ACADVER
  1
AC1021
  9
$DWGCODEPAGE
  3
ANSI_1252
  9
$INSBASE
 10
0
 20
0
 30
0
  9
$EXTMIN
 10
-2324.319640402842
 20
-389.037304701389
 30
0
  9
$EXTMAX
 10
1512.052114408584
 20
2031.745388784024
 30
0
  9
$LIMMIN
 10
0
 20
0
  9
$LIMMAX
 10
420
 20
297
  9
$ORTHOMODE
 70
    0
  9
$REGENMODE
 70
    1
  9
$FILLMODE
 70
    1
  9
$QTEXTMODE
 70
    0
  9
$MIRRTEXT
 70
    0
  9
$LTSCALE
 40
1
  9
$ATTMODE
 70
    0
  9
$TEXTSIZE
 40
2.5
  9
$TRACEWID
 40
15.68
  9
$TEXTSTYLE
  7
STANDARD
  9
$CLAYER
  8
draft
  9
$CELTYPE
  6
BYLAYER
  9
$CECOLOR
 62
  256
  9
$CELTSCALE
 40
1
  9
$DISPSILH
 70
    0
  9
$DIMSCALE
 40
2.5
  9
$DIMASZ
 40
2.5
  9
$DIMEXO
 40
0.625
  9
$DIMDLI
 40
3.75
  9
$DIMRND
 40
0
  9
$DIMDLE
 40
0
  9
$DIMEXE
 40
1.25
  9
$DIMTP
 40
0
  9
$DIMTM
 40
0
  9
$DIMTXT
 40
2.5
  9
$DIMCEN
 40
2.5
  9
$DIMTSZ
 40
0
  9
$DIMTOL
 70
    0
  9
$DIMLIM
 70
    0
  9
$DIMTIH
 70
    0
  9
$DIMTOH
 70
    0
  9
$DIMSE1
 70
    0
  9
$DIMSE2
 70
    0
  9
$DIMTAD
 70
    1
  9
$DIMZIN
 70
    8
  9
$DIMBLK
  1

  9
$DIMASO
 70
    1
  9
$DIMSHO
 70
    1
  9
$DIMPOST
  1

  9
$DIMAPOST
  1

  9
$DIMALT
 70
    0
  9
$DIMALTD
 70
    3
  9
$DIMALTF
 40
0.03937
  9
$DIMLFAC
 40
1
  9
$DIMTOFL
 70
    1
  9
$DIMTVP
 40
0
  9
$DIMTIX
 70
    0
  9
$DIMSOXD
 70
    0
  9
$DIMSAH
 70
    0
  9
$DIMBLK1
  1

  9
$DIMBLK2
  1

  9
$DIMSTYLE
  2
STANDARD
  9
$DIMCLRD
 70
    0
  9
$DIMCLRE
 70
    0
  9
$DIMCLRT
 70
    0
  9
$DIMTFAC
 40
1
  9
$DIMGAP
 40
0.625
  9
$DIMJUST
 70
    0
  9
$DIMSD1
 70
    0
  9
$DIMSD2
 70
    0
  9
$DIMTOLJ
 70
    0
  9
$DIMTZIN
 70
    8
  9
$DIMALTZ
 70
    0
  9
$DIMALTTZ
 70
    0
  9
$DIMUPT
 70
    0
  9
$DIMDEC
 70
    2
  9
$DIMTDEC
 70
    2
  9
$DIMALTU
 70
    2
  9
$DIMALTTD
 70
    3
  9
$DIMTXSTY
  7
STANDARD
  9
$DIMAUNIT
 70
    0
  9
$DIMADEC
 70
    0
  9
$DIMALTRND
 40
0
  9
$DIMAZIN
 70
    0
  9
$DIMDSEP
 70
   44
  9
$DIMATFIT
 70
    3
  9
$DIMFRAC
 70
    0
  9
$DIMLDRBLK
  1
STANDARD
  9
$DIMLUNIT
 70
    2
  9
$DIMLWD
 70
   -2
  9
$DIMLWE
 70
   -2
  9
$DIMTMOVE
 70
    0
  9
$DIMFXL
 40
1
  9
$DIMFXLON
 70
    0
  9
$DIMJOGANG
 40
0.7854
  9
$DIMTFILL
 70
    0
  9
$DIMTFILLCLR
 70
    0
  9
$DIMARCSYM
 70
    0
  9
$DIMLTYPE
  6

  9
$DIMLTEX1
  6

  9
$DIMLTEX2
  6

  9
$LUNITS
 70
    2
  9
$LUPREC
 70
    4
  9
$SKETCHINC
 40
1
  9
$FILLETRAD
 40
0
  9
$AUNITS
 70
    0
  9
$AUPREC
 70
    2
  9
$MENU
  1
.
  9
$ELEVATION
 40
0
  9
$PELEVATION
 40
0
  9
$THICKNESS
 40
0
  9
$LIMCHECK
 70
    0
  9
$CHAMFERA
 40
0
  9
$CHAMFERB
 40
0
  9
$CHAMFERC
 40
0
  9
$CHAMFERD
 40
0
  9
$SKPOLY
 70
    0
  9
$USRTIMER
 70
    1
  9
$ANGBASE
 50
0
  9
$ANGDIR
 70
    0
  9
$PDMODE
 70
   34
  9
$PDSIZE
 40
0
  9
$PLINEWID
 40
0
  9
$SPLFRAME
 70
    0
  9
$SPLINETYPE
 70
    2
  9
$SPLINESEGS
 70
    8
  9
$HANDSEED
  5
20000
  9
$SURFTAB1
 70
    6
  9
$SURFTAB2
 70
    6
  9
$SURFTYPE
 70
    6
  9
$SURFU
 70
    6
  9
$SURFV
 70
    6
  9
$UCSBASE
  2

  9
$UCSNAME
  2

  9
$UCSORG
 10
0
 20
0
 30
0
  9
$UCSXDIR
 10
1
 20
0
 30
0
  9
$UCSYDIR
 10
0
 20
1
 30
0
  9
$UCSORTHOREF
  2

  9
$UCSORTHOVIEW
 70
    0
  9
$UCSORGTOP
 10
0
 20
0
 30
0
  9
$UCSORGBOTTOM
 10
0
 20
0
 30
0
  9
$UCSORGLEFT
 10
0
 20
0
 30
0
  9
$UCSORGRIGHT
 10
0
 20
0
 30
0
  9
$UCSORGFRONT
 10
0
 20
0
 30
0
  9
$UCSORGBACK
 10
0
 20
0
 30
0
  9
$PUCSBASE
  2

  9
$PUCSNAME
  2

  9
$PUCSORG
 10
0
 20
0
 30
0
  9
$PUCSXDIR
 10
1
 20
0
 30
0
  9
$PUCSYDIR
 10
0
 20
1
 30
0
  9
$PUCSORTHOREF
  2

  9
$PUCSORTHOVIEW
 70
    0
  9
$PUCSORGTOP
 10
0
 20
0
 30
0
  9
$PUCSORGBOTTOM
 10
0
 20
0
 30
0
  9
$PUCSORGLEFT
 10
0
 20
0
 30
0
  9
$PUCSORGRIGHT
 10
0
 20
0
 30
0
  9
$PUCSORGFRONT
 10
0
 20
0
 30
0
  9
$PUCSORGBACK
 10
0
 20
0
 30
0
  9
$USERI1
 70
    0
  9
$USERI2
 70
    0
  9
$USERI3
 70
    0
  9
$USERI4
 70
    0
  9
$USERI5
 70
    0
  9
$USERR1
 40
0
  9
$USERR2
 40
0
  9
$USERR3
 40
0
  9
$USERR4
 40
0
  9
$USERR5
 40
0
  9
$WORLDVIEW
 70
    1
  9
$SHADEDGE
 70
    3
  9
$SHADEDIF
 70
   70
  9
$TILEMODE
 70
    1
  9
$MAXACTVP
 70
   64
  9
$PINSBASE
 10
179.9416160161925
 20
41.41331808359585
 30
0
  9
$PLIMCHECK
 70
    0
  9
$PEXTMIN
 10
0
 20
0
 30
0
  9
$PEXTMAX
 10
0
 20
0
 30
0
  9
$SNAPSTYLE
 70
    0
  9
$PLIMMIN
 10
0
 20
0
  9
$PLIMMAX
 10
297
 20
210
  9
$UNITMODE
 70
    0
  9
$VISRETAIN
 70
    1
  9
$PLINEGEN
 70
    0
  9
$PSLTSCALE
 70
    1
  9
$TREEDEPTH
 70
 3020
  9
$CMLSTYLE
  2
Standard
  9
$CMLJUST
 70
    0
  9
$CMLSCALE
 40
20
  9
$PROXYGRAPHICS
 70
    1
  9
$MEASUREMENT
 70
    1
  9
$CELWEIGHT
370
   -1
  9
$ENDCAPS
280
    0
  9
$JOINSTYLE
280
    0
  9
$LWDISPLAY
290
    0
  9
$INSUNITS
 70
    4
  9
$HYPERLINKBASE
  1

  9
$STYLESHEET
  1

  9
$XEDIT
290
    1
  9
$CEPSNTYPE
380
    0
  9
$PSTYLEMODE
290
    1
  9
$EXTNAMES
290
    1
  9
$PSVPSCALE
 40
0.07741675763135689
  9
$OLESTARTUP
290
    0
  9
$SORTENTS
280
  127
  9
$INDEXCTL
280
    0
  9
$HIDETEXT
280
    1
  9
$XCLIPFRAME
290
    0
  9
$HALOGAP
280
    0
  9
$OBSCOLOR
 70
  257
  9
$OBSLTYPE
280
    0
  9
$INTERSECTIONDISPLAY
280
    0
  9
$INTERSECTIONCOLOR
 70
  257
  9
$DIMASSOC
280
    1
  9
$PROJECTNAME
  1

  9
$CAMERADISPLAY
290
    0
  9
$LENSLENGTH
 40
50
  9
$CAMERAHEIGHT
 40
0
  9
$STEPSPERSEC
 40
2
  9
$STEPSIZE
 40
50
  9
$3DDWFPREC
 40
2
  9
$PSOLWIDTH
 40
5
  9
$PSOLHEIGHT
 40
80
  9
$LOFTANG1
 40
1.570796326794897
  9
$LOFTANG2
 40
1.570796326794897
  9
$LOFTMAG1
 40
0
  9
$LOFTMAG2
 40
0
  9
$LOFTPARAM
 70
    7
  9
$LOFTNORMALS
280
    1
  9
$LATITUDE
 40
1
  9
$LONGITUDE
 40
1
  9
$NORTHDIRECTION
 40
0
  9
$TIMEZONE
 70
-8000
  9
$LIGHTGLYPHDISPLAY
280
    1
  9
$TILEMODELIGHTSYNCH
280
    1
  9
$SOLIDHIST
280
    1
  9
$SHOWHIST
280
    1
  9
$DWFFRAME
280
    2
  9
$DGNFRAME
280
    0
  9
$REALWORLDSCALE
290
    1
  9
$INTERFERECOLOR
 62
    1
  9
$CSHADOW
280
    0
  9
$SHADOWPLANELOCATION
 40
0
  0
ENDSEC
  0
SECTION
  2
CLASSES
  0
ENDSEC
  0
SECTION
  2
TABLES
  0
TABLE
  2
VPORT
  5
8
330
0
100
AcDbSymbolTable
 70
    1
  0
VPORT
  5
31
330
2
100
AcDbSymbolTableRecord
100
AcDbViewportTableRecord
  2
*ACTIVE
 70
    0
 10
0
 20
0
 11
1
 21
1
 12
1054.367565927414
 22
1174.813772931424
 13
0
 23
0
 14
10
 24
10
 15
10
 25
10
 16
0
 26
0
 36
1
 17
0
 27
0
 37
0
 40
2968.535748006531
 41
1.722846441947566
 42
50
 43
0
 44
0
 50
0
 51
0
 71
    0
 72
  100
 73
    1
 74
    3
 75
    0
 76
    1
 77
    0
 78
    0
281
    0
 65
    1
110
0
120
0
130
0
111
1
121
0
131
0
112
0
122
1
132
0
 79
    0
146
0
348
10020
 60
    7
 61
    5
292
1
282
    1
141
0
142
0
 63
  250
421
3358443
  0
ENDTAB
  0
TABLE
  2
LTYPE
  5
5
330
0
100
AcDbSymbolTable
 70
    4
  0
LTYPE
  5
14
330
5
100
AcDbSymbolTableRecord
100
AcDbLinetypeTableRecord
  2
ByBlock
 70
    0
  3

 72
   65
 73
    0
 40
0
  0
LTYPE
  5
15
330
5
100
AcDbSymbolTableRecord
100
AcDbLinetypeTableRecord
  2
ByLayer
 70
    0
  3

 72
   65
 73
    0
 40
0
  0
LTYPE
  5
16
330
5
100
AcDbSymbolTableRecord
100
AcDbLinetypeTableRecord
  2
Continuous
 70
    0
  3
Solid line
 72
   65
 73
    0
 40
0
  0
LTYPE
  5
32
330
5
100
AcDbSymbolTableRecord
100
AcDbLinetypeTableRecord
  2
DOT
 70
    0
  3
Dot . . . . . . . . . . . . . . . . . . . . . .
 72
   65
 73
    2
 40
6.35
 49
0
 74
    0
 49
-6.35
 74
    0
  0
LTYPE
  5
33
330
5
100
AcDbSymbolTableRecord
100
AcDbLinetypeTableRecord
  2
DOTTINY
 70
    0
  3
Dot (.15x) .....................................
 72
   65
 73
    2
 40
0.9525
 49
0
 74
    0
 49
-0.9525
 74
    0
  0
LTYPE
  5
34
330
5
100
AcDbSymbolTableRecord
100
AcDbLinetypeTableRecord
  2
DOT2
 70
    0
  3
Dot (.5x) .....................................
 72
   65
 73
    2
 40
3.175
 49
0
 74
    0
 49
-3.175
 74
    0
  0
LTYPE
  5
35
330
5
100
AcDbSymbolTableRecord
100
AcDbLinetypeTableRecord
  2
DOTX2
 70
    0
  3
Dot (2x) .  .  .  .  .  .  .  .  .  .  .  .  .
 72
   65
 73
    2
 40
12.7
 49
0
 74
    0
 49
-12.7
 74
    0
  0
LTYPE
  5
36
330
5
100
AcDbSymbolTableRecord
100
AcDbLinetypeTableRecord
  2
DASHED
 70
    0
  3
Dashed _ _ _ _ _ _ _ _ _ _ _ _ _ _ _ _ _
 72
   65
 73
    2
 40
19.05
 49
12.7
 74
    0
 49
-6.35
 74
    0
  0
LTYPE
  5
37
330
5
100
AcDbSymbolTableRecord
100
AcDbLinetypeTableRecord
  2
DASHEDTINY
 70
    0
  3
Dashed (.15x) _ _ _ _ _ _ _ _ _ _ _ _ _ _ _ _ _
 72
   65
 73
    2
 40
2.8575
 49
1.905
 74
    0
 49
-0.9525
 74
    0
  0
LTYPE
  5
38
330
5
100
AcDbSymbolTableRecord
100
AcDbLinetypeTableRecord
  2
DASHED2
 70
    0
  3
Dashed (.5x) _ _ _ _ _ _ _ _ _ _ _ _ _ _ _ _ _
 72
   65
 73
    2
 40
9.524999999999999
 49
6.35
 74
    0
 49
-3.175
 74
    0
  0
LTYPE
  5
39
330
5
100
AcDbSymbolTableRecord
100
AcDbLinetypeTableRecord
  2
DASHEDX2
 70
    0
  3
Dashed (2x) ____  ____  ____  ____  ____  ___
 72
   65
 73
    2
 40
38.09999999999999
 49
25.4
 74
    0
 49
-12.7
 74
    0
  0
LTYPE
  5
3A
330
5
100
AcDbSymbolTableRecord
100
AcDbLinetypeTableRecord
  2
DASHDOT
 70
    0
  3
Dash dot __ . __ . __ . __ . __ . __ . __ . __
 72
   65
 73
    4
 40
25.4
 49
12.7
 74
    0
 49
-6.35
 74
    0
 49
0
 74
    0
 49
-6.35
 74
    0
  0
LTYPE
  5
3B
330
5
100
AcDbSymbolTableRecord
100
AcDbLinetypeTableRecord
  2
DASHDOTTINY
 70
    0
  3
Dash dot (.15x) _._._._._._._._._._._._._._._.
 72
   65
 73
    4
 40
3.81
 49
1.905
 74
    0
 49
-0.9525
 74
    0
 49
0
 74
    0
 49
-0.9525
 74
    0
  0
LTYPE
  5
3C
330
5
100
AcDbSymbolTableRecord
100
AcDbLinetypeTableRecord
  2
DASHDOT2
 70
    0
  3
Dash dot (.5x) _._._._._._._._._._._._._._._.
 72
   65
 73
    4
 40
12.7
 49
6.35
 74
    0
 49
-3.175
 74
    0
 49
0
 74
    0
 49
-3.175
 74
    0
  0
LTYPE
  5
3D
330
5
100
AcDbSymbolTableRecord
100
AcDbLinetypeTableRecord
  2
DASHDOTX2
 70
    0
  3
Dash dot (2x) ____  .  ____  .  ____  .  ___
 72
   65
 73
    4
 40
50.8
 49
25.4
 74
    0
 49
-12.7
 74
    0
 49
0
 74
    0
 49
-12.7
 74
    0
  0
LTYPE
  5
3E
330
5
100
AcDbSymbolTableRecord
100
AcDbLinetypeTableRecord
  2
DIVIDE
 70
    0
  3
Divide ____ . . ____ . . ____ . . ____ . . ____
 72
   65
 73
    6
 40
31.75
 49
12.7
 74
    0
 49
-6.35
 74
    0
 49
0
 74
    0
 49
-6.35
 74
    0
 49
0
 74
    0
 49
-6.35
 74
    0
  0
LTYPE
  5
3F
330
5
100
AcDbSymbolTableRecord
100
AcDbLinetypeTableRecord
  2
DIVIDETINY
 70
    0
  3
Divide (.15x) __..__..__..__..__..__..__..__.._
 72
   65
 73
    6
 40
4.7625
 49
1.905
 74
    0
 49
-0.9525
 74
    0
 49
0
 74
    0
 49
-0.9525
 74
    0
 49
0
 74
    0
 49
-0.9525
 74
    0
  0
LTYPE
  5
40
330
5
100
AcDbSymbolTableRecord
100
AcDbLinetypeTableRecord
  2
DIVIDE2
 70
    0
  3
Divide (.5x) __..__..__..__..__..__..__..__.._
 72
   65
 73
    6
 40
15.875
 49
6.35
 74
    0
 49
-3.175
 74
    0
 49
0
 74
    0
 49
-3.175
 74
    0
 49
0
 74
    0
 49
-3.175
 74
    0
  0
LTYPE
  5
41
330
5
100
AcDbSymbolTableRecord
100
AcDbLinetypeTableRecord
  2
DIVIDEX2
 70
    0
  3
Divide (2x) ________  .  .  ________  .  .  _
 72
   65
 73
    6
 40
63.5
 49
25.4
 74
    0
 49
-12.7
 74
    0
 49
0
 74
    0
 49
-12.7
 74
    0
 49
0
 74
    0
 49
-12.7
 74
    0
  0
LTYPE
  5
42
330
5
100
AcDbSymbolTableRecord
100
AcDbLinetypeTableRecord
  2
BORDER
 70
    0
  3
Border __ __ . __ __ . __ __ . __ __ . __ __ .
 72
   65
 73
    6
 40
44.45
 49
12.7
 74
    0
 49
-6.35
 74
    0
 49
12.7
 74
    0
 49
-6.35
 74
    0
 49
0
 74
    0
 49
-6.35
 74
    0
  0
LTYPE
  5
43
330
5
100
AcDbSymbolTableRecord
100
AcDbLinetypeTableRecord
  2
BORDERTINY
 70
    0
  3
Border (.15x) __.__.__.__.__.__.__.__.__.__.__.
 72
   65
 73
    6
 40
6.6675
 49
1.905
 74
    0
 49
-0.9525
 74
    0
 49
1.905
 74
    0
 49
-0.9525
 74
    0
 49
0
 74
    0
 49
-0.9525
 74
    0
  0
LTYPE
  5
44
330
5
100
AcDbSymbolTableRecord
100
AcDbLinetypeTableRecord
  2
BORDER2
 70
    0
  3
Border (.5x) __.__.__.__.__.__.__.__.__.__.__.
 72
   65
 73
    6
 40
22.225
 49
6.35
 74
    0
 49
-3.175
 74
    0
 49
6.35
 74
    0
 49
-3.175
 74
    0
 49
0
 74
    0
 49
-3.175
 74
    0
  0
LTYPE
  5
45
330
5
100
AcDbSymbolTableRecord
100
AcDbLinetypeTableRecord
  2
BORDERX2
 70
    0
  3
Border (2x) ____  ____  .  ____  ____  .  ___
 72
   65
 73
    6
 40
88.89999999999999
 49
25.4
 74
    0
 49
-12.7
 74
    0
 49
25.4
 74
    0
 49
-12.7
 74
    0
 49
0
 74
    0
 49
-12.7
 74
    0
  0
LTYPE
  5
46
330
5
100
AcDbSymbolTableRecord
100
AcDbLinetypeTableRecord
  2
CENTER
 70
    0
  3
Center ____ _ ____ _ ____ _ ____ _ ____ _ ____
 72
   65
 73
    4
 40
50.8
 49
31.75
 74
    0
 49
-6.35
 74
    0
 49
6.35
 74
    0
 49
-6.35
 74
    0
  0
LTYPE
  5
47
330
5
100
AcDbSymbolTableRecord
100
AcDbLinetypeTableRecord
  2
CENTERTINY
 70
    0
  3
Center (.15x) ___ _ ___ _ ___ _ ___ _ ___ _ ___
 72
   65
 73
    4
 40
7.619999999999999
 49
4.7625
 74
    0
 49
-0.9525
 74
    0
 49
0.9525
 74
    0
 49
-0.9525
 74
    0
  0
LTYPE
  5
48
330
5
100
AcDbSymbolTableRecord
100
AcDbLinetypeTableRecord
  2
CENTER2
 70
    0
  3
Center (.5x) ___ _ ___ _ ___ _ ___ _ ___ _ ___
 72
   65
 73
    4
 40
28.575
 49
19.05
 74
    0
 49
-3.175
 74
    0
 49
3.175
 74
    0
 49
-3.175
 74
    0
  0
LTYPE
  5
49
330
5
100
AcDbSymbolTableRecord
100
AcDbLinetypeTableRecord
  2
CENTERX2
 70
    0
  3
Center (2x) ________  __  ________  __  _____
 72
   65
 73
    4
 40
101.6
 49
63.5
 74
    0
 49
-12.7
 74
    0
 49
12.7
 74
    0
 49
-12.7
 74
    0
  0
ENDTAB
  0
TABLE
  2
LAYER
  5
2
330
0
100
AcDbSymbolTable
 70
    1
  0
LAYER
  5
10
330
2
100
AcDbSymbolTableRecord
100
AcDbLayerTableRecord
  2
0
 70
    0
 62
    7
  6
CONTINUOUS
370
    0
390
F
  0
LAYER
  5
4A
330
2
100
AcDbSymbolTableRecord
100
AcDbLayerTableRecord
  2
draft
 70
    1
 62
    6
  6
CONTINUOUS
370
    0
390
F
  0
LAYER
  5
4B
330
2
100
AcDbSymbolTableRecord
100
AcDbLayerTableRecord
  2
ok
 70
    1
 62
    3
  6
CONTINUOUS
370
   50
390
F
  0
ENDTAB
  0
TABLE
  2
STYLE
  5
3
330
0
100
AcDbSymbolTable
 70
    3
  0
STYLE
  5
4C
330
2
100
AcDbSymbolTableRecord
100
AcDbTextStyleTableRecord
  2
Standard
 70
    0
 40
0
 41
1
 50
0
 71
    0
 42
1
  3
txt
  4

  0
ENDTAB
  0
TABLE
  2
VIEW
  5
6
330
0
100
AcDbSymbolTable
 70
    0
  0
ENDTAB
  0
TABLE
  2
UCS
  5
7
330
0
100
AcDbSymbolTable
 70
    0
  0
ENDTAB
  0
TABLE
  2
APPID
  5
9
330
0
100
AcDbSymbolTable
 70
    1
  0
APPID
  5
12
330
9
100
AcDbSymbolTableRecord
100
AcDbRegAppTableRecord
  2
ACAD
 70
    0
  0
APPID
  5
4D
330
9
100
AcDbSymbolTableRecord
100
AcDbRegAppTableRecord
  2
LibreCad
 70
    0
  0
ENDTAB
  0
TABLE
  2
DIMSTYLE
  5
A
330
0
100
AcDbSymbolTable
 70
    1
100
AcDbDimStyleTable
 71
    1
  0
DIMSTYLE
105
4E
330
A
100
AcDbSymbolTableRecord
100
AcDbDimStyleTableRecord
  2
Standard
 70
    0
 40
1
 41
2.5
 42
0.625
 43
0.38
 44
1.25
 45
0
 46
0
 47
0
 48
0
 49
1
140
2.5
141
0.09
142
2.5
143
25.4
144
1
145
0
146
1
147
0.625
148
0
 71
    0
 72
    0
 73
    0
 74
    1
 75
    0
 76
    0
 77
    0
 78
    1
 79
    0
170
    0
171
    2
172
    0
173
    0
174
    0
175
    0
176
    0
177
    0
178
    0
179
    0
271
    2
272
    4
273
    2
274
    2
275
    0
276
    0
277
    2
278
    0
279
    0
280
    0
281
    0
282
    0
283
    1
284
    0
285
    0
286
    0
288
    0
289
    3
340
standard
341

371
   -2
372
   -2
  0
ENDTAB
  0
TABLE
  2
BLOCK_RECORD
  5
1
330
0
100
AcDbSymbolTable
 70
    2
  0
BLOCK_RECORD
  5
1F
330
1
100
AcDbSymbolTableRecord
100
AcDbBlockTableRecord
  2
*Model_Space
 70
    0
280
    1
281
    0
  0
BLOCK_RECORD
  5
1E
330
1
100
AcDbSymbolTableRecord
100
AcDbBlockTableRecord
  2
*Paper_Space
 70
    0
280
    1
281
    0
  0
ENDTAB
  0
ENDSEC
  0
SECTION
  2
BLOCKS
  0
BLOCK
  5
20
330
1F
100
AcDbEntity
  8
0
100
AcDbBlockBegin
  2
*Model_Space
 70
    0
 10
0
 20
0
 30
0
  3
*Model_Space
  1

  0
ENDBLK
  5
21
330
1F
100
AcDbEntity
  8
0
100
AcDbBlockEnd
  0
BLOCK
  5
1C
330
1B
100
AcDbEntity
  8
0
100
AcDbBlockBegin
  2
*Paper_Space
 70
    0
 10
0
 20
0
 30
0
  3
*Paper_Space
  1

  0
ENDBLK
  5
1D
330
1F
100
AcDbEntity
  8
0
100
AcDbBlockEnd
  0
ENDSEC
  0
SECTION
  2
ENTITIES
  0
LINE
  5
4F
100
AcDbEntity
  8
0
  6
ByLayer
 62
  256
370
   -1
100
AcDbLine
 10
-50
 20
0
 11
50
 21
100
  0
LINE
  5
50
100
AcDbEntity
  8
0
  6
ByLayer
 62
  256
370
   -1
100
AcDbLine
 10
50
 20
100
 11
-50
 21
200
  0
LINE
  5
51
100
AcDbEntity
  8
0
  6
ByLayer
 62
  256
370
   -1
100
AcDbLine
 10
-50
 20
200
 11
50
 21
300
  0
LINE
  5
52
100
AcDbEntity
  8
0
  6
ByLayer
 62
  256
370
   -1
100
AcDbLine
 10
50
 20
300
 11
-50
 21
400
  0
LINE
  5
53
100
AcDbEntity
  8
0
  6
ByLayer
 62
  256
370
   -1
100
AcDbLine
 10
-50
 20
400
 11
50
 21
500
  0
LINE
  5
54
100
AcDbEntity
  8
0
  6
ByLayer
 62
  256
370
   -1
100
AcDbLine
 10
50
 20
500
 11
-50
 21
600
  0
LINE
  5
55
100
AcDbEntity
  8
0
  6
ByLayer
 62
  256
370
   -1
100
AcDbLine
 10
-50
 20
600
 11
50
 21
700
  0
LINE
  5
56
100
AcDbEntity
  8
0
  6
ByLayer
 62
  256
370
   -1
100
AcDbLine
 10
50
 20
700
 11
-50
 21
800
  0
LINE
  5
57
100
AcDbEntity
  8
0
  6
ByLayer
 62
  256
370
   -1
100
AcDbLine
 10
-50
 20
800
 11
50
 21
900
  0
LINE
  5
58
100
AcDbEntity
  8
0
  6
ByLayer
 62
  256
370
   -1
100
AcDbLine
 10
50
 20
900
 11
-50
 21
1000
  0
LINE
  5
59
100
AcDbEntity
  8
0
  6
ByLayer
 62
  256
370
   -1
100
AcDbLine
 10
-50
 20
1000
 11
50
 21
1100
  0
LINE
  5
5A
100
AcDbEntity
  8
0
  6
ByLayer
 62
  256
370
   -1
100
AcDbLine
 10
50
 20
1100
 11
-50
 21
1200
  0
LINE
  5
5B
100
AcDbEntity
  8
0
  6
ByLayer
 62
  256
370
   -1
100
AcDbLine
 10
-50
 20
1200
 11
50
 21
1300
  0
LINE
  5
5C
100
AcDbEntity
  8
0
  6
ByLayer
 62
  256
370
   -1
100
AcDbLine
 10
50
 20
1300
 11
-50
 21
1400
  0
LINE
  5
5D
100
AcDbEntity
  8
0
  6
ByLayer
 62
  256
370
   -1
100
AcDbLine
 10
-50
 20
1400
 11
50
 21
1500
  0
LINE
  5
5E
100
AcDbEntity
  8
0
  6
ByLayer
 62
  256
370
   -1
100
AcDbLine
 10
50
 20
1500
 11
-50
 21
1600
  0
LINE
  5
5F
100
AcDbEntity
  8
0
  6
ByLayer
 62
  256
370
   -1
100
AcDbLine
 10
-50
 20
1600
 11
50
 21
1700
  0
LINE
  5
60
100
AcDbEntity
  8
0
  6
ByLayer
 62
  256
370
   -1
100
AcDbLine
 10
50
 20
1700
 11
-50
 21
1800
  0
LINE
  5
61
100
AcDbEntity
  8
0
  6
ByLayer
 62
  256
370
   -1
100
AcDbLine
 10
-50
 20
1800
 11
50
 21
1900
  0
LINE
  5
62
100
AcDbEntity
  8
0
  6
ByLayer
 62
  256
370
   -1
100
AcDbLine
 10
49.99999999999272
 20
1900.000000000001
 11
-416.3893712577221
 21
1876.126282697775
  0
LINE
  5
63
100
AcDbEntity
  8
0
  6
ByLayer
 62
  256
370
   -1
100
AcDbLine
 10
50.00000000000012
 20
1900
 11
548.8324773792899
 21
1865.850922243194
  0
LINE
  5
64
100
AcDbEntity
  8
0
  6
ByLayer
 62
  256
370
   -1
100
AcDbLine
 10
-50
 20
0
 11
-319.6469598278051
 21
-13.80279158801017
  0
LINE
  5
65
100
AcDbEntity
  8
0
  6
ByLayer
 62
  256
370
   -1
100
AcDbLine
 10
-50
 20
0
 11
418.9025287365324
 21
-32.10013309139664
  0
LINE
  5
66
100
AcDbEntity
  8
0
  6
ByLayer
 62
  256
370
   -1
100
AcDbLine
 10
-49.99999999999977
 20
1800
 11
-411.5452509103648
 21
1781.493083581816
  0
LINE
  5
67
100
AcDbEntity
  8
0
  6
ByLayer
 62
  256
370
   -1
100
AcDbLine
 10
49.99999999999977
 20
1700
 11
-406.1784500263263
 21
1676.648963234461
  0
LINE
  5
68
100
AcDbEntity
  8
0
  6
ByLayer
 62
  256
370
   -1
100
AcDbLine
 10
-49.9999999999999
 20
1600
 11
-401.3343296789693
 21
1582.015764118502
  0
LINE
  5
69
100
AcDbEntity
  8
0
  6
ByLayer
 62
  256
370
   -1
100
AcDbLine
 10
50.0000000000001
 20
1500
 11
-395.9675287949285
 21
1477.171643771147
  0
LINE
  5
6A
100
AcDbEntity
  8
0
  6
ByLayer
 62
  256
370
   -1
100
AcDbLine
 10
-49.99999999999991
 20
1400
 11
-391.1234084475738
 21
1382.538444655188
  0
LINE
  5
6B
100
AcDbEntity
  8
0
  6
ByLayer
 62
  256
370
   -1
100
AcDbLine
 10
50
 20
1300
 11
-385.756607563533
 21
1277.694324307833
  0
LINE
  5
6C
100
AcDbEntity
  8
0
  6
ByLayer
 62
  256
370
   -1
100
AcDbLine
 10
-50
 20
1000
 11
-370.7015659847827
 21
983.5838057285599
  0
LINE
  5
6D
100
AcDbEntity
  8
0
  6
ByLayer
 62
  256
370
   -1
100
AcDbLine
 10
50.00000000000011
 20
900.0000000000001
 11
-365.334765100742
 21
878.739685381205
  0
LINE
  5
6E
100
AcDbEntity
  8
0
  6
ByLayer
 62
  256
370
   -1
100
AcDbLine
 10
-49.99999999999995
 20
799.9999999999999
 11
-360.4906447533872
 21
784.1064862652457
  0
LINE
  5
6F
100
AcDbEntity
  8
0
  6
ByLayer
 62
  256
370
   -1
100
AcDbLine
 10
50.00000000000004
 20
700.0000000000001
 11
-355.1238438693474
 21
679.2623659178911
  0
LINE
  5
70
100
AcDbEntity
  8
0
  6
ByLayer
 62
  256
370
   -1
100
AcDbLine
 10
-49.99999999999989
 20
599.9999999999999
 11
-350.2797235219917
 21
584.6291668019318
  0
LINE
  5
71
100
AcDbEntity
  8
0
  6
ByLayer
 62
  256
370
   -1
100
AcDbLine
 10
50.00000000000017
 20
499.9999999999998
 11
-344.9129226379516
 21
479.785046454577
  0
LINE
  5
72
100
AcDbEntity
  8
0
  6
ByLayer
 62
  256
370
   -1
100
AcDbLine
 10
-49.99999999999994
 20
400.0000000000001
 11
-340.0688022905962
 21
385.1518473386179
  0
LINE
  5
73
100
AcDbEntity
  8
0
  6
ByLayer
 62
  256
370
   -1
100
AcDbLine
 10
50.00000000000006
 20
300.0000000000001
 11
-334.7020014065558
 21
280.3077269912631
  0
LINE
  5
74
100
AcDbEntity
  8
0
  6
ByLayer
 62
  256
370
   -1
100
AcDbLine
 10
50
 20
100
 11
-324.4910801751599
 21
80.83040752794898
  0
LINE
  5
75
100
AcDbEntity
  8
0
  6
ByLayer
 62
  256
370
   -1
100
AcDbLine
 10
-50
 20
1800
 11
541.5521459515758
 21
1759.503518424792
  0
LINE
  5
76
100
AcDbEntity
  8
0
  6
ByLayer
 62
  256
370
   -1
100
AcDbLine
 10
49.99999999999977
 20
1700
 11
535.2047421331739
 21
1666.783849852506
  0
LINE
  5
77
100
AcDbEntity
  8
0
  6
ByLayer
 62
  256
370
   -1
100
AcDbLine
 10
-50
 20
1600
 11
527.9244107054598
 21
1560.436446034104
  0
LINE
  5
78
100
AcDbEntity
  8
0
  6
ByLayer
 62
  256
370
   -1
100
AcDbLine
 10
50
 20
1500
 11
521.5770068870579
 21
1467.716777461818
  0
LINE
  5
79
100
AcDbEntity
  8
0
  6
ByLayer
 62
  256
370
   -1
100
AcDbLine
 10
-49.99999999999991
 20
1400
 11
514.2966754593439
 21
1361.369373643416
  0
LINE
  5
7A
100
AcDbEntity
  8
0
  6
ByLayer
 62
  256
370
   -1
100
AcDbLine
 10
50
 20
1300
 11
507.949271640942
 21
1268.649705071131
  0
LINE
  5
7B
100
AcDbEntity
  8
0
  6
ByLayer
 62
  256
370
   -1
100
AcDbLine
 10
-50.00000000000023
 20
1200
 11
500.6689402132279
 21
1162.302301252729
  0
LINE
  5
7C
100
AcDbEntity
  8
0
  6
ByLayer
 62
  256
370
   -1
100
AcDbLine
 10
50.00000000000007
 20
1100
 11
494.3215363948261
 21
1069.582632680443
  0
LINE
  5
7D
100
AcDbEntity
  8
0
  6
ByLayer
 62
  256
370
   -1
100
AcDbLine
 10
-50.00000000000364
 20
1000
 11
487.041204967112
 21
963.235228862041
  0
LINE
  5
7E
100
AcDbEntity
  8
0
  6
ByLayer
 62
  256
370
   -1
100
AcDbLine
 10
50.00000000000011
 20
900.0000000000001
 11
480.6938011487102
 21
870.5155602897555
  0
LINE
  5
7F
100
AcDbEntity
  8
0
  6
ByLayer
 62
  256
370
   -1
100
AcDbLine
 10
473.4134697209961
 20
764.1681564713532
 11
-49.99999999999989
 21
799.9999999999999
  0
LINE
  5
80
100
AcDbEntity
  8
0
  6
ByLayer
 62
  256
370
   -1
100
AcDbLine
 10
50.00000000000182
 20
700.0000000000001
 11
467.0660659025942
 21
671.4484878990678
  0
LINE
  5
81
100
AcDbEntity
  8
0
  6
ByLayer
 62
  256
370
   -1
100
AcDbLine
 10
459.7857344748801
 20
565.1010840806654
 11
-50
 21
600
  0
LINE
  5
82
100
AcDbEntity
  8
0
  6
ByLayer
 62
  256
370
   -1
100
AcDbLine
 10
50.00000000000182
 20
499.9999999999999
 11
453.4383306564783
 21
472.3814155083797
  0
LINE
  5
83
100
AcDbEntity
  8
0
  6
ByLayer
 62
  256
370
   -1
100
AcDbLine
 10
-49.99999999999994
 20
400.0000000000001
 11
446.1579992287642
 21
366.0340116899778
  0
LINE
  5
84
100
AcDbEntity
  8
0
  6
ByLayer
 62
  256
370
   -1
100
AcDbLine
 10
49.99999999999994
 20
300.0000000000001
 11
439.8105954103624
 21
273.3143431176922
  0
LINE
  5
85
100
AcDbEntity
  8
0
  6
ByLayer
 62
  256
370
   -1
100
AcDbLine
 10
50.00000000000068
 20
100
 11
426.1828601642464
 21
74.24727072700449
  0
LINE
  5
86
100
AcDbEntity
  8
0
  6
ByLayer
 62
  256
370
   -1
100
AcDbLine
 10
-49.99999999999997
 20
200
 11
432.5302639826483
 21
166.9669392992902
  0
LINE
  5
87
100
AcDbEntity
  8
0
  6
ByLayer
 62
  256
370
   -1
100
AcDbLine
 10
50.00000000000182
 20
1100
 11
-375.5456863321389
 21
1078.217004844519
  0
LINE
  5
88
100
AcDbEntity
  8
0
  6
ByLayer
 62
  256
370
   -1
100
AcDbLine
 10
-50.00000000000045
 20
1200
 11
-380.9124872161784
 21
1183.061125191874
  0
LINE
  5
89
100
AcDbEntity
  8
0
  6
ByLayer
 62
  256
370
   -1
100
AcDbLine
 10
-50.00000000000003
 20
200
 11
-329.8578810592006
 21
185.6745278753039
  0
LINE
  5
8A
100
AcDbEntity
  8
0
  6
ByLayer
 62
  256
370
   -1
100
AcDbLine
 10
-313.0011712854299
 20
-143.6328092828793
 11
-13.39343814342428
 21
-128.2963741850902
  0
LINE
  5
8B
100
AcDbEntity
  8
0
  6
ByLayer
 62
  256
370
   -1
100
AcDbLine
 10
-13.39343814342428
 20
-128.2963741850902
 11
-14.92708165320316
 21
-98.33560087088966
  0
LINE
  5
8C
100
AcDbEntity
  8
0
  6
ByLayer
 62
  256
370
   -1
100
AcDbLine
 10
-14.92708165320316
 20
-98.33560087088966
 11
-314.5348147952087
 21
-113.6720359686788
  0
LINE
  5
8D
100
AcDbEntity
  8
0
  6
ByLayer
 62
  256
370
   -1
100
AcDbLine
 10
-43.35421145762483
 20
-129.8300176948692
 11
-50
 21
-2.838454644821371e-16
  0
LINE
  5
8E
100
AcDbEntity
  8
0
  6
ByLayer
 62
  256
370
   -1
100
AcDbLine
 10
-14.92708165320316
 20
-98.33560087088966
 11
-18.31042795654974
 21
-32.23962029153024
  0
LINE
  5
8F
100
AcDbEntity
  8
0
  6
ByLayer
 62
  256
370
   -1
100
AcDbLine
 10
-18.31042795654974
 20
-32.23962029153024
 11
416.8535840711241
 21
-62.03008173415403
  0
LINE
  5
90
100
AcDbEntity
  8
0
  6
ByLayer
 62
  256
370
   -1
100
AcDbLine
 10
-18.31042795654974
 20
-32.23962029153024
 11
-49.99999999999999
 21
1.628332494392832e-16
  0
LINE
  5
91
100
AcDbEntity
  8
0
  6
ByLayer
 62
  256
370
   -1
100
AcDbLine
 10
-417.9230147675009
 20
1906.087056011976
 11
21.88770117085093
 21
1928.600254952352
  0
LINE
  5
92
100
AcDbEntity
  8
0
  6
ByLayer
 62
  256
370
   -1
100
AcDbLine
 10
21.88770117085093
 20
1928.600254952352
 11
50.00000000000012
 21
1900
  0
LINE
  5
93
100
AcDbEntity
  8
0
  6
ByLayer
 62
  256
370
   -1
100
AcDbLine
 10
21.88770117085093
 20
1928.600254952352
 11
28.94881157400474
 21
2031.745388784024
  0
LINE
  5
94
100
AcDbEntity
  8
0
  6
ByLayer
 62
  256
370
   -1
100
AcDbLine
 10
28.94881157400474
 20
2031.745388784024
 11
557.7112375960592
 21
1995.54736636181
  0
LINE
  5
95
100
AcDbEntity
  8
0
  6
ByLayer
 62
  256
370
   -1
100
AcDbLine
 10
555.6622929306509
 20
1965.617417719053
 11
26.89986690859641
 21
2001.815440141267
  0
LINE
  5
96
100
AcDbEntity
  8
0
  6
ByLayer
 62
  256
370
   -1
100
AcDbLine
 10
58.87876021676952
 20
2029.696444118615
 11
50.00000000000012
 21
1900.000000000109
  0
LINE
  5
97
100
AcDbEntity
  8
0
  6
ByLayer
 62
  256
370
   -1
100
AcDbLine
 10
887.8050574730646
 20
-64.20026618279326
 11
802.3657203284929
 21
48.49454145401114
  0
LINE
  5
98
100
AcDbEntity
  8
0
  6
ByLayer
 62
  256
370
   -1
100
AcDbLine
 10
802.3657203284929
 20
48.49454145401114
 11
915.0605279652965
 21
133.9338785985829
  0
LINE
  5
99
100
AcDbEntity
  8
0
  6
ByLayer
 62
  256
370
   -1
100
AcDbLine
 10
915.0605279652965
 20
133.9338785985829
 11
829.6211908207248
 21
246.6286862353868
  0
LINE
  5
9A
100
AcDbEntity
  8
0
  6
ByLayer
 62
  256
370
   -1
100
AcDbLine
 10
829.6211908207248
 20
246.6286862353868
 11
942.3159984575284
 21
332.068023379958
  0
LINE
  5
9B
100
AcDbEntity
  8
0
  6
ByLayer
 62
  256
370
   -1
100
AcDbLine
 10
942.3159984575284
 20
332.068023379958
 11
856.8766613129567
 21
444.762831016762
  0
LINE
  5
9C
100
AcDbEntity
  8
0
  6
ByLayer
 62
  256
370
   -1
100
AcDbLine
 10
856.8766613129567
 20
444.762831016762
 11
969.5714689497604
 21
530.2021681613337
  0
LINE
  5
9D
100
AcDbEntity
  8
0
  6
ByLayer
 62
  256
370
   -1
100
AcDbLine
 10
969.5714689497604
 20
530.2021681613337
 11
884.1321318051886
 21
642.8969757981376
  0
LINE
  5
9E
100
AcDbEntity
  8
0
  6
ByLayer
 62
  256
370
   -1
100
AcDbLine
 10
884.1321318051886
 20
642.8969757981376
 11
996.8269394419923
 21
728.3363129427094
  0
LINE
  5
9F
100
AcDbEntity
  8
0
  6
ByLayer
 62
  256
370
   -1
100
AcDbLine
 10
996.8269394419923
 20
728.3363129427094
 11
911.3876022974205
 21
841.0311205795131
  0
LINE
  5
A0
100
AcDbEntity
  8
0
  6
ByLayer
 62
  256
370
   -1
100
AcDbLine
 10
911.3876022974205
 20
841.0311205795131
 11
1024.082409934224
 21
926.4704577240848
  0
LINE
  5
A1
100
AcDbEntity
  8
0
  6
ByLayer
 62
  256
370
   -1
100
AcDbLine
 10
1024.082409934224
 20
926.4704577240848
 11
938.6430727896524
 21
1039.165265360888
  0
LINE
  5
A2
100
AcDbEntity
  8
0
  6
ByLayer
 62
  256
370
   -1
100
AcDbLine
 10
938.6430727896524
 20
1039.165265360888
 11
1051.337880426456
 21
1124.60460250546
  0
LINE
  5
A3
100
AcDbEntity
  8
0
  6
ByLayer
 62
  256
370
   -1
100
AcDbLine
 10
1051.337880426456
 20
1124.60460250546
 11
965.8985432818843
 21
1237.299410142264
  0
LINE
  5
A4
100
AcDbEntity
  8
0
  6
ByLayer
 62
  256
370
   -1
100
AcDbLine
 10
965.8985432818843
 20
1237.299410142264
 11
1078.593350918688
 21
1322.738747286836
  0
LINE
  5
A5
100
AcDbEntity
  8
0
  6
ByLayer
 62
  256
370
   -1
100
AcDbLine
 10
1078.593350918688
 20
1322.738747286836
 11
993.154013774116
 21
1435.433554923639
  0
LINE
  5
A6
100
AcDbEntity
  8
0
  6
ByLayer
 62
  256
370
   -1
100
AcDbLine
 10
993.154013774116
 20
1435.433554923639
 11
1105.84882141092
 21
1520.872892068211
  0
LINE
  5
A7
100
AcDbEntity
  8
0
  6
ByLayer
 62
  256
370
   -1
100
AcDbLine
 10
1105.84882141092
 20
1520.872892068211
 11
1020.409484266348
 21
1633.567699705015
  0
LINE
  5
A8
100
AcDbEntity
  8
0
  6
ByLayer
 62
  256
370
   -1
100
AcDbLine
 10
1020.409484266348
 20
1633.567699705015
 11
1133.104291903152
 21
1719.007036849587
  0
LINE
  5
A9
100
AcDbEntity
  8
0
  6
ByLayer
 62
  256
370
   -1
100
AcDbLine
 10
1133.104291903152
 20
1719.007036849587
 11
1047.66495475858
 21
1831.70184448639
  0
LINE
  5
AA
100
AcDbEntity
  8
0
  6
ByLayer
 62
  256
370
   -1
100
AcDbLine
 10
1047.664954758587
 20
1831.70184448639
 11
1506.449803817588
 21
1744.49254295322
  0
LINE
  5
AB
100
AcDbEntity
  8
0
  6
ByLayer
 62
  256
370
   -1
100
AcDbLine
 10
1047.66495475858
 20
1831.70184448639
 11
548.8324773792899
 21
1865.850922243194
  0
LINE
  5
AC
100
AcDbEntity
  8
0
  6
ByLayer
 62
  256
370
   -1
100
AcDbLine
 10
887.8050574730646
 20
-64.20026618279326
 11
1153.055398470778
 21
-114.6210615017567
  0
LINE
  5
AD
100
AcDbEntity
  8
0
  6
ByLayer
 62
  256
370
   -1
100
AcDbLine
 10
887.8050574730646
 20
-64.20026618279326
 11
418.9025287365322
 21
-32.10013309139661
  0
LINE
  5
AE
100
AcDbEntity
  8
0
  6
ByLayer
 62
  256
370
   -1
100
AcDbLine
 10
1133.104291903152
 20
1719.007036849587
 11
1488.754513775926
 21
1651.40234697533
  0
LINE
  5
AF
100
AcDbEntity
  8
0
  6
ByLayer
 62
  256
370
   -1
100
AcDbLine
 10
1020.409484266348
 20
1633.567699705015
 11
1469.149902117015
 21
1548.2677197891
  0
LINE
  5
B0
100
AcDbEntity
  8
0
  6
ByLayer
 62
  256
370
   -1
100
AcDbLine
 10
1105.84882141092
 20
1520.872892068211
 11
1451.454612075354
 21
1455.177523811209
  0
LINE
  5
B1
100
AcDbEntity
  8
0
  6
ByLayer
 62
  256
370
   -1
100
AcDbLine
 10
993.1540137741162
 20
1435.43355492364
 11
1431.850000416441
 21
1352.042896624979
  0
LINE
  5
B2
100
AcDbEntity
  8
0
  6
ByLayer
 62
  256
370
   -1
100
AcDbLine
 10
1078.593350918688
 20
1322.738747286835
 11
1414.154710374782
 21
1258.952700647089
  0
LINE
  5
B3
100
AcDbEntity
  8
0
  6
ByLayer
 62
  256
370
   -1
100
AcDbLine
 10
965.8985432818843
 20
1237.299410142264
 11
1394.550098715869
 21
1155.818073460858
  0
LINE
  5
B4
100
AcDbEntity
  8
0
  6
ByLayer
 62
  256
370
   -1
100
AcDbLine
 10
1024.082409934224
 20
926.4704577240848
 11
1339.554906973638
 21
866.5030543188474
  0
LINE
  5
B5
100
AcDbEntity
  8
0
  6
ByLayer
 62
  256
370
   -1
100
AcDbLine
 10
911.3876022974204
 20
841.0311205795132
 11
1319.950295314725
 21
763.3684271326166
  0
LINE
  5
B6
100
AcDbEntity
  8
0
  6
ByLayer
 62
  256
370
   -1
100
AcDbLine
 10
996.8269394419923
 20
728.3363129427095
 11
1302.255005273066
 21
670.2782311547261
  0
LINE
  5
B7
100
AcDbEntity
  8
0
  6
ByLayer
 62
  256
370
   -1
100
AcDbLine
 10
884.1321318051886
 20
642.8969757981375
 11
1282.650393614154
 21
567.143603968496
  0
LINE
  5
B8
100
AcDbEntity
  8
0
  6
ByLayer
 62
  256
370
   -1
100
AcDbLine
 10
969.5714689497603
 20
530.2021681613338
 11
1264.955103572494
 21
474.0534079906055
  0
LINE
  5
B9
100
AcDbEntity
  8
0
  6
ByLayer
 62
  256
370
   -1
100
AcDbLine
 10
856.8766613129565
 20
444.7628310167617
 11
1245.350491913581
 21
370.9187808043751
  0
LINE
  5
BA
100
AcDbEntity
  8
0
  6
ByLayer
 62
  256
370
   -1
100
AcDbLine
 10
942.3159984575284
 20
332.068023379958
 11
1227.655201871922
 21
277.8285848264848
  0
LINE
  5
BB
100
AcDbEntity
  8
0
  6
ByLayer
 62
  256
370
   -1
100
AcDbLine
 10
829.6211908207247
 20
246.6286862353867
 11
1208.050590213009
 21
174.6939576402544
  0
LINE
  5
BC
100
AcDbEntity
  8
0
  6
ByLayer
 62
  256
370
   -1
100
AcDbLine
 10
802.3657203284929
 20
48.49454145401114
 11
1170.750688512436
 21
-21.53086552386651
  0
LINE
  5
BD
100
AcDbEntity
  8
0
  6
ByLayer
 62
  256
370
   -1
100
AcDbLine
 10
1133.104291903152
 20
1719.007036849587
 11
541.5521459515758
 21
1759.503518424792
  0
LINE
  5
BE
100
AcDbEntity
  8
0
  6
ByLayer
 62
  256
370
   -1
100
AcDbLine
 10
1020.409484266348
 20
1633.567699705015
 11
535.2047421331739
 21
1666.783849852506
  0
LINE
  5
BF
100
AcDbEntity
  8
0
  6
ByLayer
 62
  256
370
   -1
100
AcDbLine
 10
1105.84882141092
 20
1520.872892068211
 11
527.92441070546
 21
1560.436446034104
  0
LINE
  5
C0
100
AcDbEntity
  8
0
  6
ByLayer
 62
  256
370
   -1
100
AcDbLine
 10
993.154013774116
 20
1435.433554923639
 11
521.5770068870581
 21
1467.716777461818
  0
LINE
  5
C1
100
AcDbEntity
  8
0
  6
ByLayer
 62
  256
370
   -1
100
AcDbLine
 10
1078.593350918688
 20
1322.738747286835
 11
514.2966754593439
 21
1361.369373643416
  0
LINE
  5
C2
100
AcDbEntity
  8
0
  6
ByLayer
 62
  256
370
   -1
100
AcDbLine
 10
965.8985432818843
 20
1237.299410142264
 11
507.949271640942
 21
1268.649705071131
  0
LINE
  5
C3
100
AcDbEntity
  8
0
  6
ByLayer
 62
  256
370
   -1
100
AcDbLine
 10
1051.337880426456
 20
1124.60460250546
 11
500.6689402132279
 21
1162.302301252729
  0
LINE
  5
C4
100
AcDbEntity
  8
0
  6
ByLayer
 62
  256
370
   -1
100
AcDbLine
 10
938.6430727896523
 20
1039.165265360888
 11
494.321536394826
 21
1069.582632680443
  0
LINE
  5
C5
100
AcDbEntity
  8
0
  6
ByLayer
 62
  256
370
   -1
100
AcDbLine
 10
1024.082409934228
 20
926.4704577240842
 11
487.041204967112
 21
963.2352288620408
  0
LINE
  5
C6
100
AcDbEntity
  8
0
  6
ByLayer
 62
  256
370
   -1
100
AcDbLine
 10
911.3876022974204
 20
841.0311205795132
 11
480.6938011487101
 21
870.5155602897555
  0
LINE
  5
C7
100
AcDbEntity
  8
0
  6
ByLayer
 62
  256
370
   -1
100
AcDbLine
 10
473.413469720996
 20
764.168156471353
 11
996.8269394419922
 21
728.3363129427095
  0
LINE
  5
C8
100
AcDbEntity
  8
0
  6
ByLayer
 62
  256
370
   -1
100
AcDbLine
 10
884.1321318051868
 20
642.8969757981375
 11
467.0660659025942
 21
671.448487899068
  0
LINE
  5
C9
100
AcDbEntity
  8
0
  6
ByLayer
 62
  256
370
   -1
100
AcDbLine
 10
459.78573447488
 20
565.1010840806656
 11
969.5714689497604
 21
530.2021681613337
  0
LINE
  5
CA
100
AcDbEntity
  8
0
  6
ByLayer
 62
  256
370
   -1
100
AcDbLine
 10
856.8766613129549
 20
444.7628310167621
 11
453.4383306564782
 21
472.38141550838
  0
LINE
  5
CB
100
AcDbEntity
  8
0
  6
ByLayer
 62
  256
370
   -1
100
AcDbLine
 10
942.3159984575284
 20
332.068023379958
 11
446.1579992287641
 21
366.0340116899775
  0
LINE
  5
CC
100
AcDbEntity
  8
0
  6
ByLayer
 62
  256
370
   -1
100
AcDbLine
 10
829.6211908207249
 20
246.6286862353867
 11
439.8105954103623
 21
273.3143431176923
  0
LINE
  5
CD
100
AcDbEntity
  8
0
  6
ByLayer
 62
  256
370
   -1
100
AcDbLine
 10
802.3657203284922
 20
48.49454145401111
 11
426.1828601642462
 21
74.24727072700438
  0
LINE
  5
CE
100
AcDbEntity
  8
0
  6
ByLayer
 62
  256
370
   -1
100
AcDbLine
 10
915.0605279652965
 20
133.9338785985829
 11
432.5302639826481
 21
166.9669392992904
  0
LINE
  5
CF
100
AcDbEntity
  8
0
  6
ByLayer
 62
  256
370
   -1
100
AcDbLine
 10
938.6430727896505
 20
1039.165265360889
 11
1357.250197015298
 21
959.5932502967371
  0
LINE
  5
D0
100
AcDbEntity
  8
0
  6
ByLayer
 62
  256
370
   -1
100
AcDbLine
 10
1051.337880426456
 20
1124.60460250546
 11
1376.85480867421
 21
1062.727877482967
  0
LINE
  5
D1
100
AcDbEntity
  8
0
  6
ByLayer
 62
  256
370
   -1
100
AcDbLine
 10
915.0605279652965
 20
133.9338785985829
 11
1190.35530017135
 21
81.60376166236381
  0
LINE
  5
D2
100
AcDbEntity
  8
0
  6
ByLayer
 62
  256
370
   -1
100
AcDbLine
 10
1128.778719243129
 20
-242.3341886488039
 11
834.0561181345586
 21
-186.3110827388433
  0
LINE
  5
D3
100
AcDbEntity
  8
0
  6
ByLayer
 62
  256
370
   -1
100
AcDbLine
 10
834.0561181345586
 20
-186.3110827388433
 11
839.6584287255545
 21
-156.8388226279868
  0
LINE
  5
D4
100
AcDbEntity
  8
0
  6
ByLayer
 62
  256
370
   -1
100
AcDbLine
 10
839.6584287255545
 20
-156.8388226279868
 11
1134.381029834125
 21
-212.8619285379464
  0
LINE
  5
D5
100
AcDbEntity
  8
0
  6
ByLayer
 62
  256
370
   -1
100
AcDbLine
 10
863.5283782454155
 20
-191.9133933298404
 11
887.8050574730646
 21
-64.20026618279326
  0
LINE
  5
D6
100
AcDbEntity
  8
0
  6
ByLayer
 62
  256
370
   -1
100
AcDbLine
 10
839.6584287255545
 20
-156.8388226279868
 11
852.0175960987978
 21
-91.82054317677687
  0
LINE
  5
D7
100
AcDbEntity
  8
0
  6
ByLayer
 62
  256
370
   -1
100
AcDbLine
 10
852.0175960987978
 20
-91.82054317677687
 11
416.8535840711239
 21
-62.03008173415353
  0
LINE
  5
D8
100
AcDbEntity
  8
0
  6
ByLayer
 62
  256
370
   -1
100
AcDbLine
 10
852.0175960987978
 20
-91.82054317677687
 11
887.8050574730646
 21
-64.20026618279326
  0
LINE
  5
D9
100
AcDbEntity
  8
0
  6
ByLayer
 62
  256
370
   -1
100
AcDbLine
 10
1512.052114408584
 20
1773.964803064077
 11
1079.41255321496
 21
1856.204210107924
  0
LINE
  5
DA
100
AcDbEntity
  8
0
  6
ByLayer
 62
  256
370
   -1
100
AcDbLine
 10
1079.41255321496
 20
1856.204210107924
 11
1047.66495475858
 21
1831.70184448639
  0
LINE
  5
DB
100
AcDbEntity
  8
0
  6
ByLayer
 62
  256
370
   -1
100
AcDbLine
 10
1079.41255321496
 20
1856.204210107924
 11
1086.473663618114
 21
1959.349343939597
  0
LINE
  5
DC
100
AcDbEntity
  8
0
  6
ByLayer
 62
  256
370
   -1
100
AcDbLine
 10
1086.473663618114
 20
1959.349343939597
 11
557.7112375960592
 21
1995.54736636181
  0
LINE
  5
DD
100
AcDbEntity
  8
0
  6
ByLayer
 62
  256
370
   -1
100
AcDbLine
 10
555.6622929306509
 20
1965.617417719053
 11
1084.424718952705
 21
1929.41939529684
  0
LINE
  5
DE
100
AcDbEntity
  8
0
  6
ByLayer
 62
  256
370
   -1
100
AcDbLine
 10
1056.543714975349
 20
1961.398288605006
 11
1047.664954758595
 21
1831.701844486498
  0
LINE
  5
DF
100
AcDbEntity
  8
0
  6
ByLayer
 62
  256
370
   -1
100
AcDbLine
 10
-589.2939196556104
 20
-27.60558317602045
 11
-698.9821603503199
 21
61.66081505589864
  0
LINE
  5
E0
100
AcDbEntity
  8
0
  6
ByLayer
 62
  256
370
   -1
100
AcDbLine
 10
-698.9821603503199
 20
61.66081505589864
 11
-609.7157621184014
 21
171.3490557506079
  0
LINE
  5
E1
100
AcDbEntity
  8
0
  6
ByLayer
 62
  256
370
   -1
100
AcDbLine
 10
-609.7157621184014
 20
171.3490557506079
 11
-719.4040028131109
 21
260.6154539825261
  0
LINE
  5
E2
100
AcDbEntity
  8
0
  6
ByLayer
 62
  256
370
   -1
100
AcDbLine
 10
-719.4040028131109
 20
260.6154539825261
 11
-630.1376045811924
 21
370.3036946772363
  0
LINE
  5
E3
100
AcDbEntity
  8
0
  6
ByLayer
 62
  256
370
   -1
100
AcDbLine
 10
-630.1376045811924
 20
370.3036946772363
 11
-739.8258452759019
 21
459.5700929091549
  0
LINE
  5
E4
100
AcDbEntity
  8
0
  6
ByLayer
 62
  256
370
   -1
100
AcDbLine
 10
-739.8258452759019
 20
459.5700929091549
 11
-650.5594470439834
 21
569.2583336038645
  0
LINE
  5
E5
100
AcDbEntity
  8
0
  6
ByLayer
 62
  256
370
   -1
100
AcDbLine
 10
-650.5594470439834
 20
569.2583336038645
 11
-760.247687738693
 21
658.5247318357829
  0
LINE
  5
E6
100
AcDbEntity
  8
0
  6
ByLayer
 62
  256
370
   -1
100
AcDbLine
 10
-760.247687738693
 20
658.5247318357829
 11
-670.9812895067745
 21
768.2129725304922
  0
LINE
  5
E7
100
AcDbEntity
  8
0
  6
ByLayer
 62
  256
370
   -1
100
AcDbLine
 10
-670.9812895067745
 20
768.2129725304922
 11
-780.669530201484
 21
857.479370762411
  0
LINE
  5
E8
100
AcDbEntity
  8
0
  6
ByLayer
 62
  256
370
   -1
100
AcDbLine
 10
-780.669530201484
 20
857.479370762411
 11
-691.4031319695655
 21
967.1676114571205
  0
LINE
  5
E9
100
AcDbEntity
  8
0
  6
ByLayer
 62
  256
370
   -1
100
AcDbLine
 10
-691.4031319695655
 20
967.1676114571205
 11
-801.091372664275
 21
1056.434009689039
  0
LINE
  5
EA
100
AcDbEntity
  8
0
  6
ByLayer
 62
  256
370
   -1
100
AcDbLine
 10
-801.091372664275
 20
1056.434009689039
 11
-711.8249744323565
 21
1166.122250383748
  0
LINE
  5
EB
100
AcDbEntity
  8
0
  6
ByLayer
 62
  256
370
   -1
100
AcDbLine
 10
-711.8249744323565
 20
1166.122250383748
 11
-821.513215127066
 21
1255.388648615667
  0
LINE
  5
EC
100
AcDbEntity
  8
0
  6
ByLayer
 62
  256
370
   -1
100
AcDbLine
 10
-821.513215127066
 20
1255.388648615667
 11
-732.2468168951475
 21
1365.076889310377
  0
LINE
  5
ED
100
AcDbEntity
  8
0
  6
ByLayer
 62
  256
370
   -1
100
AcDbLine
 10
-732.2468168951475
 20
1365.076889310377
 11
-841.935057589857
 21
1454.343287542295
  0
LINE
  5
EE
100
AcDbEntity
  8
0
  6
ByLayer
 62
  256
370
   -1
100
AcDbLine
 10
-841.935057589857
 20
1454.343287542295
 11
-752.6686593579386
 21
1564.031528237005
  0
LINE
  5
EF
100
AcDbEntity
  8
0
  6
ByLayer
 62
  256
370
   -1
100
AcDbLine
 10
-752.6686593579386
 20
1564.031528237005
 11
-862.3569000526481
 21
1653.297926468923
  0
LINE
  5
F0
100
AcDbEntity
  8
0
  6
ByLayer
 62
  256
370
   -1
100
AcDbLine
 10
-862.3569000526481
 20
1653.297926468923
 11
-773.0905018207296
 21
1762.986167163633
  0
LINE
  5
F1
100
AcDbEntity
  8
0
  6
ByLayer
 62
  256
370
   -1
100
AcDbLine
 10
-773.0905018207296
 20
1762.986167163633
 11
-882.7787425154391
 21
1852.252565395551
  0
LINE
  5
F2
100
AcDbEntity
  8
0
  6
ByLayer
 62
  256
370
   -1
100
AcDbLine
 10
-882.778742515432
 20
1852.252565395553
 11
-416.389371257717
 21
1876.126282697775
  0
LINE
  5
F3
100
AcDbEntity
  8
0
  6
ByLayer
 62
  256
370
   -1
100
AcDbLine
 10
-882.7787425154393
 20
1852.252565395551
 11
-1375.516984193804
 21
1767.34658687982
  0
LINE
  5
F4
100
AcDbEntity
  8
0
  6
ByLayer
 62
  256
370
   -1
100
AcDbLine
 10
-589.2939196556104
 20
-27.60558317602045
 11
-319.6469598278051
 21
-13.80279158801073
  0
LINE
  5
F5
100
AcDbEntity
  8
0
  6
ByLayer
 62
  256
370
   -1
100
AcDbLine
 10
-589.2939196556104
 20
-27.60558317602045
 11
-1052.467866833273
 21
-107.4172029808071
  0
LINE
  5
F6
100
AcDbEntity
  8
0
  6
ByLayer
 62
  256
370
   -1
100
AcDbLine
 10
-773.0905018207299
 20
1762.986167163633
 11
-411.5452509103647
 21
1781.493083581816
  0
LINE
  5
F7
100
AcDbEntity
  8
0
  6
ByLayer
 62
  256
370
   -1
100
AcDbLine
 10
-862.3569000526479
 20
1653.297926468924
 11
-406.1784500263217
 21
1676.648963234462
  0
LINE
  5
F8
100
AcDbEntity
  8
0
  6
ByLayer
 62
  256
370
   -1
100
AcDbLine
 10
-752.6686593579386
 20
1564.031528237004
 11
-401.3343296789692
 21
1582.015764118502
  0
LINE
  5
F9
100
AcDbEntity
  8
0
  6
ByLayer
 62
  256
370
   -1
100
AcDbLine
 10
-841.9350575898573
 20
1454.343287542295
 11
-395.9675287949285
 21
1477.171643771147
  0
LINE
  5
FA
100
AcDbEntity
  8
0
  6
ByLayer
 62
  256
370
   -1
100
AcDbLine
 10
-732.2468168951476
 20
1365.076889310377
 11
-391.1234084475738
 21
1382.538444655188
  0
LINE
  5
FB
100
AcDbEntity
  8
0
  6
ByLayer
 62
  256
370
   -1
100
AcDbLine
 10
-821.513215127066
 20
1255.388648615667
 11
-385.756607563533
 21
1277.694324307833
  0
LINE
  5
FC
100
AcDbEntity
  8
0
  6
ByLayer
 62
  256
370
   -1
100
AcDbLine
 10
-691.4031319695655
 20
967.1676114571205
 11
-370.7015659847827
 21
983.5838057285597
  0
LINE
  5
FD
100
AcDbEntity
  8
0
  6
ByLayer
 62
  256
370
   -1
100
AcDbLine
 10
-780.6695302014841
 20
857.4793707624111
 11
-365.3347651007419
 21
878.7396853812048
  0
LINE
  5
FE
100
AcDbEntity
  8
0
  6
ByLayer
 62
  256
370
   -1
100
AcDbLine
 10
-670.9812895067745
 20
768.2129725304923
 11
-360.4906447533872
 21
784.106486265246
  0
LINE
  5
FF
100
AcDbEntity
  8
0
  6
ByLayer
 62
  256
370
   -1
100
AcDbLine
 10
-760.247687738693
 20
658.524731835783
 11
-355.1238438693455
 21
679.2623659178911
  0
LINE
  5
100
100
AcDbEntity
  8
0
  6
ByLayer
 62
  256
370
   -1
100
AcDbLine
 10
-650.5594470439835
 20
569.2583336038643
 11
-350.2797235219917
 21
584.6291668019318
  0
LINE
  5
101
100
AcDbEntity
  8
0
  6
ByLayer
 62
  256
370
   -1
100
AcDbLine
 10
-739.8258452759021
 20
459.5700929091547
 11
-344.9129226379503
 21
479.7850464545771
  0
LINE
  5
102
100
AcDbEntity
  8
0
  6
ByLayer
 62
  256
370
   -1
100
AcDbLine
 10
-630.1376045811924
 20
370.3036946772363
 11
-340.0688022905962
 21
385.1518473386179
  0
LINE
  5
103
100
AcDbEntity
  8
0
  6
ByLayer
 62
  256
370
   -1
100
AcDbLine
 10
-719.404002813111
 20
260.615453982526
 11
-334.7020014065551
 21
280.3077269912626
  0
LINE
  5
104
100
AcDbEntity
  8
0
  6
ByLayer
 62
  256
370
   -1
100
AcDbLine
 10
-698.9821603503199
 20
61.66081505589864
 11
-324.49108017516
 21
80.83040752794875
  0
LINE
  5
105
100
AcDbEntity
  8
0
  6
ByLayer
 62
  256
370
   -1
100
AcDbLine
 10
-773.0905018207296
 20
1762.986167163633
 11
-1357.415656005937
 21
1662.298429149916
  0
LINE
  5
106
100
AcDbEntity
  8
0
  6
ByLayer
 62
  256
370
   -1
100
AcDbLine
 10
-862.3569000526479
 20
1653.297926468924
 11
-1341.633896507952
 21
1570.711516643073
  0
LINE
  5
107
100
AcDbEntity
  8
0
  6
ByLayer
 62
  256
370
   -1
100
AcDbLine
 10
-752.6686593579386
 20
1564.031528237005
 11
-1323.532568320085
 21
1465.663358913169
  0
LINE
  5
108
100
AcDbEntity
  8
0
  6
ByLayer
 62
  256
370
   -1
100
AcDbLine
 10
-841.935057589857
 20
1454.343287542295
 11
-1307.7508088221
 21
1374.076446406325
  0
LINE
  5
109
100
AcDbEntity
  8
0
  6
ByLayer
 62
  256
370
   -1
100
AcDbLine
 10
-732.2468168951476
 20
1365.076889310377
 11
-1289.649480634234
 21
1269.028288676421
  0
LINE
  5
10A
100
AcDbEntity
  8
0
  6
ByLayer
 62
  256
370
   -1
100
AcDbLine
 10
-821.513215127066
 20
1255.388648615667
 11
-1273.867721136249
 21
1177.441376169579
  0
LINE
  5
10B
100
AcDbEntity
  8
0
  6
ByLayer
 62
  256
370
   -1
100
AcDbLine
 10
-711.8249744323563
 20
1166.122250383748
 11
-1255.766392948382
 21
1072.393218439675
  0
LINE
  5
10C
100
AcDbEntity
  8
0
  6
ByLayer
 62
  256
370
   -1
100
AcDbLine
 10
-801.0913726642751
 20
1056.434009689039
 11
-1239.984633450397
 21
980.8063059328319
  0
LINE
  5
10D
100
AcDbEntity
  8
0
  6
ByLayer
 62
  256
370
   -1
100
AcDbLine
 10
-691.4031319695619
 20
967.1676114571211
 11
-1221.883305262531
 21
875.7581482029276
  0
LINE
  5
10E
100
AcDbEntity
  8
0
  6
ByLayer
 62
  256
370
   -1
100
AcDbLine
 10
-780.6695302014841
 20
857.4793707624111
 11
-1206.101545764546
 21
784.1712356960848
  0
LINE
  5
10F
100
AcDbEntity
  8
0
  6
ByLayer
 62
  256
370
   -1
100
AcDbLine
 10
-1188.000217576679
 20
679.1230779661806
 11
-670.9812895067746
 21
768.2129725304923
  0
LINE
  5
110
100
AcDbEntity
  8
0
  6
ByLayer
 62
  256
370
   -1
100
AcDbLine
 10
-760.2476877386948
 20
658.5247318357827
 11
-1172.218458078694
 21
587.5361654593379
  0
LINE
  5
111
100
AcDbEntity
  8
0
  6
ByLayer
 62
  256
370
   -1
100
AcDbLine
 10
-1154.117129890828
 20
482.4880077294334
 11
-650.5594470439834
 21
569.2583336038645
  0
LINE
  5
112
100
AcDbEntity
  8
0
  6
ByLayer
 62
  256
370
   -1
100
AcDbLine
 10
-739.8258452759037
 20
459.5700929091546
 11
-1138.335370392842
 21
390.9010952225902
  0
LINE
  5
113
100
AcDbEntity
  8
0
  6
ByLayer
 62
  256
370
   -1
100
AcDbLine
 10
-630.1376045811924
 20
370.3036946772363
 11
-1120.234042204976
 21
285.8529374926867
  0
LINE
  5
114
100
AcDbEntity
  8
0
  6
ByLayer
 62
  256
370
   -1
100
AcDbLine
 10
-719.4040028131108
 20
260.615453982526
 11
-1104.452282706991
 21
194.2660249858432
  0
LINE
  5
115
100
AcDbEntity
  8
0
  6
ByLayer
 62
  256
370
   -1
100
AcDbLine
 10
-698.9821603503206
 20
61.66081505589861
 11
-1070.569195021139
 21
-2.369045250903639
  0
LINE
  5
116
100
AcDbEntity
  8
0
  6
ByLayer
 62
  256
370
   -1
100
AcDbLine
 10
-609.7157621184014
 20
171.349055750608
 11
-1086.350954519124
 21
89.21786725593927
  0
LINE
  5
117
100
AcDbEntity
  8
0
  6
ByLayer
 62
  256
370
   -1
100
AcDbLine
 10
-801.0913726642768
 20
1056.434009689039
 11
-375.5456863321361
 21
1078.217004844519
  0
LINE
  5
118
100
AcDbEntity
  8
0
  6
ByLayer
 62
  256
370
   -1
100
AcDbLine
 10
-711.824974432356
 20
1166.122250383748
 11
-380.912487216178
 21
1183.061125191874
  0
LINE
  5
119
100
AcDbEntity
  8
0
  6
ByLayer
 62
  256
370
   -1
100
AcDbLine
 10
-609.7157621184014
 20
171.349055750608
 11
-329.8578810592007
 21
185.6745278753036
  0
LINE
  5
11A
100
AcDbEntity
  8
0
  6
ByLayer
 62
  256
370
   -1
100
AcDbLine
 10
-313.0011712854301
 20
-143.6328092828804
 11
-612.6089044274357
 21
-158.9692443806677
  0
LINE
  5
11B
100
AcDbEntity
  8
0
  6
ByLayer
 62
  256
370
   -1
100
AcDbLine
 10
-612.6089044274357
 20
-158.9692443806677
 11
-614.1425479372148
 21
-129.0084710664669
  0
LINE
  5
11C
100
AcDbEntity
  8
0
  6
ByLayer
 62
  256
370
   -1
100
AcDbLine
 10
-614.1425479372148
 20
-129.0084710664669
 11
-314.5348147952091
 21
-113.6720359686792
  0
LINE
  5
11D
100
AcDbEntity
  8
0
  6
ByLayer
 62
  256
370
   -1
100
AcDbLine
 10
-582.6481311132352
 20
-157.4356008708892
 11
-589.2939196556104
 21
-27.60558317602045
  0
LINE
  5
11E
100
AcDbEntity
  8
0
  6
ByLayer
 62
  256
370
   -1
100
AcDbLine
 10
-614.1425479372148
 20
-129.0084710664669
 11
-617.5258942405612
 21
-62.91249048710817
  0
LINE
  5
11F
100
AcDbEntity
  8
0
  6
ByLayer
 62
  256
370
   -1
100
AcDbLine
 10
-617.5258942405612
 20
-62.91249048710817
 11
-1047.373508122329
 21
-136.9814974815081
  0
LINE
  5
120
100
AcDbEntity
  8
0
  6
ByLayer
 62
  256
370
   -1
100
AcDbLine
 10
-617.5258942405612
 20
-62.91249048710817
 11
-589.2939196556104
 21
-27.60558317602045
  0
LINE
  5
121
100
AcDbEntity
  8
0
  6
ByLayer
 62
  256
370
   -1
100
AcDbLine
 10
-417.9230147674959
 20
1906.087056011976
 11
-857.733730705848
 21
1883.573857071603
  0
LINE
  5
122
100
AcDbEntity
  8
0
  6
ByLayer
 62
  256
370
   -1
100
AcDbLine
 10
-857.733730705848
 20
1883.573857071603
 11
-882.7787425154393
 21
1852.252565395551
  0
LINE
  5
123
100
AcDbEntity
  8
0
  6
ByLayer
 62
  256
370
   -1
100
AcDbLine
 10
-857.733730705848
 20
1883.573857071603
 11
-875.2900024288201
 21
1985.458866942871
  0
LINE
  5
124
100
AcDbEntity
  8
0
  6
ByLayer
 62
  256
370
   -1
100
AcDbLine
 10
-875.2900024288201
 20
1985.458866942871
 11
-1397.592538607893
 21
1895.458529716195
  0
LINE
  5
125
100
AcDbEntity
  8
0
  6
ByLayer
 62
  256
370
   -1
100
AcDbLine
 10
-1392.49817989695
 20
1865.894235215493
 11
-870.1956437178764
 21
1955.894572442169
  0
LINE
  5
126
100
AcDbEntity
  8
0
  6
ByLayer
 62
  256
370
   -1
100
AcDbLine
 10
-904.8542969295293
 20
1980.364508231926
 11
-882.7787425154504
 21
1852.25256539566
  0
LINE
  5
127
100
AcDbEntity
  8
0
  6
ByLayer
 62
  256
370
   -1
100
AcDbLine
 10
-1515.641814010935
 20
-187.2288227855934
 11
-1442.156229691959
 21
-66.39890555770398
  0
LINE
  5
128
100
AcDbEntity
  8
0
  6
ByLayer
 62
  256
370
   -1
100
AcDbLine
 10
-1442.156229691959
 20
-66.39890555770398
 11
-1562.986146919848
 21
7.086678761273106
  0
LINE
  5
129
100
AcDbEntity
  8
0
  6
ByLayer
 62
  256
370
   -1
100
AcDbLine
 10
-1562.986146919848
 20
7.086678761273106
 11
-1489.500562600871
 21
127.9165959891629
  0
LINE
  5
12A
100
AcDbEntity
  8
0
  6
ByLayer
 62
  256
370
   -1
100
AcDbLine
 10
-1489.500562600871
 20
127.9165959891629
 11
-1610.33047982876
 21
201.4021803081391
  0
LINE
  5
12B
100
AcDbEntity
  8
0
  6
ByLayer
 62
  256
370
   -1
100
AcDbLine
 10
-1610.33047982876
 20
201.4021803081391
 11
-1536.844895509783
 21
322.2320975360285
  0
LINE
  5
12C
100
AcDbEntity
  8
0
  6
ByLayer
 62
  256
370
   -1
100
AcDbLine
 10
-1536.844895509783
 20
322.2320975360285
 11
-1657.674812737672
 21
395.7176818550051
  0
LINE
  5
12D
100
AcDbEntity
  8
0
  6
ByLayer
 62
  256
370
   -1
100
AcDbLine
 10
-1657.674812737672
 20
395.7176818550051
 11
-1584.189228418695
 21
516.5475990828945
  0
LINE
  5
12E
100
AcDbEntity
  8
0
  6
ByLayer
 62
  256
370
   -1
100
AcDbLine
 10
-1584.189228418695
 20
516.5475990828945
 11
-1705.019145646584
 21
590.0331834018716
  0
LINE
  5
12F
100
AcDbEntity
  8
0
  6
ByLayer
 62
  256
370
   -1
100
AcDbLine
 10
-1705.019145646584
 20
590.0331834018716
 11
-1631.533561327607
 21
710.8631006297605
  0
LINE
  5
130
100
AcDbEntity
  8
0
  6
ByLayer
 62
  256
370
   -1
100
AcDbLine
 10
-1631.533561327607
 20
710.8631006297605
 11
-1752.363478555496
 21
784.3486849487374
  0
LINE
  5
131
100
AcDbEntity
  8
0
  6
ByLayer
 62
  256
370
   -1
100
AcDbLine
 10
-1752.363478555496
 20
784.3486849487374
 11
-1678.87789423652
 21
905.1786021766266
  0
LINE
  5
132
100
AcDbEntity
  8
0
  6
ByLayer
 62
  256
370
   -1
100
AcDbLine
 10
-1678.87789423652
 20
905.1786021766266
 11
-1799.707811464409
 21
978.6641864956036
  0
LINE
  5
133
100
AcDbEntity
  8
0
  6
ByLayer
 62
  256
370
   -1
100
AcDbLine
 10
-1799.707811464409
 20
978.6641864956036
 11
-1726.222227145432
 21
1099.494103723493
  0
LINE
  5
134
100
AcDbEntity
  8
0
  6
ByLayer
 62
  256
370
   -1
100
AcDbLine
 10
-1726.222227145432
 20
1099.494103723493
 11
-1847.052144373321
 21
1172.97968804247
  0
LINE
  5
135
100
AcDbEntity
  8
0
  6
ByLayer
 62
  256
370
   -1
100
AcDbLine
 10
-1847.052144373321
 20
1172.97968804247
 11
-1773.566560054344
 21
1293.809605270359
  0
LINE
  5
136
100
AcDbEntity
  8
0
  6
ByLayer
 62
  256
370
   -1
100
AcDbLine
 10
-1773.566560054344
 20
1293.809605270359
 11
-1894.396477282233
 21
1367.295189589335
  0
LINE
  5
137
100
AcDbEntity
  8
0
  6
ByLayer
 62
  256
370
   -1
100
AcDbLine
 10
-1894.396477282233
 20
1367.295189589335
 11
-1820.910892963256
 21
1488.125106817225
  0
LINE
  5
138
100
AcDbEntity
  8
0
  6
ByLayer
 62
  256
370
   -1
100
AcDbLine
 10
-1820.910892963256
 20
1488.125106817225
 11
-1941.740810191145
 21
1561.610691136202
  0
LINE
  5
139
100
AcDbEntity
  8
0
  6
ByLayer
 62
  256
370
   -1
100
AcDbLine
 10
-1941.740810191145
 20
1561.610691136202
 11
-1868.255225872168
 21
1682.44060836409
  0
LINE
  5
13A
100
AcDbEntity
  8
0
  6
ByLayer
 62
  256
370
   -1
100
AcDbLine
 10
-1868.255225872176
 20
1682.440608364089
 11
-2315.737222733878
 21
1548.840973317222
  0
LINE
  5
13B
100
AcDbEntity
  8
0
  6
ByLayer
 62
  256
370
   -1
100
AcDbLine
 10
-1868.255225872168
 20
1682.440608364091
 11
-1375.516984193804
 21
1767.34658687982
  0
LINE
  5
13C
100
AcDbEntity
  8
0
  6
ByLayer
 62
  256
370
   -1
100
AcDbLine
 10
-1515.641814010935
 20
-187.2288227855934
 11
-1774.357315408498
 21
-264.4705818062666
  0
LINE
  5
13D
100
AcDbEntity
  8
0
  6
ByLayer
 62
  256
370
   -1
100
AcDbLine
 10
-1515.641814010935
 20
-187.2288227855934
 11
-1052.467866833273
 21
-107.4172029808071
  0
LINE
  5
13E
100
AcDbEntity
  8
0
  6
ByLayer
 62
  256
370
   -1
100
AcDbLine
 10
-1941.740810191145
 20
1561.610691136201
 11
-2288.629055943721
 21
1458.044193803092
  0
LINE
  5
13F
100
AcDbEntity
  8
0
  6
ByLayer
 62
  256
370
   -1
100
AcDbLine
 10
-1820.910892963256
 20
1488.125106817225
 11
-2258.595918229964
 21
1357.45044269396
  0
LINE
  5
140
100
AcDbEntity
  8
0
  6
ByLayer
 62
  256
370
   -1
100
AcDbLine
 10
-1894.396477282233
 20
1367.295189589335
 11
-2231.487751439807
 21
1266.65366317983
  0
LINE
  5
141
100
AcDbEntity
  8
0
  6
ByLayer
 62
  256
370
   -1
100
AcDbLine
 10
-1773.566560054344
 20
1293.809605270359
 11
-2201.454613726049
 21
1166.059912070698
  0
LINE
  5
142
100
AcDbEntity
  8
0
  6
ByLayer
 62
  256
370
   -1
100
AcDbLine
 10
-1847.052144373321
 20
1172.979688042469
 11
-2174.346446935894
 21
1075.263132556568
  0
LINE
  5
143
100
AcDbEntity
  8
0
  6
ByLayer
 62
  256
370
   -1
100
AcDbLine
 10
-1726.222227145432
 20
1099.494103723493
 11
-2144.313309222135
 21
974.6693814474356
  0
LINE
  5
144
100
AcDbEntity
  8
0
  6
ByLayer
 62
  256
370
   -1
100
AcDbLine
 10
-1752.363478555496
 20
784.3486849487374
 11
-2060.063837928066
 21
692.4820713100443
  0
LINE
  5
145
100
AcDbEntity
  8
0
  6
ByLayer
 62
  256
370
   -1
100
AcDbLine
 10
-1631.533561327607
 20
710.8631006297604
 11
-2030.030700214307
 21
591.8883202009118
  0
LINE
  5
146
100
AcDbEntity
  8
0
  6
ByLayer
 62
  256
370
   -1
100
AcDbLine
 10
-1705.019145646584
 20
590.0331834018717
 11
-2002.922533424153
 21
501.0915406867815
  0
LINE
  5
147
100
AcDbEntity
  8
0
  6
ByLayer
 62
  256
370
   -1
100
AcDbLine
 10
-1584.189228418695
 20
516.5475990828944
 11
-1972.889395710395
 21
400.49778957765
  0
LINE
  5
148
100
AcDbEntity
  8
0
  6
ByLayer
 62
  256
370
   -1
100
AcDbLine
 10
-1657.674812737672
 20
395.7176818550053
 11
-1945.781228920239
 21
309.7010100635194
  0
LINE
  5
149
100
AcDbEntity
  8
0
  6
ByLayer
 62
  256
370
   -1
100
AcDbLine
 10
-1536.844895509783
 20
322.2320975360283
 11
-1915.748091206481
 21
209.107258954388
  0
LINE
  5
14A
100
AcDbEntity
  8
0
  6
ByLayer
 62
  256
370
   -1
100
AcDbLine
 10
-1610.33047982876
 20
201.4021803081392
 11
-1888.639924416325
 21
118.3104794402573
  0
LINE
  5
14B
100
AcDbEntity
  8
0
  6
ByLayer
 62
  256
370
   -1
100
AcDbLine
 10
-1489.500562600871
 20
127.916595989163
 11
-1858.606786702567
 21
17.71672833112575
  0
LINE
  5
14C
100
AcDbEntity
  8
0
  6
ByLayer
 62
  256
370
   -1
100
AcDbLine
 10
-1442.156229691959
 20
-66.39890555770398
 11
-1801.465482198653
 21
-173.6738022921362
  0
LINE
  5
14D
100
AcDbEntity
  8
0
  6
ByLayer
 62
  256
370
   -1
100
AcDbLine
 10
-1941.740810191145
 20
1561.610691136202
 11
-1357.415656005937
 21
1662.298429149916
  0
LINE
  5
14E
100
AcDbEntity
  8
0
  6
ByLayer
 62
  256
370
   -1
100
AcDbLine
 10
-1820.910892963256
 20
1488.125106817225
 11
-1341.633896507952
 21
1570.711516643073
  0
LINE
  5
14F
100
AcDbEntity
  8
0
  6
ByLayer
 62
  256
370
   -1
100
AcDbLine
 10
-1894.396477282233
 20
1367.295189589335
 11
-1323.532568320086
 21
1465.663358913169
  0
LINE
  5
150
100
AcDbEntity
  8
0
  6
ByLayer
 62
  256
370
   -1
100
AcDbLine
 10
-1773.566560054344
 20
1293.809605270359
 11
-1307.7508088221
 21
1374.076446406325
  0
LINE
  5
151
100
AcDbEntity
  8
0
  6
ByLayer
 62
  256
370
   -1
100
AcDbLine
 10
-1847.052144373321
 20
1172.979688042469
 11
-1289.649480634234
 21
1269.028288676421
  0
LINE
  5
152
100
AcDbEntity
  8
0
  6
ByLayer
 62
  256
370
   -1
100
AcDbLine
 10
-1726.222227145432
 20
1099.494103723493
 11
-1273.867721136249
 21
1177.441376169579
  0
LINE
  5
153
100
AcDbEntity
  8
0
  6
ByLayer
 62
  256
370
   -1
100
AcDbLine
 10
-1799.707811464409
 20
978.664186495603
 11
-1255.766392948382
 21
1072.393218439675
  0
LINE
  5
154
100
AcDbEntity
  8
0
  6
ByLayer
 62
  256
370
   -1
100
AcDbLine
 10
-1678.87789423652
 20
905.1786021766266
 11
-1239.984633450397
 21
980.8063059328319
  0
LINE
  5
155
100
AcDbEntity
  8
0
  6
ByLayer
 62
  256
370
   -1
100
AcDbLine
 10
-1752.3634785555
 20
784.3486849487366
 11
-1221.883305262531
 21
875.7581482029276
  0
LINE
  5
156
100
AcDbEntity
  8
0
  6
ByLayer
 62
  256
370
   -1
100
AcDbLine
 10
-1631.533561327607
 20
710.8631006297604
 11
-1206.101545764545
 21
784.171235696085
  0
LINE
  5
157
100
AcDbEntity
  8
0
  6
ByLayer
 62
  256
370
   -1
100
AcDbLine
 10
-1188.000217576679
 20
679.1230779661804
 11
-1705.019145646584
 21
590.0331834018717
  0
LINE
  5
158
100
AcDbEntity
  8
0
  6
ByLayer
 62
  256
370
   -1
100
AcDbLine
 10
-1584.189228418693
 20
516.5475990828946
 11
-1172.218458078694
 21
587.5361654593379
  0
LINE
  5
159
100
AcDbEntity
  8
0
  6
ByLayer
 62
  256
370
   -1
100
AcDbLine
 10
-1154.117129890828
 20
482.4880077294334
 11
-1657.674812737672
 21
395.7176818550051
  0
LINE
  5
15A
100
AcDbEntity
  8
0
  6
ByLayer
 62
  256
370
   -1
100
AcDbLine
 10
-1536.844895509781
 20
322.2320975360284
 11
-1138.335370392842
 21
390.9010952225909
  0
LINE
  5
15B
100
AcDbEntity
  8
0
  6
ByLayer
 62
  256
370
   -1
100
AcDbLine
 10
-1610.33047982876
 20
201.4021803081392
 11
-1120.234042204976
 21
285.852937492686
  0
LINE
  5
15C
100
AcDbEntity
  8
0
  6
ByLayer
 62
  256
370
   -1
100
AcDbLine
 10
-1489.500562600871
 20
127.916595989163
 11
-1104.452282706991
 21
194.2660249858431
  0
LINE
  5
15D
100
AcDbEntity
  8
0
  6
ByLayer
 62
  256
370
   -1
100
AcDbLine
 10
-1442.156229691958
 20
-66.39890555770305
 11
-1070.569195021139
 21
-2.369045250903525
  0
LINE
  5
15E
100
AcDbEntity
  8
0
  6
ByLayer
 62
  256
370
   -1
100
AcDbLine
 10
-1562.986146919848
 20
7.086678761273077
 11
-1086.350954519124
 21
89.21786725593995
  0
LINE
  5
15F
100
AcDbEntity
  8
0
  6
ByLayer
 62
  256
370
   -1
100
AcDbLine
 10
-1678.877894236518
 20
905.1786021766272
 11
-2087.172004718223
 21
783.2788508241736
  0
LINE
  5
160
100
AcDbEntity
  8
0
  6
ByLayer
 62
  256
370
   -1
100
AcDbLine
 10
-1799.707811464409
 20
978.6641864956032
 11
-2117.20514243198
 21
883.8726019333053
  0
LINE
  5
161
100
AcDbEntity
  8
0
  6
ByLayer
 62
  256
370
   -1
100
AcDbLine
 10
-1562.986146919848
 20
7.086678761273077
 11
-1831.498619912411
 21
-73.08005118300423
  0
LINE
  5
162
100
AcDbEntity
  8
0
  6
ByLayer
 62
  256
370
   -1
100
AcDbLine
 10
-1737.166838842988
 20
-389.037304701389
 11
-1449.705170623475
 21
-303.2131280117513
  0
LINE
  5
163
100
AcDbEntity
  8
0
  6
ByLayer
 62
  256
370
   -1
100
AcDbLine
 10
-1449.705170623475
 20
-303.2131280117513
 11
-1458.287588292438
 21
-274.4669611898002
  0
LINE
  5
164
100
AcDbEntity
  8
0
  6
ByLayer
 62
  256
370
   -1
100
AcDbLine
 10
-1458.287588292438
 20
-274.4669611898002
 11
-1745.749256511952
 21
-360.2911378794379
  0
LINE
  5
165
100
AcDbEntity
  8
0
  6
ByLayer
 62
  256
370
   -1
100
AcDbLine
 10
-1478.451337445426
 20
-311.7955456807158
 11
-1515.641814010935
 21
-187.2288227855934
  0
LINE
  5
166
100
AcDbEntity
  8
0
  6
ByLayer
 62
  256
370
   -1
100
AcDbLine
 10
-1458.287588292438
 20
-274.4669611898002
 11
-1477.221122004097
 21
-211.050504475908
  0
LINE
  5
167
100
AcDbEntity
  8
0
  6
ByLayer
 62
  256
370
   -1
100
AcDbLine
 10
-1477.221122004097
 20
-211.050504475908
 11
-1047.373508122329
 21
-136.9814974815081
  0
LINE
  5
168
100
AcDbEntity
  8
0
  6
ByLayer
 62
  256
370
   -1
100
AcDbLine
 10
-1477.221122004097
 20
-211.050504475908
 11
-1515.641814010935
 21
-187.2288227855934
  0
LINE
  5
169
100
AcDbEntity
  8
0
  6
ByLayer
 62
  256
370
   -1
100
AcDbLine
 10
-2324.319640402842
 20
1577.587140139173
 11
-1902.338803063995
 21
1703.573182618253
  0
LINE
  5
16A
100
AcDbEntity
  8
0
  6
ByLayer
 62
  256
370
   -1
100
AcDbLine
 10
-1902.338803063995
 20
1703.573182618253
 11
-1868.255225872168
 21
1682.440608364091
  0
LINE
  5
16B
100
AcDbEntity
  8
0
  6
ByLayer
 62
  256
370
   -1
100
AcDbLine
 10
-1902.338803063995
 20
1703.573182618253
 11
-1919.895074786967
 21
1805.45819248952
  0
LINE
  5
16C
100
AcDbEntity
  8
0
  6
ByLayer
 62
  256
370
   -1
100
AcDbLine
 10
-1919.895074786967
 20
1805.45819248952
 11
-1397.592538607893
 21
1895.458529716195
  0
LINE
  5
16D
100
AcDbEntity
  8
0
  6
ByLayer
 62
  256
370
   -1
100
AcDbLine
 10
-1392.49817989695
 20
1865.894235215493
 11
-1914.800716076023
 21
1775.893897988818
  0
LINE
  5
16E
100
AcDbEntity
  8
0
  6
ByLayer
 62
  256
370
   -1
100
AcDbLine
 10
-1890.330780286258
 20
1810.552551200465
 11
-1868.255225872194
 21
1682.440608364196
  0
LINE
  5
16F
100
AcDbEntity
  8
0
  6
ByLayer
 62
  256
370
   -1
100
AcDbLine
 10
-2324.319640402842
 20
1577.587140139173
 11
-1737.166838842988
 21
-389.037304701389
  0
LINE
  5
170
100
AcDbEntity
  8
0
  6
ByLayer
 62
  256
370
   -1
100
AcDbLine
 10
1128.778719243129
 20
-242.3341886488039
 11
1512.052114408584
 21
1773.964803064077
  0
LINE
  5
171
100
AcDbEntity
  8
draft
  6
ByLayer
 62
  256
370
   -1
100
AcDbLine
 10
-417.87189331717
 20
1905.088363568169
 11
-857.682609255522
 21
1882.575164627797
  0
LINE
  5
172
100
AcDbEntity
  8
draft
  6
ByLayer
 62
  256
370
   -1
100
AcDbLine
 10
-882.8298639657579
 20
1853.25125783936
 11
-416.4404927080429
 21
1877.124975141582
  0
LINE
  5
173
100
AcDbEntity
  8
draft
  6
ByLayer
 62
  256
370
   -1
100
AcDbLine
 10
-882.7276210651061
 20
1851.253872951746
 11
-416.338249807391
 21
1875.127590253968
  0
LINE
  5
174
100
AcDbEntity
  8
draft
  6
ByLayer
 62
  256
370
   -1
100
AcDbLine
 10
-773.1416232710558
 20
1763.98485960744
 11
-411.5963723606907
 21
1782.491776025623
  0
LINE
  5
175
100
AcDbEntity
  8
draft
  6
ByLayer
 62
  256
370
   -1
100
AcDbLine
 10
-773.0393803704039
 20
1761.987474719827
 11
-411.4941294600387
 21
1780.494391138009
  0
LINE
  5
176
100
AcDbEntity
  8
draft
  6
ByLayer
 62
  256
370
   -1
100
AcDbLine
 10
-862.4080215029738
 20
1654.29661891273
 11
-406.2295714766477
 21
1677.647655678268
  0
LINE
  5
177
100
AcDbEntity
  8
draft
  6
ByLayer
 62
  256
370
   -1
100
AcDbLine
 10
-862.305778602322
 20
1652.299234025117
 11
-406.1273285759958
 21
1675.650270790655
  0
LINE
  5
178
100
AcDbEntity
  8
draft
  6
ByLayer
 62
  256
370
   -1
100
AcDbLine
 10
-752.7197808082645
 20
1565.030220680811
 11
-401.3854511292952
 21
1583.014456562308
  0
LINE
  5
179
100
AcDbEntity
  8
draft
  6
ByLayer
 62
  256
370
   -1
100
AcDbLine
 10
-752.6175379076127
 20
1563.032835793198
 11
-401.2832082286432
 21
1581.017071674695
  0
LINE
  5
17A
100
AcDbEntity
  8
draft
  6
ByLayer
 62
  256
370
   -1
100
AcDbLine
 10
-772.4592930655108
 20
1763.761780151749
 11
-882.1475337602203
 21
1853.028178383668
  0
LINE
  5
17B
100
AcDbEntity
  8
draft
  6
ByLayer
 62
  256
370
   -1
100
AcDbLine
 10
-861.5812870645316
 20
1652.666717713704
 11
-772.3148888326131
 21
1762.354958408414
  0
LINE
  5
17C
100
AcDbEntity
  8
draft
  6
ByLayer
 62
  256
370
   -1
100
AcDbLine
 10
-752.0374506027198
 20
1564.807141225121
 11
-861.7256912974293
 21
1654.07353945704
  0
LINE
  5
17D
100
AcDbEntity
  8
draft
  6
ByLayer
 62
  256
370
   -1
100
AcDbLine
 10
-841.1594446017405
 20
1453.712078787076
 11
-751.8930463698221
 21
1563.400319481786
  0
LINE
  5
17E
100
AcDbEntity
  8
draft
  6
ByLayer
 62
  256
370
   -1
100
AcDbLine
 10
-856.9527156914447
 20
1882.949344824104
 11
-881.997727501036
 21
1851.628053148052
  0
LINE
  5
17F
100
AcDbEntity
  8
draft
  6
ByLayer
 62
  256
370
   -1
100
AcDbLine
 10
21.1745368235892
 20
1927.899258080893
 11
49.28683565273839
 21
1899.299003128541
  0
LINE
  5
180
100
AcDbEntity
  8
draft
  6
ByLayer
 62
  256
370
   -1
100
AcDbLine
 10
-50.70710678118655
 20
1800.707106781186
 11
49.29289321881345
 21
1900.707106781186
  0
LINE
  5
181
100
AcDbEntity
  8
draft
  6
ByLayer
 62
  256
370
   -1
100
AcDbLine
 10
49.29289321881345
 20
1699.292893218814
 11
-50.70710678118655
 21
1799.292893218814
  0
LINE
  5
182
100
AcDbEntity
  8
draft
  6
ByLayer
 62
  256
370
   -1
100
AcDbLine
 10
-50.70710678118655
 20
1600.707106781186
 11
49.29289321881345
 21
1700.707106781186
  0
LINE
  5
183
100
AcDbEntity
  8
draft
  6
ByLayer
 62
  256
370
   -1
100
AcDbLine
 10
49.29289321881345
 20
1499.292893218814
 11
-50.70710678118655
 21
1599.292893218814
  0
LINE
  5
184
100
AcDbEntity
  8
draft
  6
ByLayer
 62
  256
370
   -1
100
AcDbLine
 10
-50.70710678118655
 20
1400.707106781186
 11
49.29289321881345
 21
1500.707106781186
  0
LINE
  5
185
100
AcDbEntity
  8
draft
  6
ByLayer
 62
  256
370
   -1
100
AcDbLine
 10
49.94887854967413
 20
1500.998692443807
 11
-396.0186502452545
 21
1478.170336214954
  0
LINE
  5
186
100
AcDbEntity
  8
draft
  6
ByLayer
 62
  256
370
   -1
100
AcDbLine
 10
-415.3669422511976
 20
1856.152433821642
 11
-420.4790872837943
 21
1956.02167820231
  0
LINE
  5
187
100
AcDbEntity
  8
draft
  6
ByLayer
 62
  256
370
   -1
100
AcDbLine
 10
-615.1054310125347
 20
1845.928143756448
 11
-620.2175760451314
 21
1945.797388137117
  0
LINE
  5
188
100
AcDbEntity
  8
draft
  6
ByLayer
 62
  256
370
   -1
100
AcDbLine
 10
-215.6284534898605
 20
1866.376723886835
 11
-220.7405985224572
 21
1966.245968267503
  0
LINE
  5
189
100
AcDbEntity
  8
draft
  6
ByLayer
 62
  256
370
   -1
100
AcDbLine
 10
-773.7217105759485
 20
1762.210554175516
 11
-883.409951270658
 21
1851.476952407435
  0
LINE
  5
18A
100
AcDbEntity
  8
draft
  6
ByLayer
 62
  256
370
   -1
100
AcDbLine
 10
-863.1325130407647
 20
1653.929135224142
 11
-773.8661148088462
 21
1763.617375918852
  0
LINE
  5
18B
100
AcDbEntity
  8
draft
  6
ByLayer
 62
  256
370
   -1
100
AcDbLine
 10
-753.2998681131575
 20
1563.255915248888
 11
-862.988108807867
 21
1652.522313480807
  0
LINE
  5
18C
100
AcDbEntity
  8
draft
  6
ByLayer
 62
  256
370
   -1
100
AcDbLine
 10
-858.5147457202512
 20
1884.198369319103
 11
-883.5597575298425
 21
1852.877077643051
  0
LINE
  5
18D
100
AcDbEntity
  8
draft
  6
ByLayer
 62
  256
370
   -1
100
AcDbLine
 10
-817.9063234412704
 20
1707.91764500736
 11
-927.5945641359799
 21
1797.184043239279
  0
LINE
  5
18E
100
AcDbEntity
  8
draft
  6
ByLayer
 62
  256
370
   -1
100
AcDbLine
 10
-917.4254222089206
 20
1698.113748089464
 11
-828.1590239770021
 21
1807.801988784174
  0
LINE
  5
18F
100
AcDbEntity
  8
draft
  6
ByLayer
 62
  256
370
   -1
100
AcDbLine
 10
-797.4844809784794
 20
1508.963006080732
 11
-907.1727216731889
 21
1598.229404312651
  0
LINE
  5
190
100
AcDbEntity
  8
draft
  6
ByLayer
 62
  256
370
   -1
100
AcDbLine
 10
-816.6439059308326
 20
1709.468870983593
 11
-926.3321466255421
 21
1798.735269215512
  0
LINE
  5
191
100
AcDbEntity
  8
draft
  6
ByLayer
 62
  256
370
   -1
100
AcDbLine
 10
-915.8741962326876
 20
1696.851330579027
 11
-826.6077980007691
 21
1806.539571273736
  0
LINE
  5
192
100
AcDbEntity
  8
draft
  6
ByLayer
 62
  256
370
   -1
100
AcDbLine
 10
-617.1028159001481
 20
1845.825900855797
 11
-622.2149609327448
 21
1945.695145236465
  0
LINE
  5
193
100
AcDbEntity
  8
draft
  6
ByLayer
 62
  256
370
   -1
100
AcDbLine
 10
-417.3643271388109
 20
1856.05019092099
 11
-422.4764721714076
 21
1955.919435301658
  0
LINE
  5
194
100
AcDbEntity
  8
draft
  6
ByLayer
 62
  256
370
   -1
100
AcDbLine
 10
-213.6310686022471
 20
1866.478966787487
 11
-218.7432136348438
 21
1966.348211168155
  0
LINE
  5
195
100
AcDbEntity
  8
ok
  6
ByLayer
 62
  256
370
   -1
100
AcDbLine
 10
-880.1306593397403
 20
1851.386807220615
 11
-827.5278152217832
 21
1808.57760177229
  0
LINE
  5
196
100
AcDbEntity
  8
ok
  6
ByLayer
 62
  256
370
   -1
100
AcDbLine
 10
-880.1306593397403
 20
1851.386807220615
 11
-618.0741234563416
 21
1864.801057288125
  0
LINE
  5
197
100
AcDbEntity
  8
ok
  6
ByLayer
 62
  256
370
   -1
100
AcDbLine
 10
-618.0741234563416
 20
1864.801057288125
 11
-618.1763663569935
 21
1866.798442175738
  0
LINE
  5
198
100
AcDbEntity
  8
ok
  6
ByLayer
 62
  256
370
   -1
100
AcDbLine
 10
-618.1763663569935
 20
1866.798442175738
 11
-880.6088795103001
 21
1853.364946440108
  0
LINE
  5
199
100
AcDbEntity
  8
ok
  6
ByLayer
 62
  256
370
   -1
100
AcDbLine
 10
-827.5278152217832
 20
1808.57760177229
 11
-828.7902327322211
 21
1807.026375796057
  0
LINE
  5
19A
100
AcDbEntity
  8
ok
  6
ByLayer
 62
  256
370
   -1
100
AcDbLine
 10
-828.7902327322211
 20
1807.026375796057
 11
-882.6276361819912
 21
1850.840289353989
  0
LINE
  5
19B
100
AcDbEntity
  8
ok
  6
ByLayer
 62
  256
370
   -1
100
AcDbLine
 10
-773.2349060536274
 20
1764.392988906968
 11
-825.9765892455505
 21
1807.315184261852
  0
LINE
  5
19C
100
AcDbEntity
  8
ok
  6
ByLayer
 62
  256
370
   -1
100
AcDbLine
 10
-825.9765892455505
 20
1807.315184261852
 11
-827.2390067559884
 21
1805.763958285619
  0
LINE
  5
19D
100
AcDbEntity
  8
ok
  6
ByLayer
 62
  256
370
   -1
100
AcDbLine
 10
-827.2390067559884
 20
1805.763958285619
 11
-774.3979337522233
 21
1762.760877591815
  0
LINE
  5
19E
100
AcDbEntity
  8
ok
  6
ByLayer
 62
  256
370
   -1
100
AcDbLine
 10
-773.2349060536274
 20
1764.392988906968
 11
-772.7575642425491
 21
1764.004518967706
  0
LINE
  5
19F
100
AcDbEntity
  8
ok
  6
ByLayer
 62
  256
370
   -1
100
AcDbLine
 10
-772.7575642425491
 20
1764.004518967706
 11
-613.3322460096383
 21
1772.165243059779
  0
LINE
  5
1A0
100
AcDbEntity
  8
ok
  6
ByLayer
 62
  256
370
   -1
100
AcDbLine
 10
-613.3322460096383
 20
1772.165243059779
 11
-613.2300031089864
 21
1770.167858172166
  0
LINE
  5
1A1
100
AcDbEntity
  8
ok
  6
ByLayer
 62
  256
370
   -1
100
AcDbLine
 10
-613.2300031089864
 20
1770.167858172166
 11
-772.5954613004453
 21
1762.010198218762
  0
LINE
  5
1A2
100
AcDbEntity
  8
ok
  6
ByLayer
 62
  256
370
   -1
100
AcDbLine
 10
-772.5954613004453
 20
1762.010198218762
 11
-815.8682929427157
 21
1708.837662228374
  0
LINE
  5
1A3
100
AcDbEntity
  8
ok
  6
ByLayer
 62
  256
370
   -1
100
AcDbLine
 10
-815.8682929427157
 20
1708.837662228374
 11
-817.4195189189495
 21
1710.100079738812
  0
LINE
  5
1A4
100
AcDbEntity
  8
ok
  6
ByLayer
 62
  256
370
   -1
100
AcDbLine
 10
-817.4195189189495
 20
1710.100079738812
 11
-774.4973235640653
 21
1762.841762930735
  0
ENDSEC
  0
SECTION
  2
OBJECTS
  0
DICTIONARY
  5
C
330
0
100
AcDbDictionary
281
    1
  3
ACAD_GROUP
350
D
  0
DICTIONARY
  5
D
330
C
100
AcDbDictionary
281
    1
  0
PLOTSETTINGS
  5
1A5
100
AcDbPlotSettings
  6
1x1
 40
0
 41
0
 42
0
 43
0
  0
ENDSEC
  0
EOF
