999
dxfrw 0.6.3
  0
SECTION
  2
HEADER
  9
$ACADVER
  1
AC1021
  9
$DWGCODEPAGE
  3
ANSI_1252
  9
$INSBASE
 10
0
 20
0
 30
0
  9
$EXTMIN
 10
-457.8631175356735
 20
-352.9260263779698
 30
0
  9
$EXTMAX
 10
568.5680479127186
 20
1515.283156896329
 30
0
  9
$LIMMIN
 10
0
 20
0
  9
$LIMMAX
 10
420
 20
297
  9
$ORTHOMODE
 70
    0
  9
$REGENMODE
 70
    1
  9
$FILLMODE
 70
    1
  9
$QTEXTMODE
 70
    0
  9
$MIRRTEXT
 70
    0
  9
$LTSCALE
 40
1
  9
$ATTMODE
 70
    0
  9
$TEXTSIZE
 40
2.5
  9
$TRACEWID
 40
15.68
  9
$TEXTSTYLE
  7
STANDARD
  9
$CLAYER
  8
papier
  9
$CELTYPE
  6
BYLAYER
  9
$CECOLOR
 62
  256
  9
$CELTSCALE
 40
1
  9
$DISPSILH
 70
    0
  9
$DIMSCALE
 40
2.5
  9
$DIMASZ
 40
2.5
  9
$DIMEXO
 40
0.625
  9
$DIMDLI
 40
3.75
  9
$DIMRND
 40
0
  9
$DIMDLE
 40
0
  9
$DIMEXE
 40
1.25
  9
$DIMTP
 40
0
  9
$DIMTM
 40
0
  9
$DIMTXT
 40
2.5
  9
$DIMCEN
 40
2.5
  9
$DIMTSZ
 40
0
  9
$DIMTOL
 70
    0
  9
$DIMLIM
 70
    0
  9
$DIMTIH
 70
    0
  9
$DIMTOH
 70
    0
  9
$DIMSE1
 70
    0
  9
$DIMSE2
 70
    0
  9
$DIMTAD
 70
    1
  9
$DIMZIN
 70
    8
  9
$DIMBLK
  1

  9
$DIMASO
 70
    1
  9
$DIMSHO
 70
    1
  9
$DIMPOST
  1

  9
$DIMAPOST
  1

  9
$DIMALT
 70
    0
  9
$DIMALTD
 70
    3
  9
$DIMALTF
 40
0.03937
  9
$DIMLFAC
 40
1
  9
$DIMTOFL
 70
    1
  9
$DIMTVP
 40
0
  9
$DIMTIX
 70
    0
  9
$DIMSOXD
 70
    0
  9
$DIMSAH
 70
    0
  9
$DIMBLK1
  1

  9
$DIMBLK2
  1

  9
$DIMSTYLE
  2
STANDARD
  9
$DIMCLRD
 70
    0
  9
$DIMCLRE
 70
    0
  9
$DIMCLRT
 70
    0
  9
$DIMTFAC
 40
1
  9
$DIMGAP
 40
0.625
  9
$DIMJUST
 70
    0
  9
$DIMSD1
 70
    0
  9
$DIMSD2
 70
    0
  9
$DIMTOLJ
 70
    0
  9
$DIMTZIN
 70
    8
  9
$DIMALTZ
 70
    0
  9
$DIMALTTZ
 70
    0
  9
$DIMUPT
 70
    0
  9
$DIMDEC
 70
    2
  9
$DIMTDEC
 70
    2
  9
$DIMALTU
 70
    2
  9
$DIMALTTD
 70
    3
  9
$DIMTXSTY
  7
STANDARD
  9
$DIMAUNIT
 70
    0
  9
$DIMADEC
 70
    0
  9
$DIMALTRND
 40
0
  9
$DIMAZIN
 70
    0
  9
$DIMDSEP
 70
   44
  9
$DIMATFIT
 70
    3
  9
$DIMFRAC
 70
    0
  9
$DIMLDRBLK
  1
STANDARD
  9
$DIMLUNIT
 70
    2
  9
$DIMLWD
 70
   -2
  9
$DIMLWE
 70
   -2
  9
$DIMTMOVE
 70
    0
  9
$DIMFXL
 40
1
  9
$DIMFXLON
 70
    0
  9
$DIMJOGANG
 40
0.7854
  9
$DIMTFILL
 70
    0
  9
$DIMTFILLCLR
 70
    0
  9
$DIMARCSYM
 70
    0
  9
$DIMLTYPE
  6

  9
$DIMLTEX1
  6

  9
$DIMLTEX2
  6

  9
$LUNITS
 70
    2
  9
$LUPREC
 70
    4
  9
$SKETCHINC
 40
1
  9
$FILLETRAD
 40
0
  9
$AUNITS
 70
    0
  9
$AUPREC
 70
    2
  9
$MENU
  1
.
  9
$ELEVATION
 40
0
  9
$PELEVATION
 40
0
  9
$THICKNESS
 40
0
  9
$LIMCHECK
 70
    0
  9
$CHAMFERA
 40
0
  9
$CHAMFERB
 40
0
  9
$CHAMFERC
 40
0
  9
$CHAMFERD
 40
0
  9
$SKPOLY
 70
    0
  9
$USRTIMER
 70
    1
  9
$ANGBASE
 50
0
  9
$ANGDIR
 70
    0
  9
$PDMODE
 70
   34
  9
$PDSIZE
 40
0
  9
$PLINEWID
 40
0
  9
$SPLFRAME
 70
    0
  9
$SPLINETYPE
 70
    2
  9
$SPLINESEGS
 70
    8
  9
$HANDSEED
  5
20000
  9
$SURFTAB1
 70
    6
  9
$SURFTAB2
 70
    6
  9
$SURFTYPE
 70
    6
  9
$SURFU
 70
    6
  9
$SURFV
 70
    6
  9
$UCSBASE
  2

  9
$UCSNAME
  2

  9
$UCSORG
 10
0
 20
0
 30
0
  9
$UCSXDIR
 10
1
 20
0
 30
0
  9
$UCSYDIR
 10
0
 20
1
 30
0
  9
$UCSORTHOREF
  2

  9
$UCSORTHOVIEW
 70
    0
  9
$UCSORGTOP
 10
0
 20
0
 30
0
  9
$UCSORGBOTTOM
 10
0
 20
0
 30
0
  9
$UCSORGLEFT
 10
0
 20
0
 30
0
  9
$UCSORGRIGHT
 10
0
 20
0
 30
0
  9
$UCSORGFRONT
 10
0
 20
0
 30
0
  9
$UCSORGBACK
 10
0
 20
0
 30
0
  9
$PUCSBASE
  2

  9
$PUCSNAME
  2

  9
$PUCSORG
 10
0
 20
0
 30
0
  9
$PUCSXDIR
 10
1
 20
0
 30
0
  9
$PUCSYDIR
 10
0
 20
1
 30
0
  9
$PUCSORTHOREF
  2

  9
$PUCSORTHOVIEW
 70
    0
  9
$PUCSORGTOP
 10
0
 20
0
 30
0
  9
$PUCSORGBOTTOM
 10
0
 20
0
 30
0
  9
$PUCSORGLEFT
 10
0
 20
0
 30
0
  9
$PUCSORGRIGHT
 10
0
 20
0
 30
0
  9
$PUCSORGFRONT
 10
0
 20
0
 30
0
  9
$PUCSORGBACK
 10
0
 20
0
 30
0
  9
$USERI1
 70
    0
  9
$USERI2
 70
    0
  9
$USERI3
 70
    0
  9
$USERI4
 70
    0
  9
$USERI5
 70
    0
  9
$USERR1
 40
0
  9
$USERR2
 40
0
  9
$USERR3
 40
0
  9
$USERR4
 40
0
  9
$USERR5
 40
0
  9
$WORLDVIEW
 70
    1
  9
$SHADEDGE
 70
    3
  9
$SHADEDIF
 70
   70
  9
$TILEMODE
 70
    1
  9
$MAXACTVP
 70
   64
  9
$PINSBASE
 10
0
 20
0
 30
0
  9
$PLIMCHECK
 70
    0
  9
$PEXTMIN
 10
0
 20
0
 30
0
  9
$PEXTMAX
 10
0
 20
0
 30
0
  9
$SNAPSTYLE
 70
    0
  9
$PLIMMIN
 10
0
 20
0
  9
$PLIMMAX
 10
210
 20
297
  9
$UNITMODE
 70
    0
  9
$VISRETAIN
 70
    1
  9
$PLINEGEN
 70
    0
  9
$PSLTSCALE
 70
    1
  9
$TREEDEPTH
 70
 3020
  9
$CMLSTYLE
  2
Standard
  9
$CMLJUST
 70
    0
  9
$CMLSCALE
 40
20
  9
$PROXYGRAPHICS
 70
    1
  9
$MEASUREMENT
 70
    1
  9
$CELWEIGHT
370
   -1
  9
$ENDCAPS
280
    0
  9
$JOINSTYLE
280
    0
  9
$LWDISPLAY
290
    0
  9
$INSUNITS
 70
    4
  9
$HYPERLINKBASE
  1

  9
$STYLESHEET
  1

  9
$XEDIT
290
    1
  9
$CEPSNTYPE
380
    0
  9
$PSTYLEMODE
290
    1
  9
$EXTNAMES
290
    1
  9
$PSVPSCALE
 40
1
  9
$OLESTARTUP
290
    0
  9
$SORTENTS
280
  127
  9
$INDEXCTL
280
    0
  9
$HIDETEXT
280
    1
  9
$XCLIPFRAME
290
    0
  9
$HALOGAP
280
    0
  9
$OBSCOLOR
 70
  257
  9
$OBSLTYPE
280
    0
  9
$INTERSECTIONDISPLAY
280
    0
  9
$INTERSECTIONCOLOR
 70
  257
  9
$DIMASSOC
280
    1
  9
$PROJECTNAME
  1

  9
$CAMERADISPLAY
290
    0
  9
$LENSLENGTH
 40
50
  9
$CAMERAHEIGHT
 40
0
  9
$STEPSPERSEC
 40
2
  9
$STEPSIZE
 40
50
  9
$3DDWFPREC
 40
2
  9
$PSOLWIDTH
 40
5
  9
$PSOLHEIGHT
 40
80
  9
$LOFTANG1
 40
1.570796326794897
  9
$LOFTANG2
 40
1.570796326794897
  9
$LOFTMAG1
 40
0
  9
$LOFTMAG2
 40
0
  9
$LOFTPARAM
 70
    7
  9
$LOFTNORMALS
280
    1
  9
$LATITUDE
 40
1
  9
$LONGITUDE
 40
1
  9
$NORTHDIRECTION
 40
0
  9
$TIMEZONE
 70
-8000
  9
$LIGHTGLYPHDISPLAY
280
    1
  9
$TILEMODELIGHTSYNCH
280
    1
  9
$SOLIDHIST
280
    1
  9
$SHOWHIST
280
    1
  9
$DWFFRAME
280
    2
  9
$DGNFRAME
280
    0
  9
$REALWORLDSCALE
290
    1
  9
$INTERFERECOLOR
 62
    1
  9
$CSHADOW
280
    0
  9
$SHADOWPLANELOCATION
 40
0
  0
ENDSEC
  0
SECTION
  2
CLASSES
  0
ENDSEC
  0
SECTION
  2
TABLES
  0
TABLE
  2
VPORT
  5
8
330
0
100
AcDbSymbolTable
 70
    1
  0
VPORT
  5
31
330
2
100
AcDbSymbolTableRecord
100
AcDbViewportTableRecord
  2
*ACTIVE
 70
    0
 10
0
 20
0
 11
1
 21
1
 12
659.351006927089
 22
706.6522748153366
 13
0
 23
0
 14
10
 24
10
 15
10
 25
10
 16
0
 26
0
 36
1
 17
0
 27
0
 37
0
 40
2204.52575794318
 41
1.892067620286086
 42
50
 43
0
 44
0
 50
0
 51
0
 71
    0
 72
  100
 73
    1
 74
    3
 75
    0
 76
    1
 77
    0
 78
    0
281
    0
 65
    1
110
0
120
0
130
0
111
1
121
0
131
0
112
0
122
1
132
0
 79
    0
146
0
348
10020
 60
    7
 61
    5
292
1
282
    1
141
0
142
0
 63
  250
421
3358443
  0
ENDTAB
  0
TABLE
  2
LTYPE
  5
5
330
0
100
AcDbSymbolTable
 70
    4
  0
LTYPE
  5
14
330
5
100
AcDbSymbolTableRecord
100
AcDbLinetypeTableRecord
  2
ByBlock
 70
    0
  3

 72
   65
 73
    0
 40
0
  0
LTYPE
  5
15
330
5
100
AcDbSymbolTableRecord
100
AcDbLinetypeTableRecord
  2
ByLayer
 70
    0
  3

 72
   65
 73
    0
 40
0
  0
LTYPE
  5
16
330
5
100
AcDbSymbolTableRecord
100
AcDbLinetypeTableRecord
  2
Continuous
 70
    0
  3
Solid line
 72
   65
 73
    0
 40
0
  0
LTYPE
  5
32
330
5
100
AcDbSymbolTableRecord
100
AcDbLinetypeTableRecord
  2
DOT
 70
    0
  3
Dot . . . . . . . . . . . . . . . . . . . . . .
 72
   65
 73
    2
 40
6.35
 49
0
 74
    0
 49
-6.35
 74
    0
  0
LTYPE
  5
33
330
5
100
AcDbSymbolTableRecord
100
AcDbLinetypeTableRecord
  2
DOTTINY
 70
    0
  3
Dot (.15x) .....................................
 72
   65
 73
    2
 40
0.9525
 49
0
 74
    0
 49
-0.9525
 74
    0
  0
LTYPE
  5
34
330
5
100
AcDbSymbolTableRecord
100
AcDbLinetypeTableRecord
  2
DOT2
 70
    0
  3
Dot (.5x) .....................................
 72
   65
 73
    2
 40
3.175
 49
0
 74
    0
 49
-3.175
 74
    0
  0
LTYPE
  5
35
330
5
100
AcDbSymbolTableRecord
100
AcDbLinetypeTableRecord
  2
DOTX2
 70
    0
  3
Dot (2x) .  .  .  .  .  .  .  .  .  .  .  .  .
 72
   65
 73
    2
 40
12.7
 49
0
 74
    0
 49
-12.7
 74
    0
  0
LTYPE
  5
36
330
5
100
AcDbSymbolTableRecord
100
AcDbLinetypeTableRecord
  2
DASHED
 70
    0
  3
Dashed _ _ _ _ _ _ _ _ _ _ _ _ _ _ _ _ _
 72
   65
 73
    2
 40
19.05
 49
12.7
 74
    0
 49
-6.35
 74
    0
  0
LTYPE
  5
37
330
5
100
AcDbSymbolTableRecord
100
AcDbLinetypeTableRecord
  2
DASHEDTINY
 70
    0
  3
Dashed (.15x) _ _ _ _ _ _ _ _ _ _ _ _ _ _ _ _ _
 72
   65
 73
    2
 40
2.8575
 49
1.905
 74
    0
 49
-0.9525
 74
    0
  0
LTYPE
  5
38
330
5
100
AcDbSymbolTableRecord
100
AcDbLinetypeTableRecord
  2
DASHED2
 70
    0
  3
Dashed (.5x) _ _ _ _ _ _ _ _ _ _ _ _ _ _ _ _ _
 72
   65
 73
    2
 40
9.524999999999999
 49
6.35
 74
    0
 49
-3.175
 74
    0
  0
LTYPE
  5
39
330
5
100
AcDbSymbolTableRecord
100
AcDbLinetypeTableRecord
  2
DASHEDX2
 70
    0
  3
Dashed (2x) ____  ____  ____  ____  ____  ___
 72
   65
 73
    2
 40
38.09999999999999
 49
25.4
 74
    0
 49
-12.7
 74
    0
  0
LTYPE
  5
3A
330
5
100
AcDbSymbolTableRecord
100
AcDbLinetypeTableRecord
  2
DASHDOT
 70
    0
  3
Dash dot __ . __ . __ . __ . __ . __ . __ . __
 72
   65
 73
    4
 40
25.4
 49
12.7
 74
    0
 49
-6.35
 74
    0
 49
0
 74
    0
 49
-6.35
 74
    0
  0
LTYPE
  5
3B
330
5
100
AcDbSymbolTableRecord
100
AcDbLinetypeTableRecord
  2
DASHDOTTINY
 70
    0
  3
Dash dot (.15x) _._._._._._._._._._._._._._._.
 72
   65
 73
    4
 40
3.81
 49
1.905
 74
    0
 49
-0.9525
 74
    0
 49
0
 74
    0
 49
-0.9525
 74
    0
  0
LTYPE
  5
3C
330
5
100
AcDbSymbolTableRecord
100
AcDbLinetypeTableRecord
  2
DASHDOT2
 70
    0
  3
Dash dot (.5x) _._._._._._._._._._._._._._._.
 72
   65
 73
    4
 40
12.7
 49
6.35
 74
    0
 49
-3.175
 74
    0
 49
0
 74
    0
 49
-3.175
 74
    0
  0
LTYPE
  5
3D
330
5
100
AcDbSymbolTableRecord
100
AcDbLinetypeTableRecord
  2
DASHDOTX2
 70
    0
  3
Dash dot (2x) ____  .  ____  .  ____  .  ___
 72
   65
 73
    4
 40
50.8
 49
25.4
 74
    0
 49
-12.7
 74
    0
 49
0
 74
    0
 49
-12.7
 74
    0
  0
LTYPE
  5
3E
330
5
100
AcDbSymbolTableRecord
100
AcDbLinetypeTableRecord
  2
DIVIDE
 70
    0
  3
Divide ____ . . ____ . . ____ . . ____ . . ____
 72
   65
 73
    6
 40
31.75
 49
12.7
 74
    0
 49
-6.35
 74
    0
 49
0
 74
    0
 49
-6.35
 74
    0
 49
0
 74
    0
 49
-6.35
 74
    0
  0
LTYPE
  5
3F
330
5
100
AcDbSymbolTableRecord
100
AcDbLinetypeTableRecord
  2
DIVIDETINY
 70
    0
  3
Divide (.15x) __..__..__..__..__..__..__..__.._
 72
   65
 73
    6
 40
4.7625
 49
1.905
 74
    0
 49
-0.9525
 74
    0
 49
0
 74
    0
 49
-0.9525
 74
    0
 49
0
 74
    0
 49
-0.9525
 74
    0
  0
LTYPE
  5
40
330
5
100
AcDbSymbolTableRecord
100
AcDbLinetypeTableRecord
  2
DIVIDE2
 70
    0
  3
Divide (.5x) __..__..__..__..__..__..__..__.._
 72
   65
 73
    6
 40
15.875
 49
6.35
 74
    0
 49
-3.175
 74
    0
 49
0
 74
    0
 49
-3.175
 74
    0
 49
0
 74
    0
 49
-3.175
 74
    0
  0
LTYPE
  5
41
330
5
100
AcDbSymbolTableRecord
100
AcDbLinetypeTableRecord
  2
DIVIDEX2
 70
    0
  3
Divide (2x) ________  .  .  ________  .  .  _
 72
   65
 73
    6
 40
63.5
 49
25.4
 74
    0
 49
-12.7
 74
    0
 49
0
 74
    0
 49
-12.7
 74
    0
 49
0
 74
    0
 49
-12.7
 74
    0
  0
LTYPE
  5
42
330
5
100
AcDbSymbolTableRecord
100
AcDbLinetypeTableRecord
  2
BORDER
 70
    0
  3
Border __ __ . __ __ . __ __ . __ __ . __ __ .
 72
   65
 73
    6
 40
44.45
 49
12.7
 74
    0
 49
-6.35
 74
    0
 49
12.7
 74
    0
 49
-6.35
 74
    0
 49
0
 74
    0
 49
-6.35
 74
    0
  0
LTYPE
  5
43
330
5
100
AcDbSymbolTableRecord
100
AcDbLinetypeTableRecord
  2
BORDERTINY
 70
    0
  3
Border (.15x) __.__.__.__.__.__.__.__.__.__.__.
 72
   65
 73
    6
 40
6.6675
 49
1.905
 74
    0
 49
-0.9525
 74
    0
 49
1.905
 74
    0
 49
-0.9525
 74
    0
 49
0
 74
    0
 49
-0.9525
 74
    0
  0
LTYPE
  5
44
330
5
100
AcDbSymbolTableRecord
100
AcDbLinetypeTableRecord
  2
BORDER2
 70
    0
  3
Border (.5x) __.__.__.__.__.__.__.__.__.__.__.
 72
   65
 73
    6
 40
22.225
 49
6.35
 74
    0
 49
-3.175
 74
    0
 49
6.35
 74
    0
 49
-3.175
 74
    0
 49
0
 74
    0
 49
-3.175
 74
    0
  0
LTYPE
  5
45
330
5
100
AcDbSymbolTableRecord
100
AcDbLinetypeTableRecord
  2
BORDERX2
 70
    0
  3
Border (2x) ____  ____  .  ____  ____  .  ___
 72
   65
 73
    6
 40
88.89999999999999
 49
25.4
 74
    0
 49
-12.7
 74
    0
 49
25.4
 74
    0
 49
-12.7
 74
    0
 49
0
 74
    0
 49
-12.7
 74
    0
  0
LTYPE
  5
46
330
5
100
AcDbSymbolTableRecord
100
AcDbLinetypeTableRecord
  2
CENTER
 70
    0
  3
Center ____ _ ____ _ ____ _ ____ _ ____ _ ____
 72
   65
 73
    4
 40
50.8
 49
31.75
 74
    0
 49
-6.35
 74
    0
 49
6.35
 74
    0
 49
-6.35
 74
    0
  0
LTYPE
  5
47
330
5
100
AcDbSymbolTableRecord
100
AcDbLinetypeTableRecord
  2
CENTERTINY
 70
    0
  3
Center (.15x) ___ _ ___ _ ___ _ ___ _ ___ _ ___
 72
   65
 73
    4
 40
7.619999999999999
 49
4.7625
 74
    0
 49
-0.9525
 74
    0
 49
0.9525
 74
    0
 49
-0.9525
 74
    0
  0
LTYPE
  5
48
330
5
100
AcDbSymbolTableRecord
100
AcDbLinetypeTableRecord
  2
CENTER2
 70
    0
  3
Center (.5x) ___ _ ___ _ ___ _ ___ _ ___ _ ___
 72
   65
 73
    4
 40
28.575
 49
19.05
 74
    0
 49
-3.175
 74
    0
 49
3.175
 74
    0
 49
-3.175
 74
    0
  0
LTYPE
  5
49
330
5
100
AcDbSymbolTableRecord
100
AcDbLinetypeTableRecord
  2
CENTERX2
 70
    0
  3
Center (2x) ________  __  ________  __  _____
 72
   65
 73
    4
 40
101.6
 49
63.5
 74
    0
 49
-12.7
 74
    0
 49
12.7
 74
    0
 49
-12.7
 74
    0
  0
ENDTAB
  0
TABLE
  2
LAYER
  5
2
330
0
100
AcDbSymbolTable
 70
    1
  0
LAYER
  5
10
330
2
100
AcDbSymbolTableRecord
100
AcDbLayerTableRecord
  2
0
 70
    0
 62
    7
  6
CONTINUOUS
370
    0
390
F
  0
LAYER
  5
4A
330
2
100
AcDbSymbolTableRecord
100
AcDbLayerTableRecord
  2
angles
 70
    1
 62
   56
420
8421376
  6
CONTINUOUS
370
    0
390
F
1001
LibreCad
1070
    1
  0
LAYER
  5
4B
330
2
100
AcDbSymbolTableRecord
100
AcDbLayerTableRecord
  2
construct
 70
    1
 62
   16
420
8388608
  6
CONTINUOUS
370
    0
390
F
1001
LibreCad
1070
    1
  0
LAYER
  5
4C
330
2
100
AcDbSymbolTableRecord
100
AcDbLayerTableRecord
  2
forme générale
 70
    0
 62
  136
420
32896
  6
CONTINUOUS
370
    0
390
F
1001
LibreCad
1070
    1
  0
LAYER
  5
4D
330
2
100
AcDbSymbolTableRecord
100
AcDbLayerTableRecord
  2
papier
 70
    0
 62
    7
  6
CONTINUOUS
370
    0
390
F
  0
LAYER
  5
4E
330
2
100
AcDbSymbolTableRecord
100
AcDbLayerTableRecord
  2
pli droite
 70
    1
 62
    4
  6
CONTINUOUS
370
    0
390
F
1001
LibreCad
1070
    1
  0
LAYER
  5
4F
330
2
100
AcDbSymbolTableRecord
100
AcDbLayerTableRecord
  2
plis gauche
 70
    0
 62
   96
420
32768
  6
CONTINUOUS
370
    0
390
F
1001
LibreCad
1070
    1
  0
LAYER
  5
50
330
2
100
AcDbSymbolTableRecord
100
AcDbLayerTableRecord
  2
tracé coupe
 70
    1
 62
    3
  6
CONTINUOUS
370
    0
390
F
1001
LibreCad
1070
    1
  0
ENDTAB
  0
TABLE
  2
STYLE
  5
3
330
0
100
AcDbSymbolTable
 70
    3
  0
STYLE
  5
51
330
2
100
AcDbSymbolTableRecord
100
AcDbTextStyleTableRecord
  2
Standard
 70
    0
 40
0
 41
1
 50
0
 71
    0
 42
1
  3
txt
  4

  0
ENDTAB
  0
TABLE
  2
VIEW
  5
6
330
0
100
AcDbSymbolTable
 70
    0
  0
ENDTAB
  0
TABLE
  2
UCS
  5
7
330
0
100
AcDbSymbolTable
 70
    0
  0
ENDTAB
  0
TABLE
  2
APPID
  5
9
330
0
100
AcDbSymbolTable
 70
    1
  0
APPID
  5
12
330
9
100
AcDbSymbolTableRecord
100
AcDbRegAppTableRecord
  2
ACAD
 70
    0
  0
APPID
  5
52
330
9
100
AcDbSymbolTableRecord
100
AcDbRegAppTableRecord
  2
LibreCad
 70
    0
  0
ENDTAB
  0
TABLE
  2
DIMSTYLE
  5
A
330
0
100
AcDbSymbolTable
 70
    1
100
AcDbDimStyleTable
 71
    1
  0
DIMSTYLE
105
53
330
A
100
AcDbSymbolTableRecord
100
AcDbDimStyleTableRecord
  2
Standard
 70
    0
 40
1
 41
2.5
 42
0.625
 43
0.38
 44
1.25
 45
0
 46
0
 47
0
 48
0
 49
1
140
2.5
141
0.09
142
2.5
143
25.4
144
1
145
0
146
1
147
0.625
148
0
 71
    0
 72
    0
 73
    0
 74
    1
 75
    0
 76
    0
 77
    0
 78
    1
 79
    0
170
    0
171
    2
172
    0
173
    0
174
    0
175
    0
176
    0
177
    0
178
    0
179
    0
271
    2
272
    4
273
    2
274
    2
275
    0
276
    0
277
    2
278
    0
279
    0
280
    0
281
    0
282
    0
283
    1
284
    0
285
    0
286
    0
288
    0
289
    3
340
standard
341

371
   -2
372
   -2
  0
ENDTAB
  0
TABLE
  2
BLOCK_RECORD
  5
1
330
0
100
AcDbSymbolTable
 70
    2
  0
BLOCK_RECORD
  5
1F
330
1
100
AcDbSymbolTableRecord
100
AcDbBlockTableRecord
  2
*Model_Space
 70
    0
280
    1
281
    0
  0
BLOCK_RECORD
  5
1E
330
1
100
AcDbSymbolTableRecord
100
AcDbBlockTableRecord
  2
*Paper_Space
 70
    0
280
    1
281
    0
  0
ENDTAB
  0
ENDSEC
  0
SECTION
  2
BLOCKS
  0
BLOCK
  5
20
330
1F
100
AcDbEntity
  8
0
100
AcDbBlockBegin
  2
*Model_Space
 70
    0
 10
0
 20
0
 30
0
  3
*Model_Space
  1

  0
ENDBLK
  5
21
330
1F
100
AcDbEntity
  8
0
100
AcDbBlockEnd
  0
BLOCK
  5
1C
330
1B
100
AcDbEntity
  8
0
100
AcDbBlockBegin
  2
*Paper_Space
 70
    0
 10
0
 20
0
 30
0
  3
*Paper_Space
  1

  0
ENDBLK
  5
1D
330
1F
100
AcDbEntity
  8
0
100
AcDbBlockEnd
  0
ENDSEC
  0
SECTION
  2
ENTITIES
  0
LINE
  5
54
100
AcDbEntity
  8
construct
  6
ByLayer
 62
  256
370
   -1
100
AcDbLine
 10
0
 20
0
 11
6.123233995736766e-17
 21
1
  0
LINE
  5
55
100
AcDbEntity
  8
construct
  6
ByLayer
 62
  256
370
   -1
100
AcDbLine
 10
0
 20
1200
 11
1
 21
1200
  0
LINE
  5
56
100
AcDbEntity
  8
construct
  6
ByLayer
 62
  256
370
   -1
100
AcDbLine
 10
-50
 20
0
 11
-50
 21
1
  0
LINE
  5
57
100
AcDbEntity
  8
construct
  6
ByLayer
 62
  256
370
   -1
100
AcDbLine
 10
50
 20
0
 11
50
 21
1
  0
LINE
  5
58
100
AcDbEntity
  8
construct
  6
ByLayer
 62
  256
370
   -1
100
AcDbLine
 10
-416
 20
0
 11
-416
 21
1
  0
LINE
  5
59
100
AcDbEntity
  8
construct
  6
ByLayer
 62
  256
370
   -1
100
AcDbLine
 10
550
 20
0
 11
550
 21
1
  0
LINE
  5
5A
100
AcDbEntity
  8
construct
  6
ByLayer
 62
  256
370
   -1
100
AcDbLine
 10
420
 20
0
 11
420
 21
1
  0
LINE
  5
5B
100
AcDbEntity
  8
construct
  6
ByLayer
 62
  256
370
   -1
100
AcDbLine
 10
0
 20
0
 11
1
 21
0
  0
LINE
  5
5C
100
AcDbEntity
  8
construct
  6
ByLayer
 62
  256
370
   -1
100
AcDbLine
 10
-320
 20
0
 11
-320
 21
1
  0
LINE
  5
5D
100
AcDbEntity
  8
forme générale
  6
ByLayer
 62
  256
370
   -1
100
AcDbLine
 10
-9.928623308969659
 20
1118.807339449542
 11
9.928623308966021
 21
1121.192660550459
  0
LINE
  5
5E
100
AcDbEntity
  8
forme générale
  6
ByLayer
 62
  256
370
   -1
100
AcDbLine
 10
-9.92862330896784
 20
28.80733944954127
 11
9.92862330896784
 21
31.19266055045873
  0
LINE
  5
5F
100
AcDbEntity
  8
forme générale
  6
ByLayer
 62
  256
370
   -1
100
AcDbLine
 10
-9.961139880465765
 20
1120.880733944954
 11
9.961139880465765
 21
1119.119266055046
  0
LINE
  5
60
100
AcDbEntity
  8
angles
  6
ByLayer
 62
  256
370
   -1
100
AcDbLine
 10
-318.7564761749052
 20
1156.598163006433
 11
-414.3834187388535
 21
66.63853537329155
  0
LINE
  5
61
100
AcDbEntity
  8
angles
  6
ByLayer
 62
  256
370
   -1
100
AcDbLine
 10
-414.3834187388535
 20
66.63853537329155
 11
-318.7564761749052
 21
1156.598163006433
  0
LINE
  5
62
100
AcDbEntity
  8
angles
  6
ByLayer
 62
  256
370
   -1
100
AcDbLine
 10
49.99999999999997
 20
36.00617282650599
 11
50.70710678118652
 21
35.29906604531944
  0
LINE
  5
63
100
AcDbEntity
  8
angles
  6
ByLayer
 62
  256
370
   -1
100
AcDbLine
 10
-50
 20
136.006172826506
 11
-49.29289321881345
 21
136.7132796076925
  0
LINE
  5
64
100
AcDbEntity
  8
angles
  6
ByLayer
 62
  256
370
   -1
100
AcDbLine
 10
50
 20
236.006172826507
 11
50.70710678118655
 21
235.2990660453204
  0
LINE
  5
65
100
AcDbEntity
  8
angles
  6
ByLayer
 62
  256
370
   -1
100
AcDbLine
 10
-50
 20
336.006172826508
 11
-49.29289321881345
 21
336.7132796076946
  0
LINE
  5
66
100
AcDbEntity
  8
angles
  6
ByLayer
 62
  256
370
   -1
100
AcDbLine
 10
50
 20
436.006172826509
 11
50.70710678118655
 21
435.2990660453225
  0
LINE
  5
67
100
AcDbEntity
  8
angles
  6
ByLayer
 62
  256
370
   -1
100
AcDbLine
 10
-50
 20
536.00617282651
 11
-49.29289321881345
 21
536.7132796076966
  0
LINE
  5
68
100
AcDbEntity
  8
angles
  6
ByLayer
 62
  256
370
   -1
100
AcDbLine
 10
50
 20
636.006172826511
 11
50.70710678118655
 21
635.2990660453245
  0
LINE
  5
69
100
AcDbEntity
  8
angles
  6
ByLayer
 62
  256
370
   -1
100
AcDbLine
 10
-50
 20
736.0061728265119
 11
-49.29289321881345
 21
736.7132796076985
  0
LINE
  5
6A
100
AcDbEntity
  8
angles
  6
ByLayer
 62
  256
370
   -1
100
AcDbLine
 10
50
 20
836.006172826513
 11
50.70710678118655
 21
835.2990660453264
  0
LINE
  5
6B
100
AcDbEntity
  8
angles
  6
ByLayer
 62
  256
370
   -1
100
AcDbLine
 10
-50
 20
936.006172826514
 11
-49.29289321881345
 21
936.7132796077005
  0
LINE
  5
6C
100
AcDbEntity
  8
angles
  6
ByLayer
 62
  256
370
   -1
100
AcDbLine
 10
50
 20
1036.006172826515
 11
50.70710678118655
 21
1035.299066045329
  0
LINE
  5
6D
100
AcDbEntity
  8
angles
  6
ByLayer
 62
  256
370
   -1
100
AcDbLine
 10
49.99999999999997
 20
36.00617282650599
 11
50.70710678118652
 21
35.29906604531944
  0
LINE
  5
6E
100
AcDbEntity
  8
angles
  6
ByLayer
 62
  256
370
   -1
100
AcDbLine
 10
50
 20
36.00617282650596
 11
50.70710678118655
 21
36.71327960769251
  0
LINE
  5
6F
100
AcDbEntity
  8
tracé coupe
  6
ByLayer
 62
  256
370
   -1
100
AcDbLine
 10
532.8103654636396
 20
206.0153684275807
 11
-13.2639165295915
 21
140.4190381523504
  0
LINE
  5
70
100
AcDbEntity
  8
tracé coupe
  6
ByLayer
 62
  256
370
   -1
100
AcDbLine
 10
536.3883471150158
 20
176.2294985006772
 11
-9.685934878215303
 21
110.6331682254469
  0
LINE
  5
71
100
AcDbEntity
  8
tracé coupe
  6
ByLayer
 62
  256
370
   -1
100
AcDbLine
 10
-51.19266055045873
 20
145.9347961354738
 11
-48.80733944954127
 21
126.0775495175381
  0
LINE
  5
72
100
AcDbEntity
  8
plis gauche
  6
ByLayer
 62
  256
370
   -1
100
AcDbLine
 10
0.9147746470454479
 20
40.346140798375
 11
-413.4686440918081
 21
76.98467617166655
  0
CIRCLE
  5
73
100
AcDbEntity
  8
forme générale
  6
ByLayer
 62
  256
370
   -1
100
AcDbCircle
 10
-38.93219920447575
 20
43.86929036217943
 40
366
  0
LINE
  5
74
100
AcDbEntity
  8
papier
  6
ByLayer
 62
  256
370
   -1
100
AcDbLine
 10
-38.93219920447575
 20
43.86929036217943
 11
-403.5099185756786
 21
76.10415561848883
  0
LINE
  5
75
100
AcDbEntity
  8
papier
  6
ByLayer
 62
  256
370
   -1
100
AcDbLine
 10
-38.93219920447575
 20
43.86929036217943
 11
-50
 21
136.0061728265059
  0
LINE
  5
76
100
AcDbEntity
  8
papier
  6
ByLayer
 62
  256
370
   -1
100
AcDbLine
 10
-50
 20
136.0061728265059
 11
50
 21
236.006172826507
  0
LINE
  5
77
100
AcDbEntity
  8
papier
  6
ByLayer
 62
  256
370
   -1
100
AcDbLine
 10
50
 20
236.006172826507
 11
-50
 21
336.006172826508
  0
LINE
  5
78
100
AcDbEntity
  8
papier
  6
ByLayer
 62
  256
370
   -1
100
AcDbLine
 10
-50
 20
336.006172826508
 11
50
 21
436.006172826509
  0
LINE
  5
79
100
AcDbEntity
  8
papier
  6
ByLayer
 62
  256
370
   -1
100
AcDbLine
 10
50
 20
436.006172826509
 11
-50
 21
536.00617282651
  0
LINE
  5
7A
100
AcDbEntity
  8
papier
  6
ByLayer
 62
  256
370
   -1
100
AcDbLine
 10
-50
 20
536.00617282651
 11
50
 21
636.006172826511
  0
LINE
  5
7B
100
AcDbEntity
  8
papier
  6
ByLayer
 62
  256
370
   -1
100
AcDbLine
 10
50
 20
636.006172826511
 11
-50
 21
736.0061728265119
  0
LINE
  5
7C
100
AcDbEntity
  8
papier
  6
ByLayer
 62
  256
370
   -1
100
AcDbLine
 10
-50
 20
736.0061728265119
 11
50
 21
836.006172826513
  0
LINE
  5
7D
100
AcDbEntity
  8
papier
  6
ByLayer
 62
  256
370
   -1
100
AcDbLine
 10
50
 20
836.006172826513
 11
-50
 21
936.006172826514
  0
LINE
  5
7E
100
AcDbEntity
  8
papier
  6
ByLayer
 62
  256
370
   -1
100
AcDbLine
 10
-50
 20
936.006172826514
 11
50
 21
1036.006172826515
  0
CIRCLE
  5
7F
100
AcDbEntity
  8
forme générale
  6
ByLayer
 62
  256
370
   -1
100
AcDbCircle
 10
-50
 20
136.0061728265059
 40
92.79925282401
  0
CIRCLE
  5
80
100
AcDbEntity
  8
forme générale
  6
ByLayer
 62
  256
370
   -1
100
AcDbCircle
 10
42.13688246432652
 20
147.0739736220302
 40
500
  0
LINE
  5
81
100
AcDbEntity
  8
papier
  6
ByLayer
 62
  256
370
   -1
100
AcDbLine
 10
-50
 20
136.0061728265059
 11
538.5680479127184
 21
206.7070011449669
  0
LINE
  5
82
100
AcDbEntity
  8
tracé coupe
  6
ByLayer
 62
  256
370
   -1
100
AcDbLine
 10
-1.148822417766525
 20
1137.978357758691
 11
415.8533565588831
 21
1188.070100877954
  0
LINE
  5
83
100
AcDbEntity
  8
tracé coupe
  6
ByLayer
 62
  256
370
   -1
100
AcDbLine
 10
-326.475733451884
 20
1069.29302170942
 11
-7.719257276978802
 21
1041.109535470891
  0
LINE
  5
84
100
AcDbEntity
  8
tracé coupe
  6
ByLayer
 62
  256
370
   -1
100
AcDbLine
 10
49.11926605504561
 20
1026.045032946049
 11
50.88073394495371
 21
1045.96731270698
  0
LINE
  5
85
100
AcDbEntity
  8
papier
  6
ByLayer
 62
  256
370
   -1
100
AcDbLine
 10
49.99999999999966
 20
1036.006172826515
 11
59.66194134681609
 21
1145.283156896329
  0
CIRCLE
  5
86
100
AcDbEntity
  8
construct
  6
ByLayer
 62
  256
370
   -1
100
AcDbCircle
 10
59.66194134681611
 20
1145.283156896329
 40
37
  0
CIRCLE
  5
87
100
AcDbEntity
  8
construct
  6
ByLayer
 62
  256
370
   -1
100
AcDbCircle
 10
59.66194134681609
 20
1145.283156896329
 40
370
  0
CIRCLE
  5
88
100
AcDbEntity
  8
forme générale
  6
ByLayer
 62
  256
370
   -1
100
AcDbCircle
 10
59.66194134681609
 20
1145.283156896329
 40
370
  0
LINE
  5
89
100
AcDbEntity
  8
papier
  6
ByLayer
 62
  256
370
   -1
100
AcDbLine
 10
427.0210037786262
 20
1189.411597263299
 11
59.66194134681611
 21
1145.283156896329
  0
CIRCLE
  5
8A
100
AcDbEntity
  8
forme générale
  6
ByLayer
 62
  256
370
   -1
100
AcDbCircle
 10
49.99999999999966
 20
1036.006172826515
 40
109.7032923753144
  0
CIRCLE
  5
8B
100
AcDbEntity
  8
forme générale
  6
ByLayer
 62
  256
370
   -1
100
AcDbCircle
 10
-59.2769840698146
 20
1045.668114173331
 40
270
  0
LINE
  5
8C
100
AcDbEntity
  8
papier
  6
ByLayer
 62
  256
370
   -1
100
AcDbLine
 10
-328.2277608423905
 20
1069.44793068709
 11
49.99999999999966
 21
1036.006172826515
  0
LINE
  5
8D
100
AcDbEntity
  8
papier
  6
ByLayer
 62
  256
370
   -1
100
AcDbLine
 10
538.5680479127184
 20
206.7070011449669
 11
427.0210037786262
 21
1189.411597263299
  0
LINE
  5
8E
100
AcDbEntity
  8
plis gauche
  6
ByLayer
 62
  256
370
   -1
100
AcDbLine
 10
8.912197025506266
 20
130.7973335799781
 11
-405.4712217133472
 21
167.4358689532696
  0
LINE
  5
8F
100
AcDbEntity
  8
plis gauche
  6
ByLayer
 62
  256
370
   -1
100
AcDbLine
 10
18.46100424390332
 20
238.7947559584399
 11
-395.9224144949502
 21
275.4332913317314
  0
LINE
  5
90
100
AcDbEntity
  8
plis gauche
  6
ByLayer
 62
  256
370
   -1
100
AcDbLine
 10
26.45842662236423
 20
329.245948740044
 11
-387.9249921164893
 21
365.8844841133355
  0
LINE
  5
91
100
AcDbEntity
  8
plis gauche
  6
ByLayer
 62
  256
370
   -1
100
AcDbLine
 10
36.00723384076128
 20
437.2433711185057
 11
-378.3761848980922
 21
473.8819064917972
  0
LINE
  5
92
100
AcDbEntity
  8
plis gauche
  6
ByLayer
 62
  256
370
   -1
100
AcDbLine
 10
44.00465621922218
 20
527.6945639001098
 11
-370.3787625196313
 21
564.3330992734013
  0
LINE
  5
93
100
AcDbEntity
  8
plis gauche
  6
ByLayer
 62
  256
370
   -1
100
AcDbLine
 10
53.55346343761924
 20
635.6919862785716
 11
-360.8299553012343
 21
672.3305216518631
  0
LINE
  5
94
100
AcDbEntity
  8
plis gauche
  6
ByLayer
 62
  256
370
   -1
100
AcDbLine
 10
61.55088581608015
 20
726.1431790601757
 11
-352.8325329227733
 21
762.7817144334673
  0
LINE
  5
95
100
AcDbEntity
  8
plis gauche
  6
ByLayer
 62
  256
370
   -1
100
AcDbLine
 10
71.0996930344772
 20
834.1406014386373
 11
-343.2837257043763
 21
870.7791368119289
  0
LINE
  5
96
100
AcDbEntity
  8
plis gauche
  6
ByLayer
 62
  256
370
   -1
100
AcDbLine
 10
79.09711541293811
 20
924.5917942202415
 11
-335.2863033259154
 21
961.230329593533
  0
LINE
  5
97
100
AcDbEntity
  8
pli droite
  6
ByLayer
 62
  256
370
   -1
100
AcDbLine
 10
-60.41903815235059
 20
222.7422562969155
 11
528.1490097603678
 21
293.4430846153763
  0
LINE
  5
98
100
AcDbEntity
  8
pli droite
  6
ByLayer
 62
  256
370
   -1
100
AcDbLine
 10
-73.68295468194225
 20
333.1612944492668
 11
514.8850932307762
 21
403.8621227677278
  0
LINE
  5
99
100
AcDbEntity
  8
pli droite
  6
ByLayer
 62
  256
370
   -1
100
AcDbLine
 10
-97.3659093638845
 20
530.3164160720279
 11
491.2021385488339
 21
601.0172443904887
  0
LINE
  5
9A
100
AcDbEntity
  8
pli droite
  6
ByLayer
 62
  256
370
   -1
100
AcDbLine
 10
-107.7849475162351
 20
617.0524995424373
 11
480.7831003964833
 21
687.7533278608983
  0
LINE
  5
9B
100
AcDbEntity
  8
pli droite
  6
ByLayer
 62
  256
370
   -1
100
AcDbLine
 10
-121.0488640458267
 20
727.4715376947888
 11
467.5191838668916
 21
798.1723660132498
  0
LINE
  5
9C
100
AcDbEntity
  8
pli droite
  6
ByLayer
 62
  256
370
   -1
100
AcDbLine
 10
-131.4679021981773
 20
814.2076211651981
 11
457.1001457145411
 21
884.9084494836591
  0
LINE
  5
9D
100
AcDbEntity
  8
pli droite
  6
ByLayer
 62
  256
370
   -1
100
AcDbLine
 10
-144.731818727769
 20
924.6266593175496
 11
443.8362291849494
 21
995.3274876360106
  0
LINE
  5
9E
100
AcDbEntity
  8
pli droite
  6
ByLayer
 62
  256
370
   -1
100
AcDbLine
 10
-155.1508568801196
 20
1011.362742787959
 11
433.4171910325988
 21
1082.06357110642
  0
LINE
  5
9F
100
AcDbEntity
  8
papier
  6
ByLayer
 62
  256
370
   -1
100
AcDbLine
 10
50
 20
636.006172826511
 11
-49.99999999999977
 21
736.0061728265122
  0
LINE
  5
A0
100
AcDbEntity
  8
papier
  6
ByLayer
 62
  256
370
   -1
100
AcDbLine
 10
49.99999999999989
 20
836.006172826513
 11
-50
 21
936.006172826514
  0
LINE
  5
A1
100
AcDbEntity
  8
pli droite
  6
ByLayer
 62
  256
370
   -1
100
AcDbLine
 10
50
 20
236.006172826507
 11
528.7148974000224
 21
293.5110609946594
  0
LINE
  5
A2
100
AcDbEntity
  8
papier
  6
ByLayer
 62
  256
370
   -1
100
AcDbLine
 10
49.99999999999977
 20
236.006172826507
 11
528.7148974000224
 21
293.5110609946594
  0
LINE
  5
A3
100
AcDbEntity
  8
papier
  6
ByLayer
 62
  256
370
   -1
100
AcDbLine
 10
528.7148974000224
 20
293.5110609946594
 11
516.1713819581082
 21
404.0166362157507
  0
LINE
  5
A4
100
AcDbEntity
  8
papier
  6
ByLayer
 62
  256
370
   -1
100
AcDbLine
 10
516.1713819581082
 20
404.0166362157507
 11
-49.99999999999955
 21
336.006172826508
  0
LINE
  5
A5
100
AcDbEntity
  8
pli droite
  6
ByLayer
 62
  256
370
   -1
100
AcDbLine
 10
-84.10199283429284
 20
419.8973779196764
 11
504.4660550784255
 21
490.5982062381373
  0
LINE
  5
A6
100
AcDbEntity
  8
papier
  6
ByLayer
 62
  256
370
   -1
100
AcDbLine
 10
50
 20
436.006172826509
 11
506.3182314454123
 21
490.8206960654431
  0
LINE
  5
A7
100
AcDbEntity
  8
papier
  6
ByLayer
 62
  256
370
   -1
100
AcDbLine
 10
-49.99999999999989
 20
536.0061728265101
 11
493.7747160034981
 21
601.3262712865345
  0
LINE
  5
A8
100
AcDbEntity
  8
papier
  6
ByLayer
 62
  256
370
   -1
100
AcDbLine
 10
50.00000000000011
 20
636.0061728265109
 11
483.9215654908022
 21
688.130331136227
  0
LINE
  5
A9
100
AcDbEntity
  8
papier
  6
ByLayer
 62
  256
370
   -1
100
AcDbLine
 10
-49.99999999999966
 20
736.0061728265121
 11
471.378050048888
 21
798.6359063573184
  0
LINE
  5
AA
100
AcDbEntity
  8
papier
  6
ByLayer
 62
  256
370
   -1
100
AcDbLine
 10
50.00000000000011
 20
836.0061728265131
 11
461.524899536192
 21
885.4399662070108
  0
LINE
  5
AB
100
AcDbEntity
  8
papier
  6
ByLayer
 62
  256
370
   -1
100
AcDbLine
 10
-49.99999999999977
 20
936.0061728265142
 11
448.9813840942778
 21
995.945541428102
  0
LINE
  5
AC
100
AcDbEntity
  8
papier
  6
ByLayer
 62
  256
370
   -1
100
AcDbLine
 10
49.99999999999818
 20
1036.006172826515
 11
439.1282335815819
 21
1082.749601277794
  0
LINE
  5
AD
100
AcDbEntity
  8
papier
  6
ByLayer
 62
  256
370
   -1
100
AcDbLine
 10
-328.2277608423905
 20
1069.44793068709
 11
-403.5099185756786
 21
76.10415561848883
  0
LINE
  5
AE
100
AcDbEntity
  8
papier
  6
ByLayer
 62
  256
370
   -1
100
AcDbLine
 10
-50
 20
136.0061728265059
 11
-396.647324974714
 21
166.6556865469065
  0
LINE
  5
AF
100
AcDbEntity
  8
papier
  6
ByLayer
 62
  256
370
   -1
100
AcDbLine
 10
50.00000000000006
 20
236.006172826507
 11
-388.4534869838251
 21
274.7729112285657
  0
LINE
  5
B0
100
AcDbEntity
  8
papier
  6
ByLayer
 62
  256
370
   -1
100
AcDbLine
 10
-50.00000000000006
 20
336.006172826508
 11
-381.5908933828604
 21
365.3244421569843
  0
LINE
  5
B1
100
AcDbEntity
  8
papier
  6
ByLayer
 62
  256
370
   -1
100
AcDbLine
 10
50.00000000000045
 20
436.0061728265091
 11
-373.3970553919716
 21
473.4416668386436
  0
LINE
  5
B2
100
AcDbEntity
  8
papier
  6
ByLayer
 62
  256
370
   -1
100
AcDbLine
 10
-50
 20
536.00617282651
 11
-366.5344617910068
 21
563.9931977670623
  0
LINE
  5
B3
100
AcDbEntity
  8
papier
  6
ByLayer
 62
  256
370
   -1
100
AcDbLine
 10
53.55346343761924
 20
635.6919862785716
 11
-358.340623800118
 21
672.1104224487216
  0
LINE
  5
B4
100
AcDbEntity
  8
papier
  6
ByLayer
 62
  256
370
   -1
100
AcDbLine
 10
-50.00000000000011
 20
736.0061728265121
 11
-351.4780301991533
 21
762.6619533771402
  0
LINE
  5
B5
100
AcDbEntity
  8
papier
  6
ByLayer
 62
  256
370
   -1
100
AcDbLine
 10
49.99999999999989
 20
836.006172826513
 11
-343.2837257043763
 21
870.7791368119289
  0
LINE
  5
B6
100
AcDbEntity
  8
papier
  6
ByLayer
 62
  256
370
   -1
100
AcDbLine
 10
-50
 20
936.006172826514
 11
-335.2863033259154
 21
961.230329593533
  0
LINE
  5
B7
100
AcDbEntity
  8
forme générale
  6
ByLayer
 62
  256
370
   -1
100
AcDbLine
 10
-388.4534869838251
 20
274.7729112285657
 11
-396.647324974714
 21
166.6556865469065
  0
LINE
  5
B8
100
AcDbEntity
  8
forme générale
  6
ByLayer
 62
  256
370
   -1
100
AcDbLine
 10
-396.647324974714
 20
166.6556865469065
 11
517.2294663120696
 21
394.6951488936061
  0
LINE
  5
B9
100
AcDbEntity
  8
forme générale
  6
ByLayer
 62
  256
370
   -1
100
AcDbLine
 10
517.2294663120696
 20
394.6951488936061
 11
528.7148974000226
 21
293.5110609946594
  0
CIRCLE
  5
BA
100
AcDbEntity
  8
forme générale
  6
ByLayer
 62
  256
370
   -1
100
AcDbCircle
 10
538.5680479127186
 20
206.7070011449669
 40
30
  0
CIRCLE
  5
BB
100
AcDbEntity
  8
forme générale
  6
ByLayer
 62
  256
370
   -1
100
AcDbCircle
 10
-403.5099185756786
 20
76.10415561848882
 40
30
  0
LINE
  5
BC
100
AcDbEntity
  8
forme générale
  6
ByLayer
 62
  256
370
   -1
100
AcDbLine
 10
-41.57419334481094
 20
13.98822243722682
 11
-406.1519127160138
 21
46.22308769353622
  0
CIRCLE
  5
BD
100
AcDbEntity
  8
forme générale
  6
ByLayer
 62
  256
370
   -1
100
AcDbCircle
 10
-38.93219920447576
 20
43.86929036217943
 40
30
  0
LINE
  5
BE
100
AcDbEntity
  8
forme générale
  6
ByLayer
 62
  256
370
   -1
100
AcDbLine
 10
-9.786728814912685
 20
47.37034500757
 11
-20.85452961043693
 21
139.5072274718965
  0
LINE
  5
BF
100
AcDbEntity
  8
papier
  6
ByLayer
 62
  256
370
   -1
100
AcDbLine
 10
-38.93219920447576
 20
43.86929036217943
 11
-9.048779583885363
 21
41.22708829199013
  0
LINE
  5
C0
100
AcDbEntity
  8
papier
  6
ByLayer
 62
  256
370
   -1
100
AcDbLine
 10
-9.048779583885363
 20
41.22708829199013
 11
-5.392468404557617
 21
10.78914315667867
  0
LINE
  5
C1
100
AcDbEntity
  8
papier
  6
ByLayer
 62
  256
370
   -1
100
AcDbLine
 10
-5.392468404557617
 20
10.78914315667867
 11
-405.7770155505841
 21
46.18994041390147
  0
LINE
  5
C2
100
AcDbEntity
  8
papier
  6
ByLayer
 62
  256
370
   -1
100
AcDbLine
 10
-405.7770155505841
 20
46.18994041390147
 11
-403.5099185756786
 21
76.10415561848869
  0
LINE
  5
C3
100
AcDbEntity
  8
forme générale
  6
ByLayer
 62
  256
370
   -1
100
AcDbLine
 10
-50.00000000000001
 20
136.006172826506
 11
-49.2136064767499
 21
135.3884469758325
  0
LINE
  5
C4
100
AcDbEntity
  8
papier
  6
ByLayer
 62
  256
370
   -1
100
AcDbLine
 10
-50.00000000000023
 20
136.0061728265059
 11
-17.35347496504646
 21
110.3617570823342
  0
LINE
  5
C5
100
AcDbEntity
  8
papier
  6
ByLayer
 62
  256
370
   -1
100
AcDbLine
 10
-17.35347496504646
 20
110.3617570823342
 11
-9.048779583885334
 21
41.22708829199014
  0
LINE
  5
C6
100
AcDbEntity
  8
forme générale
  6
ByLayer
 62
  256
370
   -1
100
AcDbLine
 10
-46.49894535460951
 20
106.8607024369436
 11
542.0691025581089
 21
177.5615307554045
  0
LINE
  5
C7
100
AcDbEntity
  8
papier
  6
ByLayer
 62
  256
370
   -1
100
AcDbLine
 10
-17.35347496504664
 20
110.3617570823341
 11
542.0691025581089
 21
177.5615307554045
  0
LINE
  5
C8
100
AcDbEntity
  8
papier
  6
ByLayer
 62
  256
370
   -1
100
AcDbLine
 10
542.0691025581089
 20
177.5615307554045
 11
538.568047912722
 21
206.7070011449368
  0
LINE
  5
C9
100
AcDbEntity
  8
forme générale
  6
ByLayer
 62
  256
370
   -1
100
AcDbLine
 10
49.99999999999966
 20
1036.006172826515
 11
49.35791833870697
 21
1036.772809076787
  0
CIRCLE
  5
CA
100
AcDbEntity
  8
forme générale
  6
ByLayer
 62
  256
370
   -1
100
AcDbCircle
 10
427.0210037786256
 20
1189.411597263298
 40
30
  0
CIRCLE
  5
CB
100
AcDbEntity
  8
forme générale
  6
ByLayer
 62
  256
370
   -1
100
AcDbCircle
 10
59.66194134681589
 20
1145.283156896326
 40
30
  0
LINE
  5
CC
100
AcDbEntity
  8
forme générale
  6
ByLayer
 62
  256
370
   -1
100
AcDbLine
 10
59.66194134681589
 20
1145.283156896326
 11
427.021003778618
 21
1189.411597263366
  0
LINE
  5
CD
100
AcDbEntity
  8
forme générale
  6
ByLayer
 62
  256
370
   -1
100
AcDbLine
 10
56.10949814452745
 20
1174.856425139671
 11
423.4685605763295
 21
1218.984865506711
  0
LINE
  5
CE
100
AcDbEntity
  8
forme générale
  6
ByLayer
 62
  256
370
   -1
100
AcDbLine
 10
20.75907717718658
 20
1038.591567030479
 11
30.42101852400301
 21
1147.868551100293
  0
LINE
  5
CF
100
AcDbEntity
  8
forme générale
  6
ByLayer
 62
  256
370
   -1
100
AcDbLine
 10
-325.6423666384263
 20
1098.688853509902
 11
52.58539420396379
 21
1065.247095649327
  0
LINE
  5
D0
100
AcDbEntity
  8
papier
  6
ByLayer
 62
  256
370
   -1
100
AcDbLine
 10
427.0210037786262
 20
1189.411597263299
 11
423.6615038854342
 21
1219.008042523915
  0
LINE
  5
D1
100
AcDbEntity
  8
papier
  6
ByLayer
 62
  256
370
   -1
100
AcDbLine
 10
423.6615038854342
 20
1219.008042523915
 11
32.55705554682103
 21
1172.027224325103
  0
LINE
  5
D2
100
AcDbEntity
  8
papier
  6
ByLayer
 62
  256
370
   -1
100
AcDbLine
 10
32.55705554682103
 20
1172.027224325103
 11
23.34447138115088
 21
1067.832489853291
  0
LINE
  5
D3
100
AcDbEntity
  8
papier
  6
ByLayer
 62
  256
370
   -1
100
AcDbLine
 10
23.34447138115088
 20
1067.832489853291
 11
-326.0092321141391
 21
1098.72129064878
  0
LINE
  5
D4
100
AcDbEntity
  8
papier
  6
ByLayer
 62
  256
370
   -1
100
AcDbLine
 10
-326.0092321141391
 20
1098.72129064878
 11
-328.2277608423926
 21
1069.447930687062
  0
LINE
  5
D5
100
AcDbEntity
  8
papier
  6
ByLayer
 62
  256
370
   -1
100
AcDbLine
 10
59.66194134681544
 20
1145.283156896329
 11
29.87607141991093
 21
1141.705175244944
  0
ENDSEC
  0
SECTION
  2
OBJECTS
  0
DICTIONARY
  5
C
330
0
100
AcDbDictionary
281
    1
  3
ACAD_GROUP
350
D
  0
DICTIONARY
  5
D
330
C
100
AcDbDictionary
281
    1
  0
PLOTSETTINGS
  5
D6
100
AcDbPlotSettings
  6
1x1
 40
0
 41
0
 42
0
 43
0
  0
ENDSEC
  0
EOF
