999
dxfrw 0.6.3
  0
SECTION
  2
HEADER
  9
$ACADVER
  1
AC1021
  9
$DWGCODEPAGE
  3
ANSI_1252
  9
$INSBASE
 10
0
 20
0
 30
0
  9
$EXTMIN
 10
-427.7216611886672
 20
70.73296039990055
 30
0
  9
$EXTMAX
 10
547.9724347580834
 20
1282.496824544967
 30
0
  9
$LIMMIN
 10
0
 20
0
  9
$LIMMAX
 10
420
 20
297
  9
$ORTHOMODE
 70
    0
  9
$REGENMODE
 70
    1
  9
$FILLMODE
 70
    1
  9
$QTEXTMODE
 70
    0
  9
$MIRRTEXT
 70
    0
  9
$LTSCALE
 40
1
  9
$ATTMODE
 70
    0
  9
$TEXTSIZE
 40
2.5
  9
$TRACEWID
 40
15.68
  9
$TEXTSTYLE
  7
STANDARD
  9
$CLAYER
  8
bordure
  9
$CELTYPE
  6
BYLAYER
  9
$CECOLOR
 62
  256
  9
$CELTSCALE
 40
1
  9
$DISPSILH
 70
    0
  9
$DIMSCALE
 40
2.5
  9
$DIMASZ
 40
2.5
  9
$DIMEXO
 40
0.625
  9
$DIMDLI
 40
3.75
  9
$DIMRND
 40
0
  9
$DIMDLE
 40
0
  9
$DIMEXE
 40
1.25
  9
$DIMTP
 40
0
  9
$DIMTM
 40
0
  9
$DIMTXT
 40
2.5
  9
$DIMCEN
 40
2.5
  9
$DIMTSZ
 40
0
  9
$DIMTOL
 70
    0
  9
$DIMLIM
 70
    0
  9
$DIMTIH
 70
    0
  9
$DIMTOH
 70
    0
  9
$DIMSE1
 70
    0
  9
$DIMSE2
 70
    0
  9
$DIMTAD
 70
    1
  9
$DIMZIN
 70
    1
  9
$DIMBLK
  1

  9
$DIMASO
 70
    1
  9
$DIMSHO
 70
    1
  9
$DIMPOST
  1

  9
$DIMAPOST
  1

  9
$DIMALT
 70
    0
  9
$DIMALTD
 70
    3
  9
$DIMALTF
 40
0.03937
  9
$DIMLFAC
 40
1
  9
$DIMTOFL
 70
    1
  9
$DIMTVP
 40
0
  9
$DIMTIX
 70
    0
  9
$DIMSOXD
 70
    0
  9
$DIMSAH
 70
    0
  9
$DIMBLK1
  1

  9
$DIMBLK2
  1

  9
$DIMSTYLE
  2
STANDARD
  9
$DIMCLRD
 70
    0
  9
$DIMCLRE
 70
    0
  9
$DIMCLRT
 70
    0
  9
$DIMTFAC
 40
1
  9
$DIMGAP
 40
0.625
  9
$DIMJUST
 70
    0
  9
$DIMSD1
 70
    0
  9
$DIMSD2
 70
    0
  9
$DIMTOLJ
 70
    0
  9
$DIMTZIN
 70
    8
  9
$DIMALTZ
 70
    0
  9
$DIMALTTZ
 70
    0
  9
$DIMUPT
 70
    0
  9
$DIMDEC
 70
    4
  9
$DIMTDEC
 70
    2
  9
$DIMALTU
 70
    2
  9
$DIMALTTD
 70
    3
  9
$DIMTXSTY
  7
STANDARD
  9
$DIMAUNIT
 70
    0
  9
$DIMADEC
 70
    2
  9
$DIMALTRND
 40
0
  9
$DIMAZIN
 70
    0
  9
$DIMDSEP
 70
    0
  9
$DIMATFIT
 70
    3
  9
$DIMFRAC
 70
    0
  9
$DIMLDRBLK
  1
STANDARD
  9
$DIMLUNIT
 70
    2
  9
$DIMLWD
 70
   -2
  9
$DIMLWE
 70
   -2
  9
$DIMTMOVE
 70
    0
  9
$DIMFXL
 40
1
  9
$DIMFXLON
 70
    0
  9
$DIMJOGANG
 40
0.7854
  9
$DIMTFILL
 70
    0
  9
$DIMTFILLCLR
 70
    0
  9
$DIMARCSYM
 70
    0
  9
$DIMLTYPE
  6

  9
$DIMLTEX1
  6

  9
$DIMLTEX2
  6

  9
$LUNITS
 70
    2
  9
$LUPREC
 70
    4
  9
$SKETCHINC
 40
1
  9
$FILLETRAD
 40
0
  9
$AUNITS
 70
    0
  9
$AUPREC
 70
    2
  9
$MENU
  1
.
  9
$ELEVATION
 40
0
  9
$PELEVATION
 40
0
  9
$THICKNESS
 40
0
  9
$LIMCHECK
 70
    0
  9
$CHAMFERA
 40
0
  9
$CHAMFERB
 40
0
  9
$CHAMFERC
 40
0
  9
$CHAMFERD
 40
0
  9
$SKPOLY
 70
    0
  9
$USRTIMER
 70
    1
  9
$ANGBASE
 50
0
  9
$ANGDIR
 70
    0
  9
$PDMODE
 70
   34
  9
$PDSIZE
 40
0
  9
$PLINEWID
 40
0
  9
$SPLFRAME
 70
    0
  9
$SPLINETYPE
 70
    2
  9
$SPLINESEGS
 70
    8
  9
$HANDSEED
  5
20000
  9
$SURFTAB1
 70
    6
  9
$SURFTAB2
 70
    6
  9
$SURFTYPE
 70
    6
  9
$SURFU
 70
    6
  9
$SURFV
 70
    6
  9
$UCSBASE
  2

  9
$UCSNAME
  2

  9
$UCSORG
 10
0
 20
0
 30
0
  9
$UCSXDIR
 10
1
 20
0
 30
0
  9
$UCSYDIR
 10
0
 20
1
 30
0
  9
$UCSORTHOREF
  2

  9
$UCSORTHOVIEW
 70
    0
  9
$UCSORGTOP
 10
0
 20
0
 30
0
  9
$UCSORGBOTTOM
 10
0
 20
0
 30
0
  9
$UCSORGLEFT
 10
0
 20
0
 30
0
  9
$UCSORGRIGHT
 10
0
 20
0
 30
0
  9
$UCSORGFRONT
 10
0
 20
0
 30
0
  9
$UCSORGBACK
 10
0
 20
0
 30
0
  9
$PUCSBASE
  2

  9
$PUCSNAME
  2

  9
$PUCSORG
 10
0
 20
0
 30
0
  9
$PUCSXDIR
 10
1
 20
0
 30
0
  9
$PUCSYDIR
 10
0
 20
1
 30
0
  9
$PUCSORTHOREF
  2

  9
$PUCSORTHOVIEW
 70
    0
  9
$PUCSORGTOP
 10
0
 20
0
 30
0
  9
$PUCSORGBOTTOM
 10
0
 20
0
 30
0
  9
$PUCSORGLEFT
 10
0
 20
0
 30
0
  9
$PUCSORGRIGHT
 10
0
 20
0
 30
0
  9
$PUCSORGFRONT
 10
0
 20
0
 30
0
  9
$PUCSORGBACK
 10
0
 20
0
 30
0
  9
$USERI1
 70
    0
  9
$USERI2
 70
    0
  9
$USERI3
 70
    0
  9
$USERI4
 70
    0
  9
$USERI5
 70
    0
  9
$USERR1
 40
0
  9
$USERR2
 40
0
  9
$USERR3
 40
0
  9
$USERR4
 40
0
  9
$USERR5
 40
0
  9
$WORLDVIEW
 70
    1
  9
$SHADEDGE
 70
    3
  9
$SHADEDIF
 70
   70
  9
$TILEMODE
 70
    1
  9
$MAXACTVP
 70
   64
  9
$PINSBASE
 10
527.3133684523232
 20
-45.15054887785311
 30
0
  9
$PLIMCHECK
 70
    0
  9
$PEXTMIN
 10
0
 20
0
 30
0
  9
$PEXTMAX
 10
0
 20
0
 30
0
  9
$GRIDMODE
 70
    1
  9
$PLIMMIN
 10
0
 20
0
  9
$PLIMMAX
 10
297
 20
210
  9
$UNITMODE
 70
    0
  9
$VISRETAIN
 70
    1
  9
$PLINEGEN
 70
    0
  9
$PSLTSCALE
 70
    1
  9
$TREEDEPTH
 70
 3020
  9
$CMLSTYLE
  2
Standard
  9
$CMLJUST
 70
    0
  9
$CMLSCALE
 40
20
  9
$PROXYGRAPHICS
 70
    1
  9
$MEASUREMENT
 70
    1
  9
$CELWEIGHT
370
   -1
  9
$ENDCAPS
280
    0
  9
$JOINSTYLE
280
    0
  9
$LWDISPLAY
290
    0
  9
$INSUNITS
 70
    4
  9
$HYPERLINKBASE
  1

  9
$STYLESHEET
  1

  9
$XEDIT
290
    1
  9
$CEPSNTYPE
380
    0
  9
$PSTYLEMODE
290
    1
  9
$EXTNAMES
290
    1
  9
$PSVPSCALE
 40
0
  9
$OLESTARTUP
290
    0
  9
$SORTENTS
280
  127
  9
$INDEXCTL
280
    0
  9
$HIDETEXT
280
    1
  9
$XCLIPFRAME
290
    0
  9
$HALOGAP
280
    0
  9
$OBSCOLOR
 70
  257
  9
$OBSLTYPE
280
    0
  9
$INTERSECTIONDISPLAY
280
    0
  9
$INTERSECTIONCOLOR
 70
  257
  9
$DIMASSOC
280
    1
  9
$PROJECTNAME
  1

  9
$CAMERADISPLAY
290
    0
  9
$LENSLENGTH
 40
50
  9
$CAMERAHEIGHT
 40
0
  9
$STEPSPERSEC
 40
2
  9
$STEPSIZE
 40
50
  9
$3DDWFPREC
 40
2
  9
$PSOLWIDTH
 40
5
  9
$PSOLHEIGHT
 40
80
  9
$LOFTANG1
 40
1.570796326794897
  9
$LOFTANG2
 40
1.570796326794897
  9
$LOFTMAG1
 40
0
  9
$LOFTMAG2
 40
0
  9
$LOFTPARAM
 70
    7
  9
$LOFTNORMALS
280
    1
  9
$LATITUDE
 40
1
  9
$LONGITUDE
 40
1
  9
$NORTHDIRECTION
 40
0
  9
$TIMEZONE
 70
-8000
  9
$LIGHTGLYPHDISPLAY
280
    1
  9
$TILEMODELIGHTSYNCH
280
    1
  9
$SOLIDHIST
280
    1
  9
$SHOWHIST
280
    1
  9
$DWFFRAME
280
    2
  9
$DGNFRAME
280
    0
  9
$REALWORLDSCALE
290
    1
  9
$INTERFERECOLOR
 62
    1
  9
$CSHADOW
280
    0
  9
$SHADOWPLANELOCATION
 40
0
  0
ENDSEC
  0
SECTION
  2
CLASSES
  0
ENDSEC
  0
SECTION
  2
TABLES
  0
TABLE
  2
VPORT
  5
8
330
0
100
AcDbSymbolTable
 70
    1
  0
VPORT
  5
31
330
2
100
AcDbSymbolTableRecord
100
AcDbViewportTableRecord
  2
*ACTIVE
 70
    0
 10
0
 20
0
 11
1
 21
1
 12
1195.196977192501
 22
1287.847905657036
 13
0
 23
0
 14
10
 24
10
 15
10
 25
10
 16
0
 26
0
 36
1
 17
0
 27
0
 37
0
 40
2849.942559569096
 41
1.892067620286086
 42
50
 43
0
 44
0
 50
0
 51
0
 71
    0
 72
  100
 73
    1
 74
    3
 75
    0
 76
    1
 77
    0
 78
    0
281
    0
 65
    1
110
0
120
0
130
0
111
1
121
0
131
0
112
0
122
1
132
0
 79
    0
146
0
348
10020
 60
    7
 61
    5
292
1
282
    1
141
0
142
0
 63
  250
421
3358443
  0
ENDTAB
  0
TABLE
  2
LTYPE
  5
5
330
0
100
AcDbSymbolTable
 70
    4
  0
LTYPE
  5
14
330
5
100
AcDbSymbolTableRecord
100
AcDbLinetypeTableRecord
  2
ByBlock
 70
    0
  3

 72
   65
 73
    0
 40
0
  0
LTYPE
  5
15
330
5
100
AcDbSymbolTableRecord
100
AcDbLinetypeTableRecord
  2
ByLayer
 70
    0
  3

 72
   65
 73
    0
 40
0
  0
LTYPE
  5
16
330
5
100
AcDbSymbolTableRecord
100
AcDbLinetypeTableRecord
  2
Continuous
 70
    0
  3
Solid line
 72
   65
 73
    0
 40
0
  0
LTYPE
  5
32
330
5
100
AcDbSymbolTableRecord
100
AcDbLinetypeTableRecord
  2
DOT
 70
    0
  3
Dot . . . . . . . . . . . . . . . . . . . . . .
 72
   65
 73
    2
 40
6.35
 49
0
 74
    0
 49
-6.35
 74
    0
  0
LTYPE
  5
33
330
5
100
AcDbSymbolTableRecord
100
AcDbLinetypeTableRecord
  2
DOTTINY
 70
    0
  3
Dot (.15x) .....................................
 72
   65
 73
    2
 40
0.9525
 49
0
 74
    0
 49
-0.9525
 74
    0
  0
LTYPE
  5
34
330
5
100
AcDbSymbolTableRecord
100
AcDbLinetypeTableRecord
  2
DOT2
 70
    0
  3
Dot (.5x) .....................................
 72
   65
 73
    2
 40
3.175
 49
0
 74
    0
 49
-3.175
 74
    0
  0
LTYPE
  5
35
330
5
100
AcDbSymbolTableRecord
100
AcDbLinetypeTableRecord
  2
DOTX2
 70
    0
  3
Dot (2x) .  .  .  .  .  .  .  .  .  .  .  .  .
 72
   65
 73
    2
 40
12.7
 49
0
 74
    0
 49
-12.7
 74
    0
  0
LTYPE
  5
36
330
5
100
AcDbSymbolTableRecord
100
AcDbLinetypeTableRecord
  2
DASHED
 70
    0
  3
Dashed _ _ _ _ _ _ _ _ _ _ _ _ _ _ _ _ _
 72
   65
 73
    2
 40
19.05
 49
12.7
 74
    0
 49
-6.35
 74
    0
  0
LTYPE
  5
37
330
5
100
AcDbSymbolTableRecord
100
AcDbLinetypeTableRecord
  2
DASHEDTINY
 70
    0
  3
Dashed (.15x) _ _ _ _ _ _ _ _ _ _ _ _ _ _ _ _ _
 72
   65
 73
    2
 40
2.8575
 49
1.905
 74
    0
 49
-0.9525
 74
    0
  0
LTYPE
  5
38
330
5
100
AcDbSymbolTableRecord
100
AcDbLinetypeTableRecord
  2
DASHED2
 70
    0
  3
Dashed (.5x) _ _ _ _ _ _ _ _ _ _ _ _ _ _ _ _ _
 72
   65
 73
    2
 40
9.524999999999999
 49
6.35
 74
    0
 49
-3.175
 74
    0
  0
LTYPE
  5
39
330
5
100
AcDbSymbolTableRecord
100
AcDbLinetypeTableRecord
  2
DASHEDX2
 70
    0
  3
Dashed (2x) ____  ____  ____  ____  ____  ___
 72
   65
 73
    2
 40
38.09999999999999
 49
25.4
 74
    0
 49
-12.7
 74
    0
  0
LTYPE
  5
3A
330
5
100
AcDbSymbolTableRecord
100
AcDbLinetypeTableRecord
  2
DASHDOT
 70
    0
  3
Dash dot __ . __ . __ . __ . __ . __ . __ . __
 72
   65
 73
    4
 40
25.4
 49
12.7
 74
    0
 49
-6.35
 74
    0
 49
0
 74
    0
 49
-6.35
 74
    0
  0
LTYPE
  5
3B
330
5
100
AcDbSymbolTableRecord
100
AcDbLinetypeTableRecord
  2
DASHDOTTINY
 70
    0
  3
Dash dot (.15x) _._._._._._._._._._._._._._._.
 72
   65
 73
    4
 40
3.81
 49
1.905
 74
    0
 49
-0.9525
 74
    0
 49
0
 74
    0
 49
-0.9525
 74
    0
  0
LTYPE
  5
3C
330
5
100
AcDbSymbolTableRecord
100
AcDbLinetypeTableRecord
  2
DASHDOT2
 70
    0
  3
Dash dot (.5x) _._._._._._._._._._._._._._._.
 72
   65
 73
    4
 40
12.7
 49
6.35
 74
    0
 49
-3.175
 74
    0
 49
0
 74
    0
 49
-3.175
 74
    0
  0
LTYPE
  5
3D
330
5
100
AcDbSymbolTableRecord
100
AcDbLinetypeTableRecord
  2
DASHDOTX2
 70
    0
  3
Dash dot (2x) ____  .  ____  .  ____  .  ___
 72
   65
 73
    4
 40
50.8
 49
25.4
 74
    0
 49
-12.7
 74
    0
 49
0
 74
    0
 49
-12.7
 74
    0
  0
LTYPE
  5
3E
330
5
100
AcDbSymbolTableRecord
100
AcDbLinetypeTableRecord
  2
DIVIDE
 70
    0
  3
Divide ____ . . ____ . . ____ . . ____ . . ____
 72
   65
 73
    6
 40
31.75
 49
12.7
 74
    0
 49
-6.35
 74
    0
 49
0
 74
    0
 49
-6.35
 74
    0
 49
0
 74
    0
 49
-6.35
 74
    0
  0
LTYPE
  5
3F
330
5
100
AcDbSymbolTableRecord
100
AcDbLinetypeTableRecord
  2
DIVIDETINY
 70
    0
  3
Divide (.15x) __..__..__..__..__..__..__..__.._
 72
   65
 73
    6
 40
4.7625
 49
1.905
 74
    0
 49
-0.9525
 74
    0
 49
0
 74
    0
 49
-0.9525
 74
    0
 49
0
 74
    0
 49
-0.9525
 74
    0
  0
LTYPE
  5
40
330
5
100
AcDbSymbolTableRecord
100
AcDbLinetypeTableRecord
  2
DIVIDE2
 70
    0
  3
Divide (.5x) __..__..__..__..__..__..__..__.._
 72
   65
 73
    6
 40
15.875
 49
6.35
 74
    0
 49
-3.175
 74
    0
 49
0
 74
    0
 49
-3.175
 74
    0
 49
0
 74
    0
 49
-3.175
 74
    0
  0
LTYPE
  5
41
330
5
100
AcDbSymbolTableRecord
100
AcDbLinetypeTableRecord
  2
DIVIDEX2
 70
    0
  3
Divide (2x) ________  .  .  ________  .  .  _
 72
   65
 73
    6
 40
63.5
 49
25.4
 74
    0
 49
-12.7
 74
    0
 49
0
 74
    0
 49
-12.7
 74
    0
 49
0
 74
    0
 49
-12.7
 74
    0
  0
LTYPE
  5
42
330
5
100
AcDbSymbolTableRecord
100
AcDbLinetypeTableRecord
  2
BORDER
 70
    0
  3
Border __ __ . __ __ . __ __ . __ __ . __ __ .
 72
   65
 73
    6
 40
44.45
 49
12.7
 74
    0
 49
-6.35
 74
    0
 49
12.7
 74
    0
 49
-6.35
 74
    0
 49
0
 74
    0
 49
-6.35
 74
    0
  0
LTYPE
  5
43
330
5
100
AcDbSymbolTableRecord
100
AcDbLinetypeTableRecord
  2
BORDERTINY
 70
    0
  3
Border (.15x) __.__.__.__.__.__.__.__.__.__.__.
 72
   65
 73
    6
 40
6.6675
 49
1.905
 74
    0
 49
-0.9525
 74
    0
 49
1.905
 74
    0
 49
-0.9525
 74
    0
 49
0
 74
    0
 49
-0.9525
 74
    0
  0
LTYPE
  5
44
330
5
100
AcDbSymbolTableRecord
100
AcDbLinetypeTableRecord
  2
BORDER2
 70
    0
  3
Border (.5x) __.__.__.__.__.__.__.__.__.__.__.
 72
   65
 73
    6
 40
22.225
 49
6.35
 74
    0
 49
-3.175
 74
    0
 49
6.35
 74
    0
 49
-3.175
 74
    0
 49
0
 74
    0
 49
-3.175
 74
    0
  0
LTYPE
  5
45
330
5
100
AcDbSymbolTableRecord
100
AcDbLinetypeTableRecord
  2
BORDERX2
 70
    0
  3
Border (2x) ____  ____  .  ____  ____  .  ___
 72
   65
 73
    6
 40
88.89999999999999
 49
25.4
 74
    0
 49
-12.7
 74
    0
 49
25.4
 74
    0
 49
-12.7
 74
    0
 49
0
 74
    0
 49
-12.7
 74
    0
  0
LTYPE
  5
46
330
5
100
AcDbSymbolTableRecord
100
AcDbLinetypeTableRecord
  2
CENTER
 70
    0
  3
Center ____ _ ____ _ ____ _ ____ _ ____ _ ____
 72
   65
 73
    4
 40
50.8
 49
31.75
 74
    0
 49
-6.35
 74
    0
 49
6.35
 74
    0
 49
-6.35
 74
    0
  0
LTYPE
  5
47
330
5
100
AcDbSymbolTableRecord
100
AcDbLinetypeTableRecord
  2
CENTERTINY
 70
    0
  3
Center (.15x) ___ _ ___ _ ___ _ ___ _ ___ _ ___
 72
   65
 73
    4
 40
7.619999999999999
 49
4.7625
 74
    0
 49
-0.9525
 74
    0
 49
0.9525
 74
    0
 49
-0.9525
 74
    0
  0
LTYPE
  5
48
330
5
100
AcDbSymbolTableRecord
100
AcDbLinetypeTableRecord
  2
CENTER2
 70
    0
  3
Center (.5x) ___ _ ___ _ ___ _ ___ _ ___ _ ___
 72
   65
 73
    4
 40
28.575
 49
19.05
 74
    0
 49
-3.175
 74
    0
 49
3.175
 74
    0
 49
-3.175
 74
    0
  0
LTYPE
  5
49
330
5
100
AcDbSymbolTableRecord
100
AcDbLinetypeTableRecord
  2
CENTERX2
 70
    0
  3
Center (2x) ________  __  ________  __  _____
 72
   65
 73
    4
 40
101.6
 49
63.5
 74
    0
 49
-12.7
 74
    0
 49
12.7
 74
    0
 49
-12.7
 74
    0
  0
ENDTAB
  0
TABLE
  2
LAYER
  5
2
330
0
100
AcDbSymbolTable
 70
    1
  0
LAYER
  5
10
330
2
100
AcDbSymbolTableRecord
100
AcDbLayerTableRecord
  2
0
 70
    1
 62
  216
420
8388736
  6
CONTINUOUS
370
    0
390
F
1001
LibreCad
1070
    1
  0
LAYER
  5
4A
330
2
100
AcDbSymbolTableRecord
100
AcDbLayerTableRecord
  2
bordure
 70
    0
 62
  136
420
32896
  6
CONTINUOUS
370
    0
390
F
1001
LibreCad
1070
    1
  0
LAYER
  5
4B
330
2
100
AcDbSymbolTableRecord
100
AcDbLayerTableRecord
  2
mesures
 70
    1
 62
    6
  6
CONTINUOUS
370
   50
390
F
  0
LAYER
  5
4C
330
2
100
AcDbSymbolTableRecord
100
AcDbLayerTableRecord
  2
papier
 70
    0
 62
    7
  6
CONTINUOUS
370
    0
390
F
  0
LAYER
  5
4D
330
2
100
AcDbSymbolTableRecord
100
AcDbLayerTableRecord
  2
plis
 70
    1
 62
   56
420
8421376
  6
CONTINUOUS
370
    0
390
F
1001
LibreCad
1070
    1
  0
ENDTAB
  0
TABLE
  2
STYLE
  5
3
330
0
100
AcDbSymbolTable
 70
    3
  0
STYLE
  5
4E
330
2
100
AcDbSymbolTableRecord
100
AcDbTextStyleTableRecord
  2
Standard
 70
    0
 40
0
 41
1
 50
0
 71
    0
 42
1
  3
txt
  4

  0
ENDTAB
  0
TABLE
  2
VIEW
  5
6
330
0
100
AcDbSymbolTable
 70
    0
  0
ENDTAB
  0
TABLE
  2
UCS
  5
7
330
0
100
AcDbSymbolTable
 70
    0
  0
ENDTAB
  0
TABLE
  2
APPID
  5
9
330
0
100
AcDbSymbolTable
 70
    1
  0
APPID
  5
12
330
9
100
AcDbSymbolTableRecord
100
AcDbRegAppTableRecord
  2
ACAD
 70
    0
  0
APPID
  5
4F
330
9
100
AcDbSymbolTableRecord
100
AcDbRegAppTableRecord
  2
LibreCad
 70
    0
  0
ENDTAB
  0
TABLE
  2
DIMSTYLE
  5
A
330
0
100
AcDbSymbolTable
 70
    1
100
AcDbDimStyleTable
 71
    1
  0
DIMSTYLE
105
50
330
A
100
AcDbSymbolTableRecord
100
AcDbDimStyleTableRecord
  2
Standard
 70
    0
 40
1
 41
2.5
 42
0.625
 43
0.38
 44
1.25
 45
0
 46
0
 47
0
 48
0
 49
1
140
5
141
0.09
142
0
143
25.4
144
1
145
0
146
1
147
0.625
148
0
 71
    0
 72
    0
 73
    0
 74
    1
 75
    0
 76
    0
 77
    0
 78
    1
 79
    0
170
    0
171
    2
172
    0
173
    0
174
    0
175
    0
176
    0
177
    0
178
    0
179
    2
271
    4
272
    4
273
    2
274
    2
275
    0
276
    0
277
    2
278
    0
279
    0
280
    0
281
    0
282
    0
283
    1
284
    0
285
    0
286
    0
288
    0
289
    3
340
standard
341

371
   -2
372
   -2
  0
ENDTAB
  0
TABLE
  2
BLOCK_RECORD
  5
1
330
0
100
AcDbSymbolTable
 70
    2
  0
BLOCK_RECORD
  5
1F
330
1
100
AcDbSymbolTableRecord
100
AcDbBlockTableRecord
  2
*Model_Space
 70
    0
280
    1
281
    0
  0
BLOCK_RECORD
  5
1E
330
1
100
AcDbSymbolTableRecord
100
AcDbBlockTableRecord
  2
*Paper_Space
 70
    0
280
    1
281
    0
  0
ENDTAB
  0
ENDSEC
  0
SECTION
  2
BLOCKS
  0
BLOCK
  5
20
330
1F
100
AcDbEntity
  8
0
100
AcDbBlockBegin
  2
*Model_Space
 70
    0
 10
0
 20
0
 30
0
  3
*Model_Space
  1

  0
ENDBLK
  5
21
330
1F
100
AcDbEntity
  8
0
100
AcDbBlockEnd
  0
BLOCK
  5
1C
330
1B
100
AcDbEntity
  8
0
100
AcDbBlockBegin
  2
*Paper_Space
 70
    0
 10
0
 20
0
 30
0
  3
*Paper_Space
  1

  0
ENDBLK
  5
1D
330
1F
100
AcDbEntity
  8
0
100
AcDbBlockEnd
  0
ENDSEC
  0
SECTION
  2
ENTITIES
  0
LINE
  5
51
100
AcDbEntity
  8
0
  6
ByLayer
 62
  256
370
   -1
100
AcDbLine
 10
0
 20
0
 11
6.123233995736766e-17
 21
1
  0
LINE
  5
52
100
AcDbEntity
  8
0
  6
ByLayer
 62
  256
370
   -1
100
AcDbLine
 10
50
 20
0
 11
50
 21
1
  0
LINE
  5
53
100
AcDbEntity
  8
0
  6
ByLayer
 62
  256
370
   -1
100
AcDbLine
 10
-50
 20
0
 11
-50
 21
1
  0
LINE
  5
54
100
AcDbEntity
  8
0
  6
ByLayer
 62
  256
370
   -1
100
AcDbLine
 10
-50
 20
0
 11
657.1067811865476
 21
707.1067811865474
  0
LINE
  5
55
100
AcDbEntity
  8
0
  6
ByLayer
 62
  256
370
   -1
100
AcDbLine
 10
50
 20
99.99999999999999
 11
757.1067811865476
 21
-607.1067811865474
  0
LINE
  5
56
100
AcDbEntity
  8
0
  6
ByLayer
 62
  256
370
   -1
100
AcDbLine
 10
-50
 20
200.0000000000001
 11
657.1067811865476
 21
907.1067811865476
  0
LINE
  5
57
100
AcDbEntity
  8
0
  6
ByLayer
 62
  256
370
   -1
100
AcDbLine
 10
50
 20
299.9999999999999
 11
757.1067811865476
 21
-407.1067811865475
  0
LINE
  5
58
100
AcDbEntity
  8
0
  6
ByLayer
 62
  256
370
   -1
100
AcDbLine
 10
-50
 20
399.9999999999999
 11
657.1067811865476
 21
1107.106781186547
  0
LINE
  5
59
100
AcDbEntity
  8
0
  6
ByLayer
 62
  256
370
   -1
100
AcDbLine
 10
50
 20
500.0000000000001
 11
757.1067811865476
 21
-207.1067811865474
  0
LINE
  5
5A
100
AcDbEntity
  8
0
  6
ByLayer
 62
  256
370
   -1
100
AcDbLine
 10
-50
 20
600.0000000000001
 11
657.1067811865476
 21
1307.106781186548
  0
LINE
  5
5B
100
AcDbEntity
  8
0
  6
ByLayer
 62
  256
370
   -1
100
AcDbLine
 10
50
 20
700.0000000000001
 11
757.1067811865476
 21
-7.106781186547323
  0
LINE
  5
5C
100
AcDbEntity
  8
0
  6
ByLayer
 62
  256
370
   -1
100
AcDbLine
 10
-50
 20
800.0000000000001
 11
657.1067811865476
 21
1507.106781186548
  0
LINE
  5
5D
100
AcDbEntity
  8
0
  6
ByLayer
 62
  256
370
   -1
100
AcDbLine
 10
50
 20
900.0000000000001
 11
757.1067811865476
 21
192.8932188134527
  0
LINE
  5
5E
100
AcDbEntity
  8
0
  6
ByLayer
 62
  256
370
   -1
100
AcDbLine
 10
-50
 20
1000
 11
657.1067811865476
 21
1707.106781186548
  0
LINE
  5
5F
100
AcDbEntity
  8
0
  6
ByLayer
 62
  256
370
   -1
100
AcDbLine
 10
50
 20
1100
 11
757.1067811865476
 21
392.8932188134528
  0
LINE
  5
60
100
AcDbEntity
  8
0
  6
ByLayer
 62
  256
370
   -1
100
AcDbLine
 10
-50
 20
1200
 11
657.1067811865476
 21
1907.106781186548
  0
LINE
  5
61
100
AcDbEntity
  8
0
  6
ByLayer
 62
  256
370
   -1
100
AcDbLine
 10
50
 20
1300
 11
757.1067811865476
 21
592.8932188134528
  0
CIRCLE
  5
62
100
AcDbEntity
  8
0
  6
ByLayer
 62
  256
370
   -1
100
AcDbCircle
 10
-50
 20
200.0000000000001
 40
366
  0
CIRCLE
  5
63
100
AcDbEntity
  8
0
  6
ByLayer
 62
  256
370
   -1
100
AcDbCircle
 10
-50
 20
200.0000000000001
 40
600
  0
LINE
  5
64
100
AcDbEntity
  8
papier
  6
ByLayer
 62
  256
370
   -1
100
AcDbLine
 10
-50
 20
199.9999999999999
 11
50
 21
299.9999999999999
  0
LINE
  5
65
100
AcDbEntity
  8
papier
  6
ByLayer
 62
  256
370
   -1
100
AcDbLine
 10
50
 20
299.9999999999999
 11
-50.00000000000006
 21
400
  0
LINE
  5
66
100
AcDbEntity
  8
papier
  6
ByLayer
 62
  256
370
   -1
100
AcDbLine
 10
-50.00000000000006
 20
400
 11
50.00000000000006
 21
500.0000000000001
  0
LINE
  5
67
100
AcDbEntity
  8
papier
  6
ByLayer
 62
  256
370
   -1
100
AcDbLine
 10
50.00000000000006
 20
500.0000000000001
 11
-50
 21
600.0000000000001
  0
LINE
  5
68
100
AcDbEntity
  8
papier
  6
ByLayer
 62
  256
370
   -1
100
AcDbLine
 10
-50
 20
600.0000000000001
 11
50
 21
700.0000000000001
  0
LINE
  5
69
100
AcDbEntity
  8
papier
  6
ByLayer
 62
  256
370
   -1
100
AcDbLine
 10
50
 20
700.0000000000001
 11
-50.00000000000009
 21
800
  0
LINE
  5
6A
100
AcDbEntity
  8
papier
  6
ByLayer
 62
  256
370
   -1
100
AcDbLine
 10
-50.00000000000009
 20
800
 11
50
 21
900.0000000000001
  0
LINE
  5
6B
100
AcDbEntity
  8
papier
  6
ByLayer
 62
  256
370
   -1
100
AcDbLine
 10
50
 20
900.0000000000001
 11
-50
 21
1000
  0
LINE
  5
6C
100
AcDbEntity
  8
papier
  6
ByLayer
 62
  256
370
   -1
100
AcDbLine
 10
-50
 20
1000
 11
50
 21
1100
  0
CIRCLE
  5
6D
100
AcDbEntity
  8
0
  6
ByLayer
 62
  256
370
   -1
100
AcDbCircle
 10
50
 20
1100
 40
370
  0
LINE
  5
6E
100
AcDbEntity
  8
0
  6
ByLayer
 62
  256
370
   -1
100
AcDbLine
 10
416.0555321684205
 20
1153.882718647953
 11
543.6035656785198
 21
287.3773815912753
  0
LINE
  5
6F
100
AcDbEntity
  8
0
  6
ByLayer
 62
  256
370
   -1
100
AcDbLine
 10
-317.9138819387445
 20
1139.234875770972
 11
-413.9364345664337
 21
238.8107149518261
  0
LINE
  5
70
100
AcDbEntity
  8
0
  6
ByLayer
 62
  256
370
   -1
100
AcDbLine
 10
40.05638156922312
 20
1101.060402047864
 11
59.94361843077688
 21
1098.939597952136
  0
LINE
  5
71
100
AcDbEntity
  8
0
  6
ByLayer
 62
  256
370
   -1
100
AcDbLine
 10
-59.94361843077688
 20
201.060402047864
 11
-40.05638156922312
 21
198.9395979521358
  0
LINE
  5
72
100
AcDbEntity
  8
0
  6
ByLayer
 62
  256
370
   -1
100
AcDbLine
 10
40.10660723869134
 20
1098.543710306812
 11
59.89339276130866
 21
1101.456289693188
  0
LINE
  5
73
100
AcDbEntity
  8
0
  6
ByLayer
 62
  256
370
   -1
100
AcDbLine
 10
-59.89339276130866
 20
198.5437103068121
 11
-40.10660723869134
 21
201.456289693188
  0
LINE
  5
74
100
AcDbEntity
  8
papier
  6
ByLayer
 62
  256
370
   -1
100
AcDbLine
 10
416.0555321684201
 20
1153.882718647954
 11
50
 21
1100
  0
LINE
  5
75
100
AcDbEntity
  8
papier
  6
ByLayer
 62
  256
370
   -1
100
AcDbLine
 10
50
 20
1100
 11
-317.9138819387447
 21
1139.23487577097
  0
LINE
  5
76
100
AcDbEntity
  8
papier
  6
ByLayer
 62
  256
370
   -1
100
AcDbLine
 10
-317.9138819387447
 20
1139.23487577097
 11
-413.9364345664337
 21
238.810714951826
  0
LINE
  5
77
100
AcDbEntity
  8
papier
  6
ByLayer
 62
  256
370
   -1
100
AcDbLine
 10
-413.9364345664337
 20
238.810714951826
 11
-50.00000000000068
 21
200
  0
LINE
  5
78
100
AcDbEntity
  8
papier
  6
ByLayer
 62
  256
370
   -1
100
AcDbLine
 10
-50.00000000000068
 20
200
 11
543.6035656785197
 21
287.3773815912757
  0
LINE
  5
79
100
AcDbEntity
  8
papier
  6
ByLayer
 62
  256
370
   -1
100
AcDbLine
 10
543.6035656785197
 20
287.3773815912757
 11
416.0555321684203
 21
1153.882718647955
  0
LINE
  5
7A
100
AcDbEntity
  8
plis
  6
ByLayer
 62
  256
370
   -1
100
AcDbLine
 10
-72.1802589997771
 20
282.0152847273728
 11
-52.39347347715977
 21
284.9278641137486
  0
LINE
  5
7B
100
AcDbEntity
  8
plis
  6
ByLayer
 62
  256
370
   -1
100
AcDbLine
 10
-88.70868457921634
 20
394.3021509658414
 11
-68.92189905659902
 21
397.2147303522172
  0
LINE
  5
7C
100
AcDbEntity
  8
plis
  6
ByLayer
 62
  256
370
   -1
100
AcDbLine
 10
-100.9955508176848
 20
477.773725386402
 11
-81.20876529506745
 21
480.6863047727779
  0
LINE
  5
7D
100
AcDbEntity
  8
plis
  6
ByLayer
 62
  256
370
   -1
100
AcDbLine
 10
-117.523976397124
 20
590.0605916248705
 11
-97.73719087450668
 21
592.9731710112464
  0
LINE
  5
7E
100
AcDbEntity
  8
plis
  6
ByLayer
 62
  256
370
   -1
100
AcDbLine
 10
-129.8108426355925
 20
673.5321660454314
 11
-110.0240571129751
 21
676.4447454318072
  0
LINE
  5
7F
100
AcDbEntity
  8
plis
  6
ByLayer
 62
  256
370
   -1
100
AcDbLine
 10
-146.3392682150317
 20
785.8190322838999
 11
-126.5524826924143
 21
788.7316116702757
  0
LINE
  5
80
100
AcDbEntity
  8
plis
  6
ByLayer
 62
  256
370
   -1
100
AcDbLine
 10
-158.6261344535001
 20
869.2906067044607
 11
-138.8393489308828
 21
872.2031860908365
  0
LINE
  5
81
100
AcDbEntity
  8
plis
  6
ByLayer
 62
  256
370
   -1
100
AcDbLine
 10
-175.1545600329394
 20
981.5774729429294
 11
-155.3677745103221
 21
984.4900523293052
  0
LINE
  5
82
100
AcDbEntity
  8
plis
  6
ByLayer
 62
  256
370
   -1
100
AcDbLine
 10
38.33131414971126
 20
990.58021915594
 11
-329.5825677890334
 21
1029.81509492691
  0
LINE
  5
83
100
AcDbEntity
  8
plis
  6
ByLayer
 62
  256
370
   -1
100
AcDbLine
 10
28.91153330565104
 20
902.2489050062287
 11
-339.0023486330936
 21
941.4837807771984
  0
LINE
  5
84
100
AcDbEntity
  8
plis
  6
ByLayer
 62
  256
370
   -1
100
AcDbLine
 10
17.24284745536228
 20
792.8291241621685
 11
-350.6710344833824
 21
832.0639999331381
  0
LINE
  5
85
100
AcDbEntity
  8
plis
  6
ByLayer
 62
  256
370
   -1
100
AcDbLine
 10
7.823066611302004
 20
704.4978100124565
 11
-360.0908153274427
 21
743.7326857834262
  0
LINE
  5
86
100
AcDbEntity
  8
plis
  6
ByLayer
 62
  256
370
   -1
100
AcDbLine
 10
-3.845619238986671
 20
595.0780291683971
 11
-371.7595011777314
 21
634.3129049393667
  0
LINE
  5
87
100
AcDbEntity
  8
plis
  6
ByLayer
 62
  256
370
   -1
100
AcDbLine
 10
-13.26540008304691
 20
506.7467150186856
 11
-381.1792820217916
 21
545.9815907896552
  0
LINE
  5
88
100
AcDbEntity
  8
plis
  6
ByLayer
 62
  256
370
   -1
100
AcDbLine
 10
-24.93408593333565
 20
397.3269341746253
 11
-392.8479678720803
 21
436.561809945595
  0
LINE
  5
89
100
AcDbEntity
  8
plis
  6
ByLayer
 62
  256
370
   -1
100
AcDbLine
 10
-34.35386677739588
 20
308.995620024914
 11
-402.2677487161405
 21
348.2304957958837
  0
LINE
  5
8A
100
AcDbEntity
  8
papier
  6
ByLayer
 62
  256
370
   -1
100
AcDbLine
 10
-402.276814508199
 20
348.1454839108707
 11
50.00000000000045
 21
299.9999999999999
  0
LINE
  5
8B
100
AcDbEntity
  8
papier
  6
ByLayer
 62
  256
370
   -1
100
AcDbLine
 10
50.00000000000045
 20
299.9999999999999
 11
531.3166994400511
 21
370.8489560118362
  0
LINE
  5
8C
100
AcDbEntity
  8
papier
  6
ByLayer
 62
  256
370
   -1
100
AcDbLine
 10
514.7882738606122
 20
483.1358222503032
 11
-50
 21
400.0000000000001
  0
LINE
  5
8D
100
AcDbEntity
  8
papier
  6
ByLayer
 62
  256
370
   -1
100
AcDbLine
 10
-49.99999999999994
 20
400.0000000000001
 11
-392.847967872084
 21
436.5618099455954
  0
LINE
  5
8E
100
AcDbEntity
  8
papier
  6
ByLayer
 62
  256
370
   -1
100
AcDbLine
 10
-381.1792820217947
 20
545.9815907896555
 11
49.99999999999909
 21
500.0000000000001
  0
LINE
  5
8F
100
AcDbEntity
  8
papier
  6
ByLayer
 62
  256
370
   -1
100
AcDbLine
 10
50.00000000000034
 20
500.0000000000003
 11
502.5014076221432
 21
566.6073966708672
  0
LINE
  5
90
100
AcDbEntity
  8
papier
  6
ByLayer
 62
  256
370
   -1
100
AcDbLine
 10
485.972982042704
 20
678.8942629093358
 11
-50
 21
600.0000000000001
  0
LINE
  5
91
100
AcDbEntity
  8
papier
  6
ByLayer
 62
  256
370
   -1
100
AcDbLine
 10
-50
 20
600.0000000000001
 11
-371.759501177734
 21
634.3129049393669
  0
LINE
  5
92
100
AcDbEntity
  8
papier
  6
ByLayer
 62
  256
370
   -1
100
AcDbLine
 10
-360.0908153274447
 20
743.7326857834264
 11
49.99999999999909
 21
699.9999999999994
  0
LINE
  5
93
100
AcDbEntity
  8
papier
  6
ByLayer
 62
  256
370
   -1
100
AcDbLine
 10
49.99999999999909
 20
699.9999999999994
 11
473.686115804236
 21
762.3658373298932
  0
LINE
  5
94
100
AcDbEntity
  8
papier
  6
ByLayer
 62
  256
370
   -1
100
AcDbLine
 10
-350.671034483384
 20
832.0639999331381
 11
-49.99999999999818
 21
799.9999999999999
  0
LINE
  5
95
100
AcDbEntity
  8
papier
  6
ByLayer
 62
  256
370
   -1
100
AcDbLine
 10
-49.99999999999818
 20
799.9999999999999
 11
457.1576902247967
 21
874.6527035683617
  0
LINE
  5
96
100
AcDbEntity
  8
papier
  6
ByLayer
 62
  256
370
   -1
100
AcDbLine
 10
-339.0023486330947
 20
941.4837807771984
 11
50
 21
900.0000000000002
  0
LINE
  5
97
100
AcDbEntity
  8
papier
  6
ByLayer
 62
  256
370
   -1
100
AcDbLine
 10
50
 20
900.0000000000002
 11
444.8708239863283
 21
958.1242779889227
  0
LINE
  5
98
100
AcDbEntity
  8
papier
  6
ByLayer
 62
  256
370
   -1
100
AcDbLine
 10
-329.582567789034
 20
1029.81509492691
 11
-49.99999999999989
 21
1000
  0
LINE
  5
99
100
AcDbEntity
  8
papier
  6
ByLayer
 62
  256
370
   -1
100
AcDbLine
 10
-49.99999999999989
 20
1000
 11
428.3423984068891
 21
1070.411144227391
  0
LINE
  5
9A
100
AcDbEntity
  8
0
  6
ByLayer
 62
  256
370
   -1
100
AcDbLine
 10
-51.06040204786387
 20
190.056381569223
 11
-48.93959795213567
 21
209.9436184307768
  0
LINE
  5
9B
100
AcDbEntity
  8
plis
  6
ByLayer
 62
  256
370
   -1
100
AcDbLine
 10
-424.5404550450747
 20
139.3745306440572
 11
-60.6040204786417
 21
100.5638156922312
  0
LINE
  5
9C
100
AcDbEntity
  8
plis
  6
ByLayer
 62
  256
370
   -1
100
AcDbLine
 10
401.4926352365406
 20
1252.816646261041
 11
35.43710306812046
 21
1198.933927613087
  0
LINE
  5
9D
100
AcDbEntity
  8
plis
  6
ByLayer
 62
  256
370
   -1
100
AcDbLine
 10
48.54371030681114
 20
1109.893392761309
 11
51.45628969318704
 21
1090.106607238692
  0
LINE
  5
9E
100
AcDbEntity
  8
plis
  6
ByLayer
 62
  256
370
   -1
100
AcDbLine
 10
414.5992424752322
 20
1163.776111409263
 11
417.5118218616082
 21
1143.989325886646
  0
LINE
  5
9F
100
AcDbEntity
  8
plis
  6
ByLayer
 62
  256
370
   -1
100
AcDbLine
 10
-51.06040204786478
 20
190.0563815692231
 11
-48.93959795213658
 21
209.9436184307768
  0
LINE
  5
A0
100
AcDbEntity
  8
plis
  6
ByLayer
 62
  256
370
   -1
100
AcDbLine
 10
-414.9968366142978
 20
228.8670965210491
 11
-412.8760325185696
 21
248.7543333826029
  0
LINE
  5
A1
100
AcDbEntity
  8
papier
  6
ByLayer
 62
  256
370
   -1
100
AcDbLine
 10
-413.9364345664337
 20
238.810714951826
 11
-424.5404550450749
 21
139.3745306440572
  0
LINE
  5
A2
100
AcDbEntity
  8
papier
  6
ByLayer
 62
  256
370
   -1
100
AcDbLine
 10
-424.5404550450749
 20
139.3745306440572
 11
-60.60402047864181
 21
100.5638156922312
  0
LINE
  5
A3
100
AcDbEntity
  8
papier
  6
ByLayer
 62
  256
370
   -1
100
AcDbLine
 10
-60.60402047864181
 20
100.5638156922312
 11
-49.99999999999986
 21
200.0000000000001
  0
LINE
  5
A4
100
AcDbEntity
  8
papier
  6
ByLayer
 62
  256
370
   -1
100
AcDbLine
 10
416.0555321684205
 20
1153.882718647955
 11
401.492635236541
 21
1252.816646261041
  0
LINE
  5
A5
100
AcDbEntity
  8
papier
  6
ByLayer
 62
  256
370
   -1
100
AcDbLine
 10
401.492635236541
 20
1252.816646261041
 11
35.43710306812045
 21
1198.933927613087
  0
LINE
  5
A6
100
AcDbEntity
  8
papier
  6
ByLayer
 62
  256
370
   -1
100
AcDbLine
 10
35.43710306812045
 20
1198.933927613087
 11
50.00000000000091
 21
1100
  0
LINE
  5
A7
100
AcDbEntity
  8
bordure
  6
ByLayer
 62
  256
370
   -1
100
AcDbLine
 10
53.18120614359214
 20
1129.830855292331
 11
-314.7326757951525
 21
1169.065731063301
  0
LINE
  5
A8
100
AcDbEntity
  8
bordure
  6
ByLayer
 62
  256
370
   -1
100
AcDbLine
 10
5.756924784194517
 20
1194.565058533523
 11
20.31982171607498
 21
1095.631130920436
  0
LINE
  5
A9
100
AcDbEntity
  8
bordure
  6
ByLayer
 62
  256
370
   -1
100
AcDbLine
 10
397.1237661569771
 20
1282.496824544967
 11
31.06823398855659
 21
1228.614105897013
  0
LINE
  5
AA
100
AcDbEntity
  8
bordure
  6
ByLayer
 62
  256
370
   -1
100
AcDbLine
 10
-45.63113092043692
 20
170.319821716074
 11
547.9724347580834
 21
257.6972033073496
  0
LINE
  5
AB
100
AcDbEntity
  8
bordure
  6
ByLayer
 62
  256
370
   -1
100
AcDbLine
 10
-30.77316518631121
 20
97.3826095486386
 11
-20.16914470766925
 21
196.8187938564075
  0
LINE
  5
AC
100
AcDbEntity
  8
bordure
  6
ByLayer
 62
  256
370
   -1
100
AcDbLine
 10
-427.7216611886672
 20
109.5436753517266
 11
-63.78522662223412
 21
70.73296039990055
  0
ENDSEC
  0
SECTION
  2
OBJECTS
  0
DICTIONARY
  5
C
330
0
100
AcDbDictionary
281
    1
  3
ACAD_GROUP
350
D
  0
DICTIONARY
  5
D
330
C
100
AcDbDictionary
281
    1
  0
PLOTSETTINGS
  5
AD
100
AcDbPlotSettings
  6
1x1
 40
0
 41
0
 42
0
 43
0
  0
ENDSEC
  0
EOF
